<?xml version="1.0" encoding="UTF-8" standalone="no"?>
<!DOCTYPE svg PUBLIC "-//W3C//DTD SVG 1.1//EN"
 "http://www.w3.org/Graphics/SVG/1.1/DTD/svg11.dtd">
<!-- Generated by graphviz version 2.38.0 (20140413.2041)
 -->
<!-- Title: DoxPreviewExt.App.DoxExtMain Pages: 1 -->
<svg width="230pt" height="336pt"
 viewBox="0.00 0.00 230.00 336.00" xmlns="http://www.w3.org/2000/svg" xmlns:xlink="http://www.w3.org/1999/xlink">
<g id="graph0" class="graph" transform="scale(1 1) rotate(0) translate(4 332)">
<title>DoxPreviewExt.App.DoxExtMain</title>
<polygon fill="white" stroke="none" points="-4,4 -4,-332 226,-332 226,4 -4,4"/>
<!-- Node2 -->
<g id="node1" class="node"><title>Node2</title>
<polygon fill="#bfbfbf" stroke="black" points="8.5,-0.5 8.5,-90.5 166.5,-90.5 166.5,-0.5 8.5,-0.5"/>
<text text-anchor="middle" x="87.5" y="-78.5" font-family="Helvetica,sans-Serif" font-size="10.00">DoxPreviewExt.App.DoxExtMain</text>
<polyline fill="none" stroke="black" points="8.5,-71.5 166.5,-71.5 "/>
<text text-anchor="start" x="16.5" y="-59.5" font-family="Helvetica,sans-Serif" font-size="10.00">+ PackageGuidString</text>
<text text-anchor="start" x="16.5" y="-48.5" font-family="Helvetica,sans-Serif" font-size="10.00">+ DoxManager</text>
<text text-anchor="start" x="16.5" y="-37.5" font-family="Helvetica,sans-Serif" font-size="10.00">&#45; _doxManager</text>
<polyline fill="none" stroke="black" points="8.5,-30.5 166.5,-30.5 "/>
<text text-anchor="start" x="16.5" y="-18.5" font-family="Helvetica,sans-Serif" font-size="10.00">+ DoxExtMain()</text>
<text text-anchor="start" x="16.5" y="-7.5" font-family="Helvetica,sans-Serif" font-size="10.00"># Initialize()</text>
</g>
<!-- Node3 -->
<g id="node2" class="node"><title>Node3</title>
<polygon fill="white" stroke="#bfbfbf" points="0,-204.5 0,-261.5 55,-261.5 55,-204.5 0,-204.5"/>
<text text-anchor="middle" x="27.5" y="-249.5" font-family="Helvetica,sans-Serif" font-size="10.00">Package</text>
<polyline fill="none" stroke="#bfbfbf" points="0,-242.5 55,-242.5 "/>
<text text-anchor="middle" x="27.5" y="-230.5" font-family="Helvetica,sans-Serif" font-size="10.00"> </text>
<polyline fill="none" stroke="#bfbfbf" points="0,-223.5 55,-223.5 "/>
<text text-anchor="middle" x="27.5" y="-211.5" font-family="Helvetica,sans-Serif" font-size="10.00"> </text>
</g>
<!-- Node3&#45;&gt;Node2 -->
<g id="edge1" class="edge"><title>Node3&#45;&gt;Node2</title>
<path fill="none" stroke="midnightblue" d="M39.613,-194.551C49.3197,-164.541 62.9616,-122.365 73.2032,-90.7008"/>
<polygon fill="none" stroke="midnightblue" points="36.2301,-193.637 36.4826,-204.229 42.8903,-195.791 36.2301,-193.637"/>
</g>
<!-- Node4 -->
<g id="node3" class="node"><title>Node4</title>
<g id="a_node3"><a xlink:href="class_dox_preview_ext_1_1_app_1_1_command_manager.html" target="_top" xlink:title="{DoxPreviewExt.App.Command\lManager\n|+ DoxManager\l+ ApplicationObject\l+ UserName\l&#45; ConstStartpattern\l&#45; ConstEndpattern\l&#45; ConstStartpatternDotNet\l&#45; ConstEndpatternDotNet\l&#45; applicationObject\l&#45; userName\l&#45; toogleRegionDocument\l|+ CommandManager()\l+ GetPatterns()\l+ ToggleAllRegions()\l}">
<polygon fill="white" stroke="black" points="73,-138.5 73,-327.5 222,-327.5 222,-138.5 73,-138.5"/>
<text text-anchor="start" x="81" y="-315.5" font-family="Helvetica,sans-Serif" font-size="10.00">DoxPreviewExt.App.Command</text>
<text text-anchor="middle" x="147.5" y="-304.5" font-family="Helvetica,sans-Serif" font-size="10.00">Manager</text>
<polyline fill="none" stroke="black" points="73,-297.5 222,-297.5 "/>
<text text-anchor="start" x="81" y="-285.5" font-family="Helvetica,sans-Serif" font-size="10.00">+ DoxManager</text>
<text text-anchor="start" x="81" y="-274.5" font-family="Helvetica,sans-Serif" font-size="10.00">+ ApplicationObject</text>
<text text-anchor="start" x="81" y="-263.5" font-family="Helvetica,sans-Serif" font-size="10.00">+ UserName</text>
<text text-anchor="start" x="81" y="-252.5" font-family="Helvetica,sans-Serif" font-size="10.00">&#45; ConstStartpattern</text>
<text text-anchor="start" x="81" y="-241.5" font-family="Helvetica,sans-Serif" font-size="10.00">&#45; ConstEndpattern</text>
<text text-anchor="start" x="81" y="-230.5" font-family="Helvetica,sans-Serif" font-size="10.00">&#45; ConstStartpatternDotNet</text>
<text text-anchor="start" x="81" y="-219.5" font-family="Helvetica,sans-Serif" font-size="10.00">&#45; ConstEndpatternDotNet</text>
<text text-anchor="start" x="81" y="-208.5" font-family="Helvetica,sans-Serif" font-size="10.00">&#45; applicationObject</text>
<text text-anchor="start" x="81" y="-197.5" font-family="Helvetica,sans-Serif" font-size="10.00">&#45; userName</text>
<text text-anchor="start" x="81" y="-186.5" font-family="Helvetica,sans-Serif" font-size="10.00">&#45; toogleRegionDocument</text>
<polyline fill="none" stroke="black" points="73,-179.5 222,-179.5 "/>
<text text-anchor="start" x="81" y="-167.5" font-family="Helvetica,sans-Serif" font-size="10.00">+ CommandManager()</text>
<text text-anchor="start" x="81" y="-156.5" font-family="Helvetica,sans-Serif" font-size="10.00">+ GetPatterns()</text>
<text text-anchor="start" x="81" y="-145.5" font-family="Helvetica,sans-Serif" font-size="10.00">+ ToggleAllRegions()</text>
</a>
</g>
</g>
<!-- Node4&#45;&gt;Node2 -->
<g id="edge2" class="edge"><title>Node4&#45;&gt;Node2</title>
<path fill="none" stroke="#404040" d="M117.236,-138.435C113.259,-126.138 109.288,-113.861 105.603,-102.468"/>
<polygon fill="none" stroke="#404040" points="105.571,-102.368 99.9181,-97.8901 101.877,-90.9503 107.53,-95.4281 105.571,-102.368"/>
<text text-anchor="middle" x="142" y="-112" font-family="Helvetica,sans-Serif" font-size="10.00"> &#45;cmdManager</text>
</g>
</g>
</svg>
