<?xml version="1.0" encoding="UTF-8" standalone="no"?>
<!DOCTYPE svg PUBLIC "-//W3C//DTD SVG 1.1//EN"
 "http://www.w3.org/Graphics/SVG/1.1/DTD/svg11.dtd">
<!-- Generated by graphviz version 2.38.0 (20140413.2041)
 -->
<!-- Title: DoxPreviewExt.DoxUtil.CPreviewImageCollection.Add Pages: 1 -->
<svg width="358pt" height="39pt"
 viewBox="0.00 0.00 358.00 39.00" xmlns="http://www.w3.org/2000/svg" xmlns:xlink="http://www.w3.org/1999/xlink">
<g id="graph0" class="graph" transform="scale(1 1) rotate(0) translate(4 35)">
<title>DoxPreviewExt.DoxUtil.CPreviewImageCollection.Add</title>
<polygon fill="white" stroke="none" points="-4,4 -4,-35 354,-35 354,4 -4,4"/>
<!-- Node2 -->
<g id="node1" class="node"><title>Node2</title>
<polygon fill="#bfbfbf" stroke="black" points="0,-0.5 0,-30.5 159,-30.5 159,-0.5 0,-0.5"/>
<text text-anchor="start" x="8" y="-18.5" font-family="Helvetica,sans-Serif" font-size="10.00">DoxPreviewExt.DoxUtil.CPreview</text>
<text text-anchor="middle" x="79.5" y="-7.5" font-family="Helvetica,sans-Serif" font-size="10.00">ImageCollection.Add</text>
</g>
<!-- Node3 -->
<g id="node2" class="node"><title>Node3</title>
<g id="a_node2"><a xlink:href="interface_dox_preview_ext_1_1_dox_util_1_1_i_preview_image.html#a3038552eb789264e16a64065e446187d" target="_top" xlink:title="DoxPreviewExt.DoxUtil.IPreview\lImage.GetImageFile">
<polygon fill="white" stroke="black" points="195,-0.5 195,-30.5 350,-30.5 350,-0.5 195,-0.5"/>
<text text-anchor="start" x="203" y="-18.5" font-family="Helvetica,sans-Serif" font-size="10.00">DoxPreviewExt.DoxUtil.IPreview</text>
<text text-anchor="middle" x="272.5" y="-7.5" font-family="Helvetica,sans-Serif" font-size="10.00">Image.GetImageFile</text>
</a>
</g>
</g>
<!-- Node2&#45;&gt;Node3 -->
<g id="edge1" class="edge"><title>Node2&#45;&gt;Node3</title>
<path fill="none" stroke="midnightblue" d="M159.014,-15.5C167.518,-15.5 176.209,-15.5 184.803,-15.5"/>
<polygon fill="midnightblue" stroke="midnightblue" points="184.831,-19.0001 194.831,-15.5 184.831,-12.0001 184.831,-19.0001"/>
</g>
</g>
</svg>
