<?xml version="1.0" encoding="UTF-8" standalone="no"?>
<!DOCTYPE svg PUBLIC "-//W3C//DTD SVG 1.1//EN"
 "http://www.w3.org/Graphics/SVG/1.1/DTD/svg11.dtd">
<!-- Generated by graphviz version 2.38.0 (20140413.2041)
 -->
<!-- Title: ExtensionCommon.ExtensionContext.SearchFile Pages: 1 -->
<svg width="336pt" height="186pt"
 viewBox="0.00 0.00 336.00 186.00" xmlns="http://www.w3.org/2000/svg" xmlns:xlink="http://www.w3.org/1999/xlink">
<g id="graph0" class="graph" transform="scale(1 1) rotate(0) translate(4 182)">
<title>ExtensionCommon.ExtensionContext.SearchFile</title>
<polygon fill="white" stroke="none" points="-4,4 -4,-182 332,-182 332,4 -4,4"/>
<!-- Node13 -->
<g id="node1" class="node"><title>Node13</title>
<polygon fill="#bfbfbf" stroke="black" points="0,-73.5 0,-103.5 146,-103.5 146,-73.5 0,-73.5"/>
<text text-anchor="start" x="8" y="-91.5" font-family="Helvetica,sans-Serif" font-size="10.00">ExtensionCommon.Extension</text>
<text text-anchor="middle" x="73" y="-80.5" font-family="Helvetica,sans-Serif" font-size="10.00">Context.SearchFile</text>
</g>
<!-- Node14 -->
<g id="node2" class="node"><title>Node14</title>
<g id="a_node2"><a xlink:href="class_extension_common_1_1_extension_context.html#a1a6c1b51700f6b4604a6906a9a332bed" target="_top" xlink:title="ExtensionCommon.Extension\lContext.GetDotExe">
<polygon fill="white" stroke="black" points="182,-147.5 182,-177.5 328,-177.5 328,-147.5 182,-147.5"/>
<text text-anchor="start" x="190" y="-165.5" font-family="Helvetica,sans-Serif" font-size="10.00">ExtensionCommon.Extension</text>
<text text-anchor="middle" x="255" y="-154.5" font-family="Helvetica,sans-Serif" font-size="10.00">Context.GetDotExe</text>
</a>
</g>
</g>
<!-- Node13&#45;&gt;Node14 -->
<g id="edge1" class="edge"><title>Node13&#45;&gt;Node14</title>
<path fill="none" stroke="midnightblue" d="M113.544,-108.101C133.784,-117.8 158.954,-129.357 182,-138.5 189.838,-141.61 198.258,-144.664 206.477,-147.497"/>
<polygon fill="midnightblue" stroke="midnightblue" points="114.855,-104.846 104.328,-103.649 111.81,-111.15 114.855,-104.846"/>
</g>
<!-- Node15 -->
<g id="node3" class="node"><title>Node15</title>
<g id="a_node3"><a xlink:href="class_extension_common_1_1_extension_context.html#afeafea2570ec2900adc162582e200ee5" target="_top" xlink:title="ExtensionCommon.Extension\lContext.GetMimeTeXExe">
<polygon fill="white" stroke="black" points="182,-98.5 182,-128.5 328,-128.5 328,-98.5 182,-98.5"/>
<text text-anchor="start" x="190" y="-116.5" font-family="Helvetica,sans-Serif" font-size="10.00">ExtensionCommon.Extension</text>
<text text-anchor="middle" x="255" y="-105.5" font-family="Helvetica,sans-Serif" font-size="10.00">Context.GetMimeTeXExe</text>
</a>
</g>
</g>
<!-- Node13&#45;&gt;Node15 -->
<g id="edge2" class="edge"><title>Node13&#45;&gt;Node15</title>
<path fill="none" stroke="midnightblue" d="M156.16,-99.9111C164.718,-101.1 173.372,-102.302 181.808,-103.473"/>
<polygon fill="midnightblue" stroke="midnightblue" points="156.562,-96.4335 146.176,-98.5244 155.599,-103.367 156.562,-96.4335"/>
</g>
<!-- Node16 -->
<g id="node4" class="node"><title>Node16</title>
<g id="a_node4"><a xlink:href="class_extension_common_1_1_extension_context.html#ad25f5df49f666ee4086ad2082d11297f" target="_top" xlink:title="ExtensionCommon.Extension\lContext.GetMscGenExe">
<polygon fill="white" stroke="black" points="182,-49.5 182,-79.5 328,-79.5 328,-49.5 182,-49.5"/>
<text text-anchor="start" x="190" y="-67.5" font-family="Helvetica,sans-Serif" font-size="10.00">ExtensionCommon.Extension</text>
<text text-anchor="middle" x="255" y="-56.5" font-family="Helvetica,sans-Serif" font-size="10.00">Context.GetMscGenExe</text>
</a>
</g>
</g>
<!-- Node13&#45;&gt;Node16 -->
<g id="edge3" class="edge"><title>Node13&#45;&gt;Node16</title>
<path fill="none" stroke="midnightblue" d="M156.16,-77.5453C164.718,-76.4042 173.372,-75.2504 181.808,-74.1256"/>
<polygon fill="midnightblue" stroke="midnightblue" points="155.625,-74.0855 146.176,-78.8766 156.551,-81.0241 155.625,-74.0855"/>
</g>
<!-- Node17 -->
<g id="node5" class="node"><title>Node17</title>
<g id="a_node5"><a xlink:href="class_extension_common_1_1_extension_context.html#afd880183fe4e7732e532f547c36e1ff1" target="_top" xlink:title="ExtensionCommon.Extension\lContext.GetPlantUmlJar">
<polygon fill="white" stroke="black" points="182,-0.5 182,-30.5 328,-30.5 328,-0.5 182,-0.5"/>
<text text-anchor="start" x="190" y="-18.5" font-family="Helvetica,sans-Serif" font-size="10.00">ExtensionCommon.Extension</text>
<text text-anchor="middle" x="255" y="-7.5" font-family="Helvetica,sans-Serif" font-size="10.00">Context.GetPlantUmlJar</text>
</a>
</g>
</g>
<!-- Node13&#45;&gt;Node17 -->
<g id="edge4" class="edge"><title>Node13&#45;&gt;Node17</title>
<path fill="none" stroke="midnightblue" d="M115.431,-69.1078C135.386,-60.0199 159.76,-49.2856 182,-40.5 190.615,-37.097 199.901,-33.6858 208.849,-30.5253"/>
<polygon fill="midnightblue" stroke="midnightblue" points="113.942,-65.9402 106.308,-73.2875 116.857,-72.304 113.942,-65.9402"/>
</g>
</g>
</svg>
