<?xml version="1.0" encoding="UTF-8" standalone="no"?>
<!DOCTYPE svg PUBLIC "-//W3C//DTD SVG 1.1//EN"
 "http://www.w3.org/Graphics/SVG/1.1/DTD/svg11.dtd">
<!-- Generated by graphviz version 2.38.0 (20140413.2041)
 -->
<!-- Title: DoxPreviewExt.DoxUtil.CLatexFormulaImage Pages: 1 -->
<svg width="158pt" height="507pt"
 viewBox="0.00 0.00 158.00 507.00" xmlns="http://www.w3.org/2000/svg" xmlns:xlink="http://www.w3.org/1999/xlink">
<g id="graph0" class="graph" transform="scale(1 1) rotate(0) translate(4 503)">
<title>DoxPreviewExt.DoxUtil.CLatexFormulaImage</title>
<polygon fill="white" stroke="none" points="-4,4 -4,-503 154,-503 154,4 -4,4"/>
<!-- Node0 -->
<g id="node1" class="node"><title>Node0</title>
<polygon fill="#bfbfbf" stroke="black" points="0,-0.5 0,-211.5 150,-211.5 150,-0.5 0,-0.5"/>
<text text-anchor="start" x="8" y="-199.5" font-family="Helvetica,sans-Serif" font-size="10.00">DoxPreviewExt.DoxUtil.CLatex</text>
<text text-anchor="middle" x="75" y="-188.5" font-family="Helvetica,sans-Serif" font-size="10.00">FormulaImage</text>
<polyline fill="none" stroke="black" points="0,-181.5 150,-181.5 "/>
<text text-anchor="start" x="8" y="-169.5" font-family="Helvetica,sans-Serif" font-size="10.00">&#45; sourceIsFile_</text>
<text text-anchor="start" x="8" y="-158.5" font-family="Helvetica,sans-Serif" font-size="10.00">&#45; tempSourcePath_</text>
<text text-anchor="start" x="8" y="-147.5" font-family="Helvetica,sans-Serif" font-size="10.00">&#45; tempSourceFileName_</text>
<text text-anchor="start" x="8" y="-136.5" font-family="Helvetica,sans-Serif" font-size="10.00">&#45; tempSourceFilePath_</text>
<text text-anchor="start" x="8" y="-125.5" font-family="Helvetica,sans-Serif" font-size="10.00">&#45; previewCachePath_</text>
<text text-anchor="start" x="8" y="-114.5" font-family="Helvetica,sans-Serif" font-size="10.00">&#45; previewFileExt_</text>
<text text-anchor="start" x="8" y="-103.5" font-family="Helvetica,sans-Serif" font-size="10.00">&#45; priveFontSize_</text>
<text text-anchor="start" x="8" y="-92.5" font-family="Helvetica,sans-Serif" font-size="10.00">&#45; previewFileName_</text>
<text text-anchor="start" x="8" y="-81.5" font-family="Helvetica,sans-Serif" font-size="10.00">&#45; previewFilePath_</text>
<text text-anchor="start" x="8" y="-70.5" font-family="Helvetica,sans-Serif" font-size="10.00">&#45; imgGenProcess_</text>
<polyline fill="none" stroke="black" points="0,-63.5 150,-63.5 "/>
<text text-anchor="start" x="8" y="-51.5" font-family="Helvetica,sans-Serif" font-size="10.00">+ CLatexFormulaImage()</text>
<text text-anchor="start" x="8" y="-40.5" font-family="Helvetica,sans-Serif" font-size="10.00">+ GetImageFile()</text>
<text text-anchor="start" x="8" y="-29.5" font-family="Helvetica,sans-Serif" font-size="10.00">+ GetValidImage()</text>
<text text-anchor="start" x="8" y="-18.5" font-family="Helvetica,sans-Serif" font-size="10.00"># Validate()</text>
<text text-anchor="start" x="8" y="-7.5" font-family="Helvetica,sans-Serif" font-size="10.00">&#45; Convert()</text>
</g>
<!-- Node1 -->
<g id="node2" class="node"><title>Node1</title>
<g id="a_node2"><a xlink:href="class_dox_preview_ext_1_1_dox_util_1_1_c_preview_image_base.html" target="_top" xlink:title="{CPreviewImageBase\n|+ Collection\l+ Options\l+ TempName\l# state_\l|+ GetImageFile()\l+ GetValidImage()\l+ CPreviewImageBase()\l+ GetImage()\l# Validate()\l# TempFilePath()\l}">
<polygon fill="white" stroke="black" points="15,-248.5 15,-393.5 135,-393.5 135,-248.5 15,-248.5"/>
<text text-anchor="middle" x="75" y="-381.5" font-family="Helvetica,sans-Serif" font-size="10.00">CPreviewImageBase</text>
<polyline fill="none" stroke="black" points="15,-374.5 135,-374.5 "/>
<text text-anchor="start" x="23" y="-362.5" font-family="Helvetica,sans-Serif" font-size="10.00">+ Collection</text>
<text text-anchor="start" x="23" y="-351.5" font-family="Helvetica,sans-Serif" font-size="10.00">+ Options</text>
<text text-anchor="start" x="23" y="-340.5" font-family="Helvetica,sans-Serif" font-size="10.00">+ TempName</text>
<text text-anchor="start" x="23" y="-329.5" font-family="Helvetica,sans-Serif" font-size="10.00"># state_</text>
<polyline fill="none" stroke="black" points="15,-322.5 135,-322.5 "/>
<text text-anchor="start" x="23" y="-310.5" font-family="Helvetica,sans-Serif" font-size="10.00">+ GetImageFile()</text>
<text text-anchor="start" x="23" y="-299.5" font-family="Helvetica,sans-Serif" font-size="10.00">+ GetValidImage()</text>
<text text-anchor="start" x="23" y="-288.5" font-family="Helvetica,sans-Serif" font-size="10.00">+ CPreviewImageBase()</text>
<text text-anchor="start" x="23" y="-277.5" font-family="Helvetica,sans-Serif" font-size="10.00">+ GetImage()</text>
<text text-anchor="start" x="23" y="-266.5" font-family="Helvetica,sans-Serif" font-size="10.00"># Validate()</text>
<text text-anchor="start" x="23" y="-255.5" font-family="Helvetica,sans-Serif" font-size="10.00"># TempFilePath()</text>
</a>
</g>
</g>
<!-- Node1&#45;&gt;Node0 -->
<g id="edge1" class="edge"><title>Node1&#45;&gt;Node0</title>
<path fill="none" stroke="midnightblue" d="M75,-238.349C75,-229.613 75,-220.64 75,-211.684"/>
<polygon fill="none" stroke="midnightblue" points="71.5001,-238.482 75,-248.482 78.5001,-238.482 71.5001,-238.482"/>
</g>
<!-- Node2 -->
<g id="node3" class="node"><title>Node2</title>
<g id="a_node3"><a xlink:href="interface_dox_preview_ext_1_1_dox_util_1_1_i_preview_image.html" target="_top" xlink:title="{IPreviewImage\n||+ GetImageFile()\l+ GetImage()\l}">
<polygon fill="white" stroke="black" points="30.5,-430.5 30.5,-498.5 119.5,-498.5 119.5,-430.5 30.5,-430.5"/>
<text text-anchor="middle" x="75" y="-486.5" font-family="Helvetica,sans-Serif" font-size="10.00">IPreviewImage</text>
<polyline fill="none" stroke="black" points="30.5,-479.5 119.5,-479.5 "/>
<text text-anchor="middle" x="75" y="-467.5" font-family="Helvetica,sans-Serif" font-size="10.00"> </text>
<polyline fill="none" stroke="black" points="30.5,-460.5 119.5,-460.5 "/>
<text text-anchor="start" x="38.5" y="-448.5" font-family="Helvetica,sans-Serif" font-size="10.00">+ GetImageFile()</text>
<text text-anchor="start" x="38.5" y="-437.5" font-family="Helvetica,sans-Serif" font-size="10.00">+ GetImage()</text>
</a>
</g>
</g>
<!-- Node2&#45;&gt;Node1 -->
<g id="edge2" class="edge"><title>Node2&#45;&gt;Node1</title>
<path fill="none" stroke="midnightblue" d="M75,-420.093C75,-411.727 75,-402.757 75,-393.766"/>
<polygon fill="none" stroke="midnightblue" points="71.5001,-420.325 75,-430.325 78.5001,-420.325 71.5001,-420.325"/>
</g>
</g>
</svg>
