<?xml version="1.0" encoding="UTF-8" standalone="no"?>
<!DOCTYPE svg PUBLIC "-//W3C//DTD SVG 1.1//EN"
 "http://www.w3.org/Graphics/SVG/1.1/DTD/svg11.dtd">
<!-- Generated by graphviz version 2.38.0 (20140413.2041)
 -->
<!-- Title: DoxPreviewExt.DoxUtil.CmdClassifications.LatexFormulaContentFormatDefinition Pages: 1 -->
<svg width="184pt" height="193pt"
 viewBox="0.00 0.00 184.00 193.00" xmlns="http://www.w3.org/2000/svg" xmlns:xlink="http://www.w3.org/1999/xlink">
<g id="graph0" class="graph" transform="scale(1 1) rotate(0) translate(4 189)">
<title>DoxPreviewExt.DoxUtil.CmdClassifications.LatexFormulaContentFormatDefinition</title>
<polygon fill="white" stroke="none" points="-4,4 -4,-189 180,-189 180,4 -4,4"/>
<!-- Node2 -->
<g id="node1" class="node"><title>Node2</title>
<polygon fill="#bfbfbf" stroke="black" points="0,-0.5 0,-90.5 176,-90.5 176,-0.5 0,-0.5"/>
<text text-anchor="start" x="8" y="-78.5" font-family="Helvetica,sans-Serif" font-size="10.00">DoxPreviewExt.DoxUtil.Cmd</text>
<text text-anchor="start" x="8" y="-67.5" font-family="Helvetica,sans-Serif" font-size="10.00">Classifications.LatexFormulaContent</text>
<text text-anchor="middle" x="88" y="-56.5" font-family="Helvetica,sans-Serif" font-size="10.00">FormatDefinition</text>
<polyline fill="none" stroke="black" points="0,-49.5 176,-49.5 "/>
<text text-anchor="middle" x="88" y="-37.5" font-family="Helvetica,sans-Serif" font-size="10.00"> </text>
<polyline fill="none" stroke="black" points="0,-30.5 176,-30.5 "/>
<text text-anchor="start" x="8" y="-18.5" font-family="Helvetica,sans-Serif" font-size="10.00">+ LatexFormulaContentFormat</text>
<text text-anchor="start" x="8" y="-7.5" font-family="Helvetica,sans-Serif" font-size="10.00">Definition()</text>
</g>
<!-- Node3 -->
<g id="node2" class="node"><title>Node3</title>
<polygon fill="white" stroke="#bfbfbf" points="15.5,-127.5 15.5,-184.5 160.5,-184.5 160.5,-127.5 15.5,-127.5"/>
<text text-anchor="middle" x="88" y="-172.5" font-family="Helvetica,sans-Serif" font-size="10.00">ClassificationFormatDefinition</text>
<polyline fill="none" stroke="#bfbfbf" points="15.5,-165.5 160.5,-165.5 "/>
<text text-anchor="middle" x="88" y="-153.5" font-family="Helvetica,sans-Serif" font-size="10.00"> </text>
<polyline fill="none" stroke="#bfbfbf" points="15.5,-146.5 160.5,-146.5 "/>
<text text-anchor="middle" x="88" y="-134.5" font-family="Helvetica,sans-Serif" font-size="10.00"> </text>
</g>
<!-- Node3&#45;&gt;Node2 -->
<g id="edge1" class="edge"><title>Node3&#45;&gt;Node2</title>
<path fill="none" stroke="midnightblue" d="M88,-117.214C88,-108.609 88,-99.3943 88,-90.5541"/>
<polygon fill="none" stroke="midnightblue" points="84.5001,-117.34 88,-127.34 91.5001,-117.34 84.5001,-117.34"/>
</g>
</g>
</svg>
