<?xml version="1.0" encoding="UTF-8" standalone="no"?>
<!DOCTYPE svg PUBLIC "-//W3C//DTD SVG 1.1//EN"
 "http://www.w3.org/Graphics/SVG/1.1/DTD/svg11.dtd">
<!-- Generated by graphviz version 2.38.0 (20140413.2041)
 -->
<!-- Title: DoxPreviewExt.Command.CommandDoxgenGeneratePreview.Perform Pages: 1 -->
<svg width="402pt" height="50pt"
 viewBox="0.00 0.00 402.00 50.00" xmlns="http://www.w3.org/2000/svg" xmlns:xlink="http://www.w3.org/1999/xlink">
<g id="graph0" class="graph" transform="scale(1 1) rotate(0) translate(4 46)">
<title>DoxPreviewExt.Command.CommandDoxgenGeneratePreview.Perform</title>
<polygon fill="white" stroke="none" points="-4,4 -4,-46 398,-46 398,4 -4,4"/>
<!-- Node8 -->
<g id="node1" class="node"><title>Node8</title>
<polygon fill="#bfbfbf" stroke="black" points="0,-6 0,-36 176,-36 176,-6 0,-6"/>
<text text-anchor="start" x="8" y="-24" font-family="Helvetica,sans-Serif" font-size="10.00">DoxPreviewExt.Command.Command</text>
<text text-anchor="middle" x="88" y="-13" font-family="Helvetica,sans-Serif" font-size="10.00">DoxgenGeneratePreview.Perform</text>
</g>
<!-- Node9 -->
<g id="node2" class="node"><title>Node9</title>
<g id="a_node2"><a xlink:href="class_dox_preview_ext_1_1_command_1_1_command_doxgen_generate_preview_1_1_generate_exit_handler.html#a26679ccad3c228b187193bcc840ed79b" target="_top" xlink:title="DoxPreviewExt.Command.Command\lDoxgenGeneratePreview.GenerateExit\lHandler.GenerateExitHandlerEvent">
<polygon fill="white" stroke="black" points="212,-0.5 212,-41.5 394,-41.5 394,-0.5 212,-0.5"/>
<text text-anchor="start" x="220" y="-29.5" font-family="Helvetica,sans-Serif" font-size="10.00">DoxPreviewExt.Command.Command</text>
<text text-anchor="start" x="220" y="-18.5" font-family="Helvetica,sans-Serif" font-size="10.00">DoxgenGeneratePreview.GenerateExit</text>
<text text-anchor="middle" x="303" y="-7.5" font-family="Helvetica,sans-Serif" font-size="10.00">Handler.GenerateExitHandlerEvent</text>
</a>
</g>
</g>
<!-- Node8&#45;&gt;Node9 -->
<g id="edge1" class="edge"><title>Node8&#45;&gt;Node9</title>
<path fill="none" stroke="midnightblue" d="M176.25,-21C184.581,-21 193.075,-21 201.518,-21"/>
<polygon fill="midnightblue" stroke="midnightblue" points="201.777,-24.5001 211.777,-21 201.777,-17.5001 201.777,-24.5001"/>
</g>
</g>
</svg>
