<?xml version="1.0" encoding="UTF-8" standalone="no"?>
<!DOCTYPE svg PUBLIC "-//W3C//DTD SVG 1.1//EN"
 "http://www.w3.org/Graphics/SVG/1.1/DTD/svg11.dtd">
<!-- Generated by graphviz version 2.38.0 (20140413.2041)
 -->
<!-- Title: DoxPreviewExt.DoxUtil.CPreviewImageBase Pages: 1 -->
<svg width="167pt" height="270pt"
 viewBox="0.00 0.00 167.00 270.00" xmlns="http://www.w3.org/2000/svg" xmlns:xlink="http://www.w3.org/1999/xlink">
<g id="graph0" class="graph" transform="scale(1 1) rotate(0) translate(4 266)">
<title>DoxPreviewExt.DoxUtil.CPreviewImageBase</title>
<polygon fill="white" stroke="none" points="-4,4 -4,-266 163,-266 163,4 -4,4"/>
<!-- Node6 -->
<g id="node1" class="node"><title>Node6</title>
<polygon fill="#bfbfbf" stroke="black" points="0,-0.5 0,-156.5 159,-156.5 159,-0.5 0,-0.5"/>
<text text-anchor="start" x="8" y="-144.5" font-family="Helvetica,sans-Serif" font-size="10.00">DoxPreviewExt.DoxUtil.CPreview</text>
<text text-anchor="middle" x="79.5" y="-133.5" font-family="Helvetica,sans-Serif" font-size="10.00">ImageBase</text>
<polyline fill="none" stroke="black" points="0,-126.5 159,-126.5 "/>
<text text-anchor="start" x="8" y="-114.5" font-family="Helvetica,sans-Serif" font-size="10.00">+ Collection</text>
<text text-anchor="start" x="8" y="-103.5" font-family="Helvetica,sans-Serif" font-size="10.00">+ Options</text>
<text text-anchor="start" x="8" y="-92.5" font-family="Helvetica,sans-Serif" font-size="10.00">+ TempName</text>
<text text-anchor="start" x="8" y="-81.5" font-family="Helvetica,sans-Serif" font-size="10.00"># state_</text>
<polyline fill="none" stroke="black" points="0,-74.5 159,-74.5 "/>
<text text-anchor="start" x="8" y="-62.5" font-family="Helvetica,sans-Serif" font-size="10.00">+ GetImageFile()</text>
<text text-anchor="start" x="8" y="-51.5" font-family="Helvetica,sans-Serif" font-size="10.00">+ GetValidImage()</text>
<text text-anchor="start" x="8" y="-40.5" font-family="Helvetica,sans-Serif" font-size="10.00">+ CPreviewImageBase()</text>
<text text-anchor="start" x="8" y="-29.5" font-family="Helvetica,sans-Serif" font-size="10.00">+ GetImage()</text>
<text text-anchor="start" x="8" y="-18.5" font-family="Helvetica,sans-Serif" font-size="10.00"># Validate()</text>
<text text-anchor="start" x="8" y="-7.5" font-family="Helvetica,sans-Serif" font-size="10.00"># TempFilePath()</text>
</g>
<!-- Node7 -->
<g id="node2" class="node"><title>Node7</title>
<g id="a_node2"><a xlink:href="interface_dox_preview_ext_1_1_dox_util_1_1_i_preview_image.html" target="_top" xlink:title="{IPreviewImage\n||+ GetImageFile()\l+ GetImage()\l}">
<polygon fill="white" stroke="black" points="35,-193.5 35,-261.5 124,-261.5 124,-193.5 35,-193.5"/>
<text text-anchor="middle" x="79.5" y="-249.5" font-family="Helvetica,sans-Serif" font-size="10.00">IPreviewImage</text>
<polyline fill="none" stroke="black" points="35,-242.5 124,-242.5 "/>
<text text-anchor="middle" x="79.5" y="-230.5" font-family="Helvetica,sans-Serif" font-size="10.00"> </text>
<polyline fill="none" stroke="black" points="35,-223.5 124,-223.5 "/>
<text text-anchor="start" x="43" y="-211.5" font-family="Helvetica,sans-Serif" font-size="10.00">+ GetImageFile()</text>
<text text-anchor="start" x="43" y="-200.5" font-family="Helvetica,sans-Serif" font-size="10.00">+ GetImage()</text>
</a>
</g>
</g>
<!-- Node7&#45;&gt;Node6 -->
<g id="edge1" class="edge"><title>Node7&#45;&gt;Node6</title>
<path fill="none" stroke="midnightblue" d="M79.5,-183C79.5,-174.7 79.5,-165.784 79.5,-156.792"/>
<polygon fill="none" stroke="midnightblue" points="76.0001,-183.143 79.5,-193.143 83.0001,-183.143 76.0001,-183.143"/>
</g>
</g>
</svg>
