<?xml version="1.0" encoding="UTF-8" standalone="no"?>
<!DOCTYPE svg PUBLIC "-//W3C//DTD SVG 1.1//EN"
 "http://www.w3.org/Graphics/SVG/1.1/DTD/svg11.dtd">
<!-- Generated by graphviz version 2.38.0 (20140413.2041)
 -->
<!-- Title: DoxPreviewExt.DoxUtil.CmdClassifications.UnknownCommandFormatDefinition Pages: 1 -->
<svg width="194pt" height="182pt"
 viewBox="0.00 0.00 194.00 182.00" xmlns="http://www.w3.org/2000/svg" xmlns:xlink="http://www.w3.org/1999/xlink">
<g id="graph0" class="graph" transform="scale(1 1) rotate(0) translate(4 178)">
<title>DoxPreviewExt.DoxUtil.CmdClassifications.UnknownCommandFormatDefinition</title>
<polygon fill="white" stroke="none" points="-4,4 -4,-178 190,-178 190,4 -4,4"/>
<!-- Node0 -->
<g id="node1" class="node"><title>Node0</title>
<polygon fill="#bfbfbf" stroke="black" points="0,-0.5 0,-79.5 186,-79.5 186,-0.5 0,-0.5"/>
<text text-anchor="start" x="8" y="-67.5" font-family="Helvetica,sans-Serif" font-size="10.00">DoxPreviewExt.DoxUtil.Cmd</text>
<text text-anchor="start" x="8" y="-56.5" font-family="Helvetica,sans-Serif" font-size="10.00">Classifications.UnknownCommand</text>
<text text-anchor="middle" x="93" y="-45.5" font-family="Helvetica,sans-Serif" font-size="10.00">FormatDefinition</text>
<polyline fill="none" stroke="black" points="0,-38.5 186,-38.5 "/>
<text text-anchor="middle" x="93" y="-26.5" font-family="Helvetica,sans-Serif" font-size="10.00"> </text>
<polyline fill="none" stroke="black" points="0,-19.5 186,-19.5 "/>
<text text-anchor="start" x="8" y="-7.5" font-family="Helvetica,sans-Serif" font-size="10.00">+ UnknownCommandFormatDefinition()</text>
</g>
<!-- Node1 -->
<g id="node2" class="node"><title>Node1</title>
<polygon fill="white" stroke="#bfbfbf" points="20.5,-116.5 20.5,-173.5 165.5,-173.5 165.5,-116.5 20.5,-116.5"/>
<text text-anchor="middle" x="93" y="-161.5" font-family="Helvetica,sans-Serif" font-size="10.00">ClassificationFormatDefinition</text>
<polyline fill="none" stroke="#bfbfbf" points="20.5,-154.5 165.5,-154.5 "/>
<text text-anchor="middle" x="93" y="-142.5" font-family="Helvetica,sans-Serif" font-size="10.00"> </text>
<polyline fill="none" stroke="#bfbfbf" points="20.5,-135.5 165.5,-135.5 "/>
<text text-anchor="middle" x="93" y="-123.5" font-family="Helvetica,sans-Serif" font-size="10.00"> </text>
</g>
<!-- Node1&#45;&gt;Node0 -->
<g id="edge1" class="edge"><title>Node1&#45;&gt;Node0</title>
<path fill="none" stroke="midnightblue" d="M93,-106.156C93,-97.4733 93,-88.2318 93,-79.5205"/>
<polygon fill="none" stroke="midnightblue" points="89.5001,-106.398 93,-116.398 96.5001,-106.398 89.5001,-106.398"/>
</g>
</g>
</svg>
