<?xml version="1.0" encoding="UTF-8" standalone="no"?>
<!DOCTYPE svg PUBLIC "-//W3C//DTD SVG 1.1//EN"
 "http://www.w3.org/Graphics/SVG/1.1/DTD/svg11.dtd">
<!-- Generated by graphviz version 2.38.0 (20140413.2041)
 -->
<!-- Title: DoxPreviewExt.DoxUtil.CCache Pages: 1 -->
<svg width="350pt" height="270pt"
 viewBox="0.00 0.00 350.00 270.00" xmlns="http://www.w3.org/2000/svg" xmlns:xlink="http://www.w3.org/1999/xlink">
<g id="graph0" class="graph" transform="scale(1 1) rotate(0) translate(4 266)">
<title>DoxPreviewExt.DoxUtil.CCache</title>
<polygon fill="white" stroke="none" points="-4,4 -4,-266 346,-266 346,4 -4,4"/>
<!-- Node1 -->
<g id="node1" class="node"><title>Node1</title>
<polygon fill="#bfbfbf" stroke="black" points="93.5,-0.5 93.5,-57.5 247.5,-57.5 247.5,-0.5 93.5,-0.5"/>
<text text-anchor="middle" x="170.5" y="-45.5" font-family="Helvetica,sans-Serif" font-size="10.00">DoxPreviewExt.DoxUtil.CCache</text>
<polyline fill="none" stroke="black" points="93.5,-38.5 247.5,-38.5 "/>
<text text-anchor="middle" x="170.5" y="-26.5" font-family="Helvetica,sans-Serif" font-size="10.00"> </text>
<polyline fill="none" stroke="black" points="93.5,-19.5 247.5,-19.5 "/>
<text text-anchor="middle" x="170.5" y="-7.5" font-family="Helvetica,sans-Serif" font-size="10.00"> </text>
</g>
<!-- Node2 -->
<g id="node2" class="node"><title>Node2</title>
<g id="a_node2"><a xlink:href="class_dox_preview_ext_1_1_dox_util_1_1_c_file_map.html" target="_top" xlink:title="{DoxPreviewExt.DoxUtil.CFileMap\n|+ RootPaths\l&#45; fileMap_\l&#45; rootPaths_\l|+ CFileMap()\l+ UpdateFileMap()\l+ FindFilePath()\l&#45; GenerateFileMap()\l&#45; FindeFilesRecursive()\l}">
<polygon fill="white" stroke="black" points="0,-138.5 0,-261.5 161,-261.5 161,-138.5 0,-138.5"/>
<text text-anchor="middle" x="80.5" y="-249.5" font-family="Helvetica,sans-Serif" font-size="10.00">DoxPreviewExt.DoxUtil.CFileMap</text>
<polyline fill="none" stroke="black" points="0,-242.5 161,-242.5 "/>
<text text-anchor="start" x="8" y="-230.5" font-family="Helvetica,sans-Serif" font-size="10.00">+ RootPaths</text>
<text text-anchor="start" x="8" y="-219.5" font-family="Helvetica,sans-Serif" font-size="10.00">&#45; fileMap_</text>
<text text-anchor="start" x="8" y="-208.5" font-family="Helvetica,sans-Serif" font-size="10.00">&#45; rootPaths_</text>
<polyline fill="none" stroke="black" points="0,-201.5 161,-201.5 "/>
<text text-anchor="start" x="8" y="-189.5" font-family="Helvetica,sans-Serif" font-size="10.00">+ CFileMap()</text>
<text text-anchor="start" x="8" y="-178.5" font-family="Helvetica,sans-Serif" font-size="10.00">+ UpdateFileMap()</text>
<text text-anchor="start" x="8" y="-167.5" font-family="Helvetica,sans-Serif" font-size="10.00">+ FindFilePath()</text>
<text text-anchor="start" x="8" y="-156.5" font-family="Helvetica,sans-Serif" font-size="10.00">&#45; GenerateFileMap()</text>
<text text-anchor="start" x="8" y="-145.5" font-family="Helvetica,sans-Serif" font-size="10.00">&#45; FindeFilesRecursive()</text>
</a>
</g>
</g>
<!-- Node2&#45;&gt;Node1 -->
<g id="edge1" class="edge"><title>Node2&#45;&gt;Node1</title>
<path fill="none" stroke="#404040" d="M112.738,-138.464C125.222,-115.022 139.135,-88.8962 150.178,-68.1605"/>
<polygon fill="none" stroke="#404040" points="150.188,-68.1412 149.478,-60.9652 155.829,-57.5495 156.539,-64.7256 150.188,-68.1412"/>
<text text-anchor="middle" x="181" y="-112" font-family="Helvetica,sans-Serif" font-size="10.00"> +diaFileMap_</text>
<text text-anchor="middle" x="181" y="-101" font-family="Helvetica,sans-Serif" font-size="10.00">+mscFileMap_</text>
<text text-anchor="middle" x="181" y="-90" font-family="Helvetica,sans-Serif" font-size="10.00">+imageFileMap_</text>
<text text-anchor="middle" x="181" y="-79" font-family="Helvetica,sans-Serif" font-size="10.00">+dotFileMap_</text>
</g>
<!-- Node3 -->
<g id="node3" class="node"><title>Node3</title>
<g id="a_node3"><a xlink:href="class_dox_preview_ext_1_1_dox_util_1_1_c_link_map.html" target="_top" xlink:title="{DoxPreviewExt.DoxUtil.CLinkMap\n|+ RootURL\l&#45; doxLinkMap_\l&#45; rootURL_\l&#45; searchPrefix\l|+ CLinkMap()\l+ UpdateLinkMap()\l+ FindDoxygenLink()\l&#45; GenerateLinkMap()\l}">
<polygon fill="white" stroke="black" points="179,-138.5 179,-261.5 342,-261.5 342,-138.5 179,-138.5"/>
<text text-anchor="middle" x="260.5" y="-249.5" font-family="Helvetica,sans-Serif" font-size="10.00">DoxPreviewExt.DoxUtil.CLinkMap</text>
<polyline fill="none" stroke="black" points="179,-242.5 342,-242.5 "/>
<text text-anchor="start" x="187" y="-230.5" font-family="Helvetica,sans-Serif" font-size="10.00">+ RootURL</text>
<text text-anchor="start" x="187" y="-219.5" font-family="Helvetica,sans-Serif" font-size="10.00">&#45; doxLinkMap_</text>
<text text-anchor="start" x="187" y="-208.5" font-family="Helvetica,sans-Serif" font-size="10.00">&#45; rootURL_</text>
<text text-anchor="start" x="187" y="-197.5" font-family="Helvetica,sans-Serif" font-size="10.00">&#45; searchPrefix</text>
<polyline fill="none" stroke="black" points="179,-190.5 342,-190.5 "/>
<text text-anchor="start" x="187" y="-178.5" font-family="Helvetica,sans-Serif" font-size="10.00">+ CLinkMap()</text>
<text text-anchor="start" x="187" y="-167.5" font-family="Helvetica,sans-Serif" font-size="10.00">+ UpdateLinkMap()</text>
<text text-anchor="start" x="187" y="-156.5" font-family="Helvetica,sans-Serif" font-size="10.00">+ FindDoxygenLink()</text>
<text text-anchor="start" x="187" y="-145.5" font-family="Helvetica,sans-Serif" font-size="10.00">&#45; GenerateLinkMap()</text>
</a>
</g>
</g>
<!-- Node3&#45;&gt;Node1 -->
<g id="edge2" class="edge"><title>Node3&#45;&gt;Node1</title>
<path fill="none" stroke="#404040" d="M248.122,-138.312C242.143,-117.496 233.565,-94.7421 221.5,-76 219.468,-72.8434 217.164,-69.7675 214.687,-66.8001"/>
<polygon fill="none" stroke="#404040" points="214.445,-66.5389 207.435,-64.8477 206.3,-57.7265 213.31,-59.4176 214.445,-66.5389"/>
<text text-anchor="middle" x="277" y="-101" font-family="Helvetica,sans-Serif" font-size="10.00"> +mainLinkMap_</text>
<text text-anchor="middle" x="277" y="-90" font-family="Helvetica,sans-Serif" font-size="10.00">+localLinkMap_</text>
</g>
</g>
</svg>
