<?xml version="1.0" encoding="UTF-8" standalone="no"?>
<!DOCTYPE svg PUBLIC "-//W3C//DTD SVG 1.1//EN"
 "http://www.w3.org/Graphics/SVG/1.1/DTD/svg11.dtd">
<!-- Generated by graphviz version 2.38.0 (20140413.2041)
 -->
<!-- Title: ExtensionCommon.ExtensionContext.SearchFile Pages: 1 -->
<svg width="551pt" height="247pt"
 viewBox="0.00 0.00 551.00 247.00" xmlns="http://www.w3.org/2000/svg" xmlns:xlink="http://www.w3.org/1999/xlink">
<g id="graph0" class="graph" transform="scale(1 1) rotate(0) translate(4 243)">
<title>ExtensionCommon.ExtensionContext.SearchFile</title>
<polygon fill="white" stroke="none" points="-4,4 -4,-243 547,-243 547,4 -4,4"/>
<!-- Node21 -->
<g id="node1" class="node"><title>Node21</title>
<polygon fill="#bfbfbf" stroke="black" points="0,-103.5 0,-133.5 146,-133.5 146,-103.5 0,-103.5"/>
<text text-anchor="start" x="8" y="-121.5" font-family="Helvetica,sans-Serif" font-size="10.00">ExtensionCommon.Extension</text>
<text text-anchor="middle" x="73" y="-110.5" font-family="Helvetica,sans-Serif" font-size="10.00">Context.SearchFile</text>
</g>
<!-- Node22 -->
<g id="node2" class="node"><title>Node22</title>
<g id="a_node2"><a xlink:href="class_extension_common_1_1_extension_context.html#a1a6c1b51700f6b4604a6906a9a332bed" target="_top" xlink:title="ExtensionCommon.Extension\lContext.GetDotExe">
<polygon fill="white" stroke="black" points="182,-128.5 182,-158.5 328,-158.5 328,-128.5 182,-128.5"/>
<text text-anchor="start" x="190" y="-146.5" font-family="Helvetica,sans-Serif" font-size="10.00">ExtensionCommon.Extension</text>
<text text-anchor="middle" x="255" y="-135.5" font-family="Helvetica,sans-Serif" font-size="10.00">Context.GetDotExe</text>
</a>
</g>
</g>
<!-- Node21&#45;&gt;Node22 -->
<g id="edge1" class="edge"><title>Node21&#45;&gt;Node22</title>
<path fill="none" stroke="midnightblue" d="M156.16,-129.911C164.718,-131.1 173.372,-132.302 181.808,-133.473"/>
<polygon fill="midnightblue" stroke="midnightblue" points="156.562,-126.433 146.176,-128.524 155.599,-133.367 156.562,-126.433"/>
</g>
<!-- Node25 -->
<g id="node5" class="node"><title>Node25</title>
<g id="a_node5"><a xlink:href="class_extension_common_1_1_extension_context.html#afeafea2570ec2900adc162582e200ee5" target="_top" xlink:title="ExtensionCommon.Extension\lContext.GetMimeTeXExe">
<polygon fill="white" stroke="black" points="182,-177.5 182,-207.5 328,-207.5 328,-177.5 182,-177.5"/>
<text text-anchor="start" x="190" y="-195.5" font-family="Helvetica,sans-Serif" font-size="10.00">ExtensionCommon.Extension</text>
<text text-anchor="middle" x="255" y="-184.5" font-family="Helvetica,sans-Serif" font-size="10.00">Context.GetMimeTeXExe</text>
</a>
</g>
</g>
<!-- Node21&#45;&gt;Node25 -->
<g id="edge4" class="edge"><title>Node21&#45;&gt;Node25</title>
<path fill="none" stroke="midnightblue" d="M113.544,-138.101C133.784,-147.8 158.954,-159.357 182,-168.5 189.838,-171.61 198.258,-174.664 206.477,-177.497"/>
<polygon fill="midnightblue" stroke="midnightblue" points="114.855,-134.846 104.328,-133.649 111.81,-141.15 114.855,-134.846"/>
</g>
<!-- Node27 -->
<g id="node7" class="node"><title>Node27</title>
<g id="a_node7"><a xlink:href="class_extension_common_1_1_extension_context.html#ad25f5df49f666ee4086ad2082d11297f" target="_top" xlink:title="ExtensionCommon.Extension\lContext.GetMscGenExe">
<polygon fill="white" stroke="black" points="182,-79.5 182,-109.5 328,-109.5 328,-79.5 182,-79.5"/>
<text text-anchor="start" x="190" y="-97.5" font-family="Helvetica,sans-Serif" font-size="10.00">ExtensionCommon.Extension</text>
<text text-anchor="middle" x="255" y="-86.5" font-family="Helvetica,sans-Serif" font-size="10.00">Context.GetMscGenExe</text>
</a>
</g>
</g>
<!-- Node21&#45;&gt;Node27 -->
<g id="edge7" class="edge"><title>Node21&#45;&gt;Node27</title>
<path fill="none" stroke="midnightblue" d="M156.16,-107.545C164.718,-106.404 173.372,-105.25 181.808,-104.126"/>
<polygon fill="midnightblue" stroke="midnightblue" points="155.625,-104.086 146.176,-108.877 156.551,-111.024 155.625,-104.086"/>
</g>
<!-- Node29 -->
<g id="node9" class="node"><title>Node29</title>
<g id="a_node9"><a xlink:href="class_extension_common_1_1_extension_context.html#afd880183fe4e7732e532f547c36e1ff1" target="_top" xlink:title="ExtensionCommon.Extension\lContext.GetPlantUmlJar">
<polygon fill="white" stroke="black" points="182,-30.5 182,-60.5 328,-60.5 328,-30.5 182,-30.5"/>
<text text-anchor="start" x="190" y="-48.5" font-family="Helvetica,sans-Serif" font-size="10.00">ExtensionCommon.Extension</text>
<text text-anchor="middle" x="255" y="-37.5" font-family="Helvetica,sans-Serif" font-size="10.00">Context.GetPlantUmlJar</text>
</a>
</g>
</g>
<!-- Node21&#45;&gt;Node29 -->
<g id="edge10" class="edge"><title>Node21&#45;&gt;Node29</title>
<path fill="none" stroke="midnightblue" d="M114.021,-99.1396C134.195,-89.6899 159.165,-78.4578 182,-69.5 189.85,-66.4204 198.275,-63.3806 206.497,-60.5532"/>
<polygon fill="midnightblue" stroke="midnightblue" points="112.375,-96.0462 104.825,-103.479 115.362,-102.377 112.375,-96.0462"/>
</g>
<!-- Node23 -->
<g id="node3" class="node"><title>Node23</title>
<g id="a_node3"><a xlink:href="class_dox_preview_ext_1_1_configuration_1_1_dox_config_user_control.html#afb8cf2f1bb23c2d7413f7dd38d79a9cb" target="_top" xlink:title="DoxPreviewExt.Configuration.\lDoxConfigUserControl.DoxConfigUser\lControl_Load">
<polygon fill="white" stroke="black" points="364,-99 364,-140 543,-140 543,-99 364,-99"/>
<text text-anchor="start" x="372" y="-128" font-family="Helvetica,sans-Serif" font-size="10.00">DoxPreviewExt.Configuration.</text>
<text text-anchor="start" x="372" y="-117" font-family="Helvetica,sans-Serif" font-size="10.00">DoxConfigUserControl.DoxConfigUser</text>
<text text-anchor="middle" x="453.5" y="-106" font-family="Helvetica,sans-Serif" font-size="10.00">Control_Load</text>
</a>
</g>
</g>
<!-- Node22&#45;&gt;Node23 -->
<g id="edge2" class="edge"><title>Node22&#45;&gt;Node23</title>
<path fill="none" stroke="midnightblue" d="M338.237,-133.456C346.665,-132.426 355.255,-131.377 363.749,-130.34"/>
<polygon fill="midnightblue" stroke="midnightblue" points="337.555,-130.013 328.054,-134.7 338.404,-136.961 337.555,-130.013"/>
</g>
<!-- Node24 -->
<g id="node4" class="node"><title>Node24</title>
<g id="a_node4"><a xlink:href="class_dox_preview_ext_1_1_dox_util_1_1_c_options.html#a40557ffccb8874f15c58e5f94b63f25f" target="_top" xlink:title="finds dot.exe ">
<polygon fill="white" stroke="black" points="372,-159.5 372,-189.5 535,-189.5 535,-159.5 372,-159.5"/>
<text text-anchor="start" x="380" y="-177.5" font-family="Helvetica,sans-Serif" font-size="10.00">DoxPreviewExt.DoxUtil.COptions.</text>
<text text-anchor="middle" x="453.5" y="-166.5" font-family="Helvetica,sans-Serif" font-size="10.00">FindDotExe</text>
</a>
</g>
</g>
<!-- Node22&#45;&gt;Node24 -->
<g id="edge3" class="edge"><title>Node22&#45;&gt;Node24</title>
<path fill="none" stroke="midnightblue" d="M338.179,-156.465C349.31,-158.221 360.723,-160.021 371.827,-161.773"/>
<polygon fill="midnightblue" stroke="midnightblue" points="338.477,-152.968 328.054,-154.867 337.386,-159.883 338.477,-152.968"/>
</g>
<!-- Node25&#45;&gt;Node23 -->
<g id="edge5" class="edge"><title>Node25&#45;&gt;Node23</title>
<path fill="none" stroke="midnightblue" d="M314.38,-173.95C319.023,-172.199 323.611,-170.375 328,-168.5 344.637,-161.393 347.381,-156.649 364,-149.5 371.601,-146.231 379.685,-143.073 387.759,-140.113"/>
<polygon fill="midnightblue" stroke="midnightblue" points="313.016,-170.722 304.818,-177.434 315.412,-177.299 313.016,-170.722"/>
</g>
<!-- Node26 -->
<g id="node6" class="node"><title>Node26</title>
<g id="a_node6"><a xlink:href="class_dox_preview_ext_1_1_dox_util_1_1_c_options.html#a58c8764b3b8e65aa40e59faccf8fd7ea" target="_top" xlink:title="finds mimetex.exe ">
<polygon fill="white" stroke="black" points="372,-208.5 372,-238.5 535,-238.5 535,-208.5 372,-208.5"/>
<text text-anchor="start" x="380" y="-226.5" font-family="Helvetica,sans-Serif" font-size="10.00">DoxPreviewExt.DoxUtil.COptions.</text>
<text text-anchor="middle" x="453.5" y="-215.5" font-family="Helvetica,sans-Serif" font-size="10.00">FindMimeTeXExe</text>
</a>
</g>
</g>
<!-- Node25&#45;&gt;Node26 -->
<g id="edge6" class="edge"><title>Node25&#45;&gt;Node26</title>
<path fill="none" stroke="midnightblue" d="M338.179,-205.465C349.31,-207.221 360.723,-209.021 371.827,-210.773"/>
<polygon fill="midnightblue" stroke="midnightblue" points="338.477,-201.968 328.054,-203.867 337.386,-208.883 338.477,-201.968"/>
</g>
<!-- Node27&#45;&gt;Node23 -->
<g id="edge8" class="edge"><title>Node27&#45;&gt;Node23</title>
<path fill="none" stroke="midnightblue" d="M338.237,-104.963C346.665,-106.035 355.255,-107.128 363.749,-108.209"/>
<polygon fill="midnightblue" stroke="midnightblue" points="338.415,-101.457 328.054,-103.667 337.532,-108.401 338.415,-101.457"/>
</g>
<!-- Node28 -->
<g id="node8" class="node"><title>Node28</title>
<g id="a_node8"><a xlink:href="class_dox_preview_ext_1_1_dox_util_1_1_c_options.html#afa156c1305d1b2c0fc4e47e4695fe0b7" target="_top" xlink:title="finds mscgen.exe ">
<polygon fill="white" stroke="black" points="372,-49.5 372,-79.5 535,-79.5 535,-49.5 372,-49.5"/>
<text text-anchor="start" x="380" y="-67.5" font-family="Helvetica,sans-Serif" font-size="10.00">DoxPreviewExt.DoxUtil.COptions.</text>
<text text-anchor="middle" x="453.5" y="-56.5" font-family="Helvetica,sans-Serif" font-size="10.00">FindMscGenExe</text>
</a>
</g>
</g>
<!-- Node27&#45;&gt;Node28 -->
<g id="edge9" class="edge"><title>Node27&#45;&gt;Node28</title>
<path fill="none" stroke="midnightblue" d="M338.179,-81.9536C349.31,-80.2542 360.723,-78.5117 371.827,-76.8165"/>
<polygon fill="midnightblue" stroke="midnightblue" points="337.411,-78.5302 328.054,-83.4995 338.467,-85.4501 337.411,-78.5302"/>
</g>
<!-- Node29&#45;&gt;Node23 -->
<g id="edge11" class="edge"><title>Node29&#45;&gt;Node23</title>
<path fill="none" stroke="midnightblue" d="M314.38,-64.0497C319.023,-65.8009 323.611,-67.6254 328,-69.5 344.637,-76.6066 347.417,-81.2674 364,-88.5 372.357,-92.1447 381.292,-95.6782 390.153,-98.9748"/>
<polygon fill="midnightblue" stroke="midnightblue" points="315.412,-60.7007 304.818,-60.5658 313.016,-67.2778 315.412,-60.7007"/>
</g>
<!-- Node30 -->
<g id="node10" class="node"><title>Node30</title>
<g id="a_node10"><a xlink:href="class_dox_preview_ext_1_1_dox_util_1_1_c_options.html#a98919fe74033a74fa46d5b6a9f08b4ca" target="_top" xlink:title="finds plantuml.jar ">
<polygon fill="white" stroke="black" points="372,-0.5 372,-30.5 535,-30.5 535,-0.5 372,-0.5"/>
<text text-anchor="start" x="380" y="-18.5" font-family="Helvetica,sans-Serif" font-size="10.00">DoxPreviewExt.DoxUtil.COptions.</text>
<text text-anchor="middle" x="453.5" y="-7.5" font-family="Helvetica,sans-Serif" font-size="10.00">FindPlantUmlJar</text>
</a>
</g>
</g>
<!-- Node29&#45;&gt;Node30 -->
<g id="edge12" class="edge"><title>Node29&#45;&gt;Node30</title>
<path fill="none" stroke="midnightblue" d="M338.179,-32.9536C349.31,-31.2542 360.723,-29.5117 371.827,-27.8165"/>
<polygon fill="midnightblue" stroke="midnightblue" points="337.411,-29.5302 328.054,-34.4995 338.467,-36.4501 337.411,-29.5302"/>
</g>
</g>
</svg>
