<?xml version="1.0" encoding="UTF-8" standalone="no"?>
<!DOCTYPE svg PUBLIC "-//W3C//DTD SVG 1.1//EN"
 "http://www.w3.org/Graphics/SVG/1.1/DTD/svg11.dtd">
<!-- Generated by graphviz version 2.38.0 (20140413.2041)
 -->
<!-- Title: DoxPreviewExt.DoxUtil.CmdQuickInfoController Pages: 1 -->
<svg width="300pt" height="354pt"
 viewBox="0.00 0.00 299.50 354.00" xmlns="http://www.w3.org/2000/svg" xmlns:xlink="http://www.w3.org/1999/xlink">
<g id="graph0" class="graph" transform="scale(1 1) rotate(0) translate(4 350)">
<title>DoxPreviewExt.DoxUtil.CmdQuickInfoController</title>
<polygon fill="white" stroke="none" points="-4,4 -4,-350 295.5,-350 295.5,4 -4,4"/>
<!-- Node2 -->
<g id="node1" class="node"><title>Node2</title>
<polygon fill="#bfbfbf" stroke="black" points="31.5,-0.5 31.5,-134.5 171.5,-134.5 171.5,-0.5 31.5,-0.5"/>
<text text-anchor="start" x="39.5" y="-122.5" font-family="Helvetica,sans-Serif" font-size="10.00">DoxPreviewExt.DoxUtil.Cmd</text>
<text text-anchor="middle" x="101.5" y="-111.5" font-family="Helvetica,sans-Serif" font-size="10.00">QuickInfoController</text>
<polyline fill="none" stroke="black" points="31.5,-104.5 171.5,-104.5 "/>
<text text-anchor="start" x="39.5" y="-92.5" font-family="Helvetica,sans-Serif" font-size="10.00">&#45; m_textView</text>
<text text-anchor="start" x="39.5" y="-81.5" font-family="Helvetica,sans-Serif" font-size="10.00">&#45; m_subjectBuffers</text>
<text text-anchor="start" x="39.5" y="-70.5" font-family="Helvetica,sans-Serif" font-size="10.00">&#45; m_session</text>
<polyline fill="none" stroke="black" points="31.5,-63.5 171.5,-63.5 "/>
<text text-anchor="start" x="39.5" y="-51.5" font-family="Helvetica,sans-Serif" font-size="10.00">+ Detach()</text>
<text text-anchor="start" x="39.5" y="-40.5" font-family="Helvetica,sans-Serif" font-size="10.00">+ ConnectSubjectBuffer()</text>
<text text-anchor="start" x="39.5" y="-29.5" font-family="Helvetica,sans-Serif" font-size="10.00">+ DisconnectSubjectBuffer()</text>
<text text-anchor="start" x="39.5" y="-18.5" font-family="Helvetica,sans-Serif" font-size="10.00">~ CmdQuickInfoController()</text>
<text text-anchor="start" x="39.5" y="-7.5" font-family="Helvetica,sans-Serif" font-size="10.00">&#45; OnTextViewMouseHover()</text>
</g>
<!-- Node3 -->
<g id="node2" class="node"><title>Node3</title>
<polygon fill="white" stroke="#bfbfbf" points="0,-188 0,-245 109,-245 109,-188 0,-188"/>
<text text-anchor="middle" x="54.5" y="-233" font-family="Helvetica,sans-Serif" font-size="10.00">IIntellisenseController</text>
<polyline fill="none" stroke="#bfbfbf" points="0,-226 109,-226 "/>
<text text-anchor="middle" x="54.5" y="-214" font-family="Helvetica,sans-Serif" font-size="10.00"> </text>
<polyline fill="none" stroke="#bfbfbf" points="0,-207 109,-207 "/>
<text text-anchor="middle" x="54.5" y="-195" font-family="Helvetica,sans-Serif" font-size="10.00"> </text>
</g>
<!-- Node3&#45;&gt;Node2 -->
<g id="edge1" class="edge"><title>Node3&#45;&gt;Node2</title>
<path fill="none" stroke="midnightblue" d="M66.4292,-178.189C70.6553,-164.972 75.5466,-149.673 80.3101,-134.775"/>
<polygon fill="none" stroke="midnightblue" points="63.0521,-177.26 63.3403,-187.85 69.7196,-179.391 63.0521,-177.26"/>
</g>
<!-- Node4 -->
<g id="node3" class="node"><title>Node4</title>
<g id="a_node3"><a xlink:href="class_dox_preview_ext_1_1_dox_util_1_1_cmd_quick_info_controller_provider.html" target="_top" xlink:title="The provider of the QuickInfo controller serves primarily to export itself as a MEF component part an...">
<polygon fill="white" stroke="black" points="127.5,-182.5 127.5,-250.5 291.5,-250.5 291.5,-182.5 127.5,-182.5"/>
<text text-anchor="start" x="135.5" y="-238.5" font-family="Helvetica,sans-Serif" font-size="10.00">DoxPreviewExt.DoxUtil.Cmd</text>
<text text-anchor="middle" x="209.5" y="-227.5" font-family="Helvetica,sans-Serif" font-size="10.00">QuickInfoControllerProvider</text>
<polyline fill="none" stroke="black" points="127.5,-220.5 291.5,-220.5 "/>
<text text-anchor="start" x="135.5" y="-208.5" font-family="Helvetica,sans-Serif" font-size="10.00">+ QuickInfoBroker</text>
<polyline fill="none" stroke="black" points="127.5,-201.5 291.5,-201.5 "/>
<text text-anchor="start" x="135.5" y="-189.5" font-family="Helvetica,sans-Serif" font-size="10.00">+ TryCreateIntellisenseController()</text>
</a>
</g>
</g>
<!-- Node4&#45;&gt;Node2 -->
<g id="edge2" class="edge"><title>Node4&#45;&gt;Node2</title>
<path fill="none" stroke="#404040" d="M184.993,-182.143C176.761,-170.938 167.209,-157.937 157.569,-144.816"/>
<polygon fill="none" stroke="#404040" points="157.305,-144.457 150.529,-141.99 150.2,-134.787 156.976,-137.254 157.305,-144.457"/>
<text text-anchor="middle" x="197" y="-156" font-family="Helvetica,sans-Serif" font-size="10.00"> &#45;m_provider</text>
</g>
<!-- Node5 -->
<g id="node4" class="node"><title>Node5</title>
<polygon fill="white" stroke="#bfbfbf" points="138,-288.5 138,-345.5 281,-345.5 281,-288.5 138,-288.5"/>
<text text-anchor="middle" x="209.5" y="-333.5" font-family="Helvetica,sans-Serif" font-size="10.00">IIntellisenseControllerProvider</text>
<polyline fill="none" stroke="#bfbfbf" points="138,-326.5 281,-326.5 "/>
<text text-anchor="middle" x="209.5" y="-314.5" font-family="Helvetica,sans-Serif" font-size="10.00"> </text>
<polyline fill="none" stroke="#bfbfbf" points="138,-307.5 281,-307.5 "/>
<text text-anchor="middle" x="209.5" y="-295.5" font-family="Helvetica,sans-Serif" font-size="10.00"> </text>
</g>
<!-- Node5&#45;&gt;Node4 -->
<g id="edge3" class="edge"><title>Node5&#45;&gt;Node4</title>
<path fill="none" stroke="midnightblue" d="M209.5,-278.007C209.5,-268.962 209.5,-259.383 209.5,-250.578"/>
<polygon fill="none" stroke="midnightblue" points="206,-278.3 209.5,-288.3 213,-278.3 206,-278.3"/>
</g>
</g>
</svg>
