<?xml version="1.0" encoding="UTF-8" standalone="no"?>
<!DOCTYPE svg PUBLIC "-//W3C//DTD SVG 1.1//EN"
 "http://www.w3.org/Graphics/SVG/1.1/DTD/svg11.dtd">
<!-- Generated by graphviz version 2.38.0 (20140413.2041)
 -->
<!-- Title: DoxPreviewExt.DoxUtil.CmdQuickInfoSource.AugmentQuickInfoSession Pages: 1 -->
<svg width="363pt" height="50pt"
 viewBox="0.00 0.00 363.00 50.00" xmlns="http://www.w3.org/2000/svg" xmlns:xlink="http://www.w3.org/1999/xlink">
<g id="graph0" class="graph" transform="scale(1 1) rotate(0) translate(4 46)">
<title>DoxPreviewExt.DoxUtil.CmdQuickInfoSource.AugmentQuickInfoSession</title>
<polygon fill="white" stroke="none" points="-4,4 -4,-46 359,-46 359,4 -4,4"/>
<!-- Node7 -->
<g id="node1" class="node"><title>Node7</title>
<polygon fill="#bfbfbf" stroke="black" points="0,-0.5 0,-41.5 170,-41.5 170,-0.5 0,-0.5"/>
<text text-anchor="start" x="8" y="-29.5" font-family="Helvetica,sans-Serif" font-size="10.00">DoxPreviewExt.DoxUtil.Cmd</text>
<text text-anchor="start" x="8" y="-18.5" font-family="Helvetica,sans-Serif" font-size="10.00">QuickInfoSource.AugmentQuickInfo</text>
<text text-anchor="middle" x="85" y="-7.5" font-family="Helvetica,sans-Serif" font-size="10.00">Session</text>
</g>
<!-- Node8 -->
<g id="node2" class="node"><title>Node8</title>
<g id="a_node2"><a xlink:href="class_dox_preview_ext_1_1_dox_util_1_1_dox_token_tagger_helper.html#a26867a899fb4fccec19ff63df38df860" target="_top" xlink:title="find tag at position ">
<polygon fill="white" stroke="black" points="206,-6 206,-36 355,-36 355,-6 206,-6"/>
<text text-anchor="start" x="214" y="-24" font-family="Helvetica,sans-Serif" font-size="10.00">DoxPreviewExt.DoxUtil.Dox</text>
<text text-anchor="middle" x="280.5" y="-13" font-family="Helvetica,sans-Serif" font-size="10.00">TokenTaggerHelper.TagHitTest</text>
</a>
</g>
</g>
<!-- Node7&#45;&gt;Node8 -->
<g id="edge1" class="edge"><title>Node7&#45;&gt;Node8</title>
<path fill="none" stroke="midnightblue" d="M170.028,-21C178.511,-21 187.128,-21 195.61,-21"/>
<polygon fill="midnightblue" stroke="midnightblue" points="195.872,-24.5001 205.872,-21 195.872,-17.5001 195.872,-24.5001"/>
</g>
</g>
</svg>
