<?xml version="1.0" encoding="UTF-8" standalone="no"?>
<!DOCTYPE svg PUBLIC "-//W3C//DTD SVG 1.1//EN"
 "http://www.w3.org/Graphics/SVG/1.1/DTD/svg11.dtd">
<!-- Generated by graphviz version 2.38.0 (20140413.2041)
 -->
<!-- Title: DoxPreviewExt.DoxUtil.CmdClassifications.MscContentFormatDefinition Pages: 1 -->
<svg width="174pt" height="182pt"
 viewBox="0.00 0.00 174.00 182.00" xmlns="http://www.w3.org/2000/svg" xmlns:xlink="http://www.w3.org/1999/xlink">
<g id="graph0" class="graph" transform="scale(1 1) rotate(0) translate(4 178)">
<title>DoxPreviewExt.DoxUtil.CmdClassifications.MscContentFormatDefinition</title>
<polygon fill="white" stroke="none" points="-4,4 -4,-178 170,-178 170,4 -4,4"/>
<!-- Node0 -->
<g id="node1" class="node"><title>Node0</title>
<polygon fill="#bfbfbf" stroke="black" points="0,-0.5 0,-79.5 166,-79.5 166,-0.5 0,-0.5"/>
<text text-anchor="start" x="8" y="-67.5" font-family="Helvetica,sans-Serif" font-size="10.00">DoxPreviewExt.DoxUtil.Cmd</text>
<text text-anchor="start" x="8" y="-56.5" font-family="Helvetica,sans-Serif" font-size="10.00">Classifications.MscContentFormat</text>
<text text-anchor="middle" x="83" y="-45.5" font-family="Helvetica,sans-Serif" font-size="10.00">Definition</text>
<polyline fill="none" stroke="black" points="0,-38.5 166,-38.5 "/>
<text text-anchor="middle" x="83" y="-26.5" font-family="Helvetica,sans-Serif" font-size="10.00"> </text>
<polyline fill="none" stroke="black" points="0,-19.5 166,-19.5 "/>
<text text-anchor="start" x="8" y="-7.5" font-family="Helvetica,sans-Serif" font-size="10.00">+ MscContentFormatDefinition()</text>
</g>
<!-- Node1 -->
<g id="node2" class="node"><title>Node1</title>
<polygon fill="white" stroke="#bfbfbf" points="10.5,-116.5 10.5,-173.5 155.5,-173.5 155.5,-116.5 10.5,-116.5"/>
<text text-anchor="middle" x="83" y="-161.5" font-family="Helvetica,sans-Serif" font-size="10.00">ClassificationFormatDefinition</text>
<polyline fill="none" stroke="#bfbfbf" points="10.5,-154.5 155.5,-154.5 "/>
<text text-anchor="middle" x="83" y="-142.5" font-family="Helvetica,sans-Serif" font-size="10.00"> </text>
<polyline fill="none" stroke="#bfbfbf" points="10.5,-135.5 155.5,-135.5 "/>
<text text-anchor="middle" x="83" y="-123.5" font-family="Helvetica,sans-Serif" font-size="10.00"> </text>
</g>
<!-- Node1&#45;&gt;Node0 -->
<g id="edge1" class="edge"><title>Node1&#45;&gt;Node0</title>
<path fill="none" stroke="midnightblue" d="M83,-106.156C83,-97.4733 83,-88.2318 83,-79.5205"/>
<polygon fill="none" stroke="midnightblue" points="79.5001,-106.398 83,-116.398 86.5001,-106.398 79.5001,-106.398"/>
</g>
</g>
</svg>
