<?xml version="1.0" encoding="UTF-8" standalone="no"?>
<!DOCTYPE svg PUBLIC "-//W3C//DTD SVG 1.1//EN"
 "http://www.w3.org/Graphics/SVG/1.1/DTD/svg11.dtd">
<!-- Generated by graphviz version 2.38.0 (20140413.2041)
 -->
<!-- Title: DoxPreviewExt.DoxUtil.CPlantUMLImage Pages: 1 -->
<svg width="157pt" height="485pt"
 viewBox="0.00 0.00 157.00 485.00" xmlns="http://www.w3.org/2000/svg" xmlns:xlink="http://www.w3.org/1999/xlink">
<g id="graph0" class="graph" transform="scale(1 1) rotate(0) translate(4 481)">
<title>DoxPreviewExt.DoxUtil.CPlantUMLImage</title>
<polygon fill="white" stroke="none" points="-4,4 -4,-481 153,-481 153,4 -4,4"/>
<!-- Node0 -->
<g id="node1" class="node"><title>Node0</title>
<polygon fill="#bfbfbf" stroke="black" points="0,-0.5 0,-189.5 149,-189.5 149,-0.5 0,-0.5"/>
<text text-anchor="start" x="8" y="-177.5" font-family="Helvetica,sans-Serif" font-size="10.00">DoxPreviewExt.DoxUtil.CPlant</text>
<text text-anchor="middle" x="74.5" y="-166.5" font-family="Helvetica,sans-Serif" font-size="10.00">UMLImage</text>
<polyline fill="none" stroke="black" points="0,-159.5 149,-159.5 "/>
<text text-anchor="start" x="8" y="-147.5" font-family="Helvetica,sans-Serif" font-size="10.00">&#45; tempSourcePath_</text>
<text text-anchor="start" x="8" y="-136.5" font-family="Helvetica,sans-Serif" font-size="10.00">&#45; tempSourceFileName_</text>
<text text-anchor="start" x="8" y="-125.5" font-family="Helvetica,sans-Serif" font-size="10.00">&#45; tempSourceFilePath_</text>
<text text-anchor="start" x="8" y="-114.5" font-family="Helvetica,sans-Serif" font-size="10.00">&#45; previewCachePath_</text>
<text text-anchor="start" x="8" y="-103.5" font-family="Helvetica,sans-Serif" font-size="10.00">&#45; previewFileExt_</text>
<text text-anchor="start" x="8" y="-92.5" font-family="Helvetica,sans-Serif" font-size="10.00">&#45; previewFileName_</text>
<text text-anchor="start" x="8" y="-81.5" font-family="Helvetica,sans-Serif" font-size="10.00">&#45; previewFilePath_</text>
<text text-anchor="start" x="8" y="-70.5" font-family="Helvetica,sans-Serif" font-size="10.00">&#45; imgGenProcess_</text>
<polyline fill="none" stroke="black" points="0,-63.5 149,-63.5 "/>
<text text-anchor="start" x="8" y="-51.5" font-family="Helvetica,sans-Serif" font-size="10.00">+ CPlantUMLImage()</text>
<text text-anchor="start" x="8" y="-40.5" font-family="Helvetica,sans-Serif" font-size="10.00">+ GetImageFile()</text>
<text text-anchor="start" x="8" y="-29.5" font-family="Helvetica,sans-Serif" font-size="10.00">+ GetValidImage()</text>
<text text-anchor="start" x="8" y="-18.5" font-family="Helvetica,sans-Serif" font-size="10.00"># Validate()</text>
<text text-anchor="start" x="8" y="-7.5" font-family="Helvetica,sans-Serif" font-size="10.00">&#45; Convert()</text>
</g>
<!-- Node1 -->
<g id="node2" class="node"><title>Node1</title>
<g id="a_node2"><a xlink:href="class_dox_preview_ext_1_1_dox_util_1_1_c_preview_image_base.html" target="_top" xlink:title="{CPreviewImageBase\n|+ Collection\l+ Options\l+ TempName\l# state_\l|+ GetImageFile()\l+ GetValidImage()\l+ CPreviewImageBase()\l+ GetImage()\l# Validate()\l# TempFilePath()\l}">
<polygon fill="white" stroke="black" points="14.5,-226.5 14.5,-371.5 134.5,-371.5 134.5,-226.5 14.5,-226.5"/>
<text text-anchor="middle" x="74.5" y="-359.5" font-family="Helvetica,sans-Serif" font-size="10.00">CPreviewImageBase</text>
<polyline fill="none" stroke="black" points="14.5,-352.5 134.5,-352.5 "/>
<text text-anchor="start" x="22.5" y="-340.5" font-family="Helvetica,sans-Serif" font-size="10.00">+ Collection</text>
<text text-anchor="start" x="22.5" y="-329.5" font-family="Helvetica,sans-Serif" font-size="10.00">+ Options</text>
<text text-anchor="start" x="22.5" y="-318.5" font-family="Helvetica,sans-Serif" font-size="10.00">+ TempName</text>
<text text-anchor="start" x="22.5" y="-307.5" font-family="Helvetica,sans-Serif" font-size="10.00"># state_</text>
<polyline fill="none" stroke="black" points="14.5,-300.5 134.5,-300.5 "/>
<text text-anchor="start" x="22.5" y="-288.5" font-family="Helvetica,sans-Serif" font-size="10.00">+ GetImageFile()</text>
<text text-anchor="start" x="22.5" y="-277.5" font-family="Helvetica,sans-Serif" font-size="10.00">+ GetValidImage()</text>
<text text-anchor="start" x="22.5" y="-266.5" font-family="Helvetica,sans-Serif" font-size="10.00">+ CPreviewImageBase()</text>
<text text-anchor="start" x="22.5" y="-255.5" font-family="Helvetica,sans-Serif" font-size="10.00">+ GetImage()</text>
<text text-anchor="start" x="22.5" y="-244.5" font-family="Helvetica,sans-Serif" font-size="10.00"># Validate()</text>
<text text-anchor="start" x="22.5" y="-233.5" font-family="Helvetica,sans-Serif" font-size="10.00"># TempFilePath()</text>
</a>
</g>
</g>
<!-- Node1&#45;&gt;Node0 -->
<g id="edge1" class="edge"><title>Node1&#45;&gt;Node0</title>
<path fill="none" stroke="midnightblue" d="M74.5,-216.317C74.5,-207.552 74.5,-198.584 74.5,-189.693"/>
<polygon fill="none" stroke="midnightblue" points="71.0001,-216.498 74.5,-226.498 78.0001,-216.498 71.0001,-216.498"/>
</g>
<!-- Node2 -->
<g id="node3" class="node"><title>Node2</title>
<g id="a_node3"><a xlink:href="interface_dox_preview_ext_1_1_dox_util_1_1_i_preview_image.html" target="_top" xlink:title="{IPreviewImage\n||+ GetImageFile()\l+ GetImage()\l}">
<polygon fill="white" stroke="black" points="30,-408.5 30,-476.5 119,-476.5 119,-408.5 30,-408.5"/>
<text text-anchor="middle" x="74.5" y="-464.5" font-family="Helvetica,sans-Serif" font-size="10.00">IPreviewImage</text>
<polyline fill="none" stroke="black" points="30,-457.5 119,-457.5 "/>
<text text-anchor="middle" x="74.5" y="-445.5" font-family="Helvetica,sans-Serif" font-size="10.00"> </text>
<polyline fill="none" stroke="black" points="30,-438.5 119,-438.5 "/>
<text text-anchor="start" x="38" y="-426.5" font-family="Helvetica,sans-Serif" font-size="10.00">+ GetImageFile()</text>
<text text-anchor="start" x="38" y="-415.5" font-family="Helvetica,sans-Serif" font-size="10.00">+ GetImage()</text>
</a>
</g>
</g>
<!-- Node2&#45;&gt;Node1 -->
<g id="edge2" class="edge"><title>Node2&#45;&gt;Node1</title>
<path fill="none" stroke="midnightblue" d="M74.5,-398.093C74.5,-389.727 74.5,-380.757 74.5,-371.766"/>
<polygon fill="none" stroke="midnightblue" points="71.0001,-398.325 74.5,-408.325 78.0001,-398.325 71.0001,-398.325"/>
</g>
</g>
</svg>
