<?xml version="1.0" encoding="UTF-8" standalone="no"?>
<!DOCTYPE svg PUBLIC "-//W3C//DTD SVG 1.1//EN"
 "http://www.w3.org/Graphics/SVG/1.1/DTD/svg11.dtd">
<!-- Generated by graphviz version 2.38.0 (20140413.2041)
 -->
<!-- Title: DoxPreviewExt.Configuration.DoxConfigUserControl Pages: 1 -->
<svg width="397pt" height="728pt"
 viewBox="0.00 0.00 397.00 728.00" xmlns="http://www.w3.org/2000/svg" xmlns:xlink="http://www.w3.org/1999/xlink">
<g id="graph0" class="graph" transform="scale(1 1) rotate(0) translate(4 724)">
<title>DoxPreviewExt.Configuration.DoxConfigUserControl</title>
<polygon fill="white" stroke="none" points="-4,4 -4,-724 393,-724 393,4 -4,4"/>
<!-- Node2 -->
<g id="node1" class="node"><title>Node2</title>
<polygon fill="#bfbfbf" stroke="black" points="92,-0.5 92,-266.5 242,-266.5 242,-0.5 92,-0.5"/>
<text text-anchor="start" x="100" y="-254.5" font-family="Helvetica,sans-Serif" font-size="10.00">DoxPreviewExt.Configuration.</text>
<text text-anchor="middle" x="167" y="-243.5" font-family="Helvetica,sans-Serif" font-size="10.00">DoxConfigUserControl</text>
<polyline fill="none" stroke="black" points="92,-236.5 242,-236.5 "/>
<text text-anchor="start" x="100" y="-224.5" font-family="Helvetica,sans-Serif" font-size="10.00">&#45; components</text>
<text text-anchor="start" x="100" y="-213.5" font-family="Helvetica,sans-Serif" font-size="10.00">&#45; checkBoxDoxSource</text>
<text text-anchor="start" x="100" y="-202.5" font-family="Helvetica,sans-Serif" font-size="10.00">&#45; labelDoxMscGenExe</text>
<text text-anchor="start" x="100" y="-191.5" font-family="Helvetica,sans-Serif" font-size="10.00">&#45; labelDoxPlantUmlJar</text>
<polyline fill="none" stroke="black" points="92,-184.5 242,-184.5 "/>
<text text-anchor="start" x="100" y="-172.5" font-family="Helvetica,sans-Serif" font-size="10.00">+ DoxConfigUserControl()</text>
<text text-anchor="start" x="100" y="-161.5" font-family="Helvetica,sans-Serif" font-size="10.00">+ Initialize()</text>
<text text-anchor="start" x="100" y="-150.5" font-family="Helvetica,sans-Serif" font-size="10.00"># Dispose()</text>
<text text-anchor="start" x="100" y="-139.5" font-family="Helvetica,sans-Serif" font-size="10.00">&#45; DoxConfigUserControl_Load()</text>
<text text-anchor="start" x="100" y="-128.5" font-family="Helvetica,sans-Serif" font-size="10.00">&#45; checkBoxDoxSource_Click()</text>
<text text-anchor="start" x="100" y="-117.5" font-family="Helvetica,sans-Serif" font-size="10.00">&#45; checkBoxConfigFile</text>
<text text-anchor="start" x="100" y="-106.5" font-family="Helvetica,sans-Serif" font-size="10.00">_Click()</text>
<text text-anchor="start" x="100" y="-95.5" font-family="Helvetica,sans-Serif" font-size="10.00">&#45; textBoxDoxDotExe_Leave()</text>
<text text-anchor="start" x="100" y="-84.5" font-family="Helvetica,sans-Serif" font-size="10.00">&#45; textBoxDoxMscGenExe</text>
<text text-anchor="start" x="100" y="-73.5" font-family="Helvetica,sans-Serif" font-size="10.00">_Leave()</text>
<text text-anchor="start" x="100" y="-62.5" font-family="Helvetica,sans-Serif" font-size="10.00">&#45; textBoxDoxPlantUmlJar</text>
<text text-anchor="start" x="100" y="-51.5" font-family="Helvetica,sans-Serif" font-size="10.00">_Leave()</text>
<text text-anchor="start" x="100" y="-40.5" font-family="Helvetica,sans-Serif" font-size="10.00">&#45; textBoxDoxMimeTexExe</text>
<text text-anchor="start" x="100" y="-29.5" font-family="Helvetica,sans-Serif" font-size="10.00">_Leave()</text>
<text text-anchor="start" x="100" y="-18.5" font-family="Helvetica,sans-Serif" font-size="10.00">&#45; buttonUpdateCache_Click()</text>
<text text-anchor="start" x="100" y="-7.5" font-family="Helvetica,sans-Serif" font-size="10.00">&#45; InitializeComponent()</text>
</g>
<!-- Node3 -->
<g id="node2" class="node"><title>Node3</title>
<polygon fill="white" stroke="#bfbfbf" points="0,-496 0,-553 68,-553 68,-496 0,-496"/>
<text text-anchor="middle" x="34" y="-541" font-family="Helvetica,sans-Serif" font-size="10.00">UserControl</text>
<polyline fill="none" stroke="#bfbfbf" points="0,-534 68,-534 "/>
<text text-anchor="middle" x="34" y="-522" font-family="Helvetica,sans-Serif" font-size="10.00"> </text>
<polyline fill="none" stroke="#bfbfbf" points="0,-515 68,-515 "/>
<text text-anchor="middle" x="34" y="-503" font-family="Helvetica,sans-Serif" font-size="10.00"> </text>
</g>
<!-- Node3&#45;&gt;Node2 -->
<g id="edge1" class="edge"><title>Node3&#45;&gt;Node2</title>
<path fill="none" stroke="midnightblue" d="M46.8007,-486.06C63.9831,-435.805 95.4021,-343.91 121.809,-266.676"/>
<polygon fill="none" stroke="midnightblue" points="43.3819,-485.241 43.4584,-495.836 50.0054,-487.506 43.3819,-485.241"/>
</g>
<!-- Node4 -->
<g id="node3" class="node"><title>Node4</title>
<g id="a_node3"><a xlink:href="class_dox_preview_ext_1_1_configuration_1_1_option_page_doxygen_configuration.html" target="_top" xlink:title="{DoxPreviewExt.Configuration.\lOptionPageDoxygenConfiguration\n|+ UseSourceBrowser\l+ UseConfigFile\l+ DotExe\l+ MscGenExe\l+ PlantUmlJar\l+ MimeTeXExe\l+ Window\l&#45; _useSourceBrowser\l&#45; _useConfigFile\l&#45; _dotExe\l&#45; _mscgenExe\l&#45; _plantumlJar\l&#45; _mimeTeXExe\l|}">
<polygon fill="white" stroke="black" points="86,-424.5 86,-624.5 248,-624.5 248,-424.5 86,-424.5"/>
<text text-anchor="start" x="94" y="-612.5" font-family="Helvetica,sans-Serif" font-size="10.00">DoxPreviewExt.Configuration.</text>
<text text-anchor="middle" x="167" y="-601.5" font-family="Helvetica,sans-Serif" font-size="10.00">OptionPageDoxygenConfiguration</text>
<polyline fill="none" stroke="black" points="86,-594.5 248,-594.5 "/>
<text text-anchor="start" x="94" y="-582.5" font-family="Helvetica,sans-Serif" font-size="10.00">+ UseSourceBrowser</text>
<text text-anchor="start" x="94" y="-571.5" font-family="Helvetica,sans-Serif" font-size="10.00">+ UseConfigFile</text>
<text text-anchor="start" x="94" y="-560.5" font-family="Helvetica,sans-Serif" font-size="10.00">+ DotExe</text>
<text text-anchor="start" x="94" y="-549.5" font-family="Helvetica,sans-Serif" font-size="10.00">+ MscGenExe</text>
<text text-anchor="start" x="94" y="-538.5" font-family="Helvetica,sans-Serif" font-size="10.00">+ PlantUmlJar</text>
<text text-anchor="start" x="94" y="-527.5" font-family="Helvetica,sans-Serif" font-size="10.00">+ MimeTeXExe</text>
<text text-anchor="start" x="94" y="-516.5" font-family="Helvetica,sans-Serif" font-size="10.00">+ Window</text>
<text text-anchor="start" x="94" y="-505.5" font-family="Helvetica,sans-Serif" font-size="10.00">&#45; _useSourceBrowser</text>
<text text-anchor="start" x="94" y="-494.5" font-family="Helvetica,sans-Serif" font-size="10.00">&#45; _useConfigFile</text>
<text text-anchor="start" x="94" y="-483.5" font-family="Helvetica,sans-Serif" font-size="10.00">&#45; _dotExe</text>
<text text-anchor="start" x="94" y="-472.5" font-family="Helvetica,sans-Serif" font-size="10.00">&#45; _mscgenExe</text>
<text text-anchor="start" x="94" y="-461.5" font-family="Helvetica,sans-Serif" font-size="10.00">&#45; _plantumlJar</text>
<text text-anchor="start" x="94" y="-450.5" font-family="Helvetica,sans-Serif" font-size="10.00">&#45; _mimeTeXExe</text>
<polyline fill="none" stroke="black" points="86,-443.5 248,-443.5 "/>
<text text-anchor="middle" x="167" y="-431.5" font-family="Helvetica,sans-Serif" font-size="10.00"> </text>
</a>
</g>
</g>
<!-- Node4&#45;&gt;Node2 -->
<g id="edge2" class="edge"><title>Node4&#45;&gt;Node2</title>
<path fill="none" stroke="#404040" d="M167,-424.332C167,-380.132 167,-327.205 167,-278.746"/>
<polygon fill="none" stroke="#404040" points="167,-278.53 163,-272.531 167,-266.53 171,-272.53 167,-278.53"/>
<text text-anchor="middle" x="199" y="-343" font-family="Helvetica,sans-Serif" font-size="10.00"> ~optionsPage</text>
</g>
<!-- Node5 -->
<g id="node4" class="node"><title>Node5</title>
<polygon fill="white" stroke="#bfbfbf" points="134,-662.5 134,-719.5 200,-719.5 200,-662.5 134,-662.5"/>
<text text-anchor="middle" x="167" y="-707.5" font-family="Helvetica,sans-Serif" font-size="10.00">DialogPage</text>
<polyline fill="none" stroke="#bfbfbf" points="134,-700.5 200,-700.5 "/>
<text text-anchor="middle" x="167" y="-688.5" font-family="Helvetica,sans-Serif" font-size="10.00"> </text>
<polyline fill="none" stroke="#bfbfbf" points="134,-681.5 200,-681.5 "/>
<text text-anchor="middle" x="167" y="-669.5" font-family="Helvetica,sans-Serif" font-size="10.00"> </text>
</g>
<!-- Node5&#45;&gt;Node4 -->
<g id="edge3" class="edge"><title>Node5&#45;&gt;Node4</title>
<path fill="none" stroke="midnightblue" d="M167,-652.289C167,-643.841 167,-634.496 167,-624.821"/>
<polygon fill="none" stroke="midnightblue" points="163.5,-652.466 167,-662.466 170.5,-652.466 163.5,-652.466"/>
</g>
<!-- Node6 -->
<g id="node5" class="node"><title>Node6</title>
<polygon fill="white" stroke="#bfbfbf" points="266,-496 266,-553 316,-553 316,-496 266,-496"/>
<text text-anchor="middle" x="291" y="-541" font-family="Helvetica,sans-Serif" font-size="10.00">System</text>
<polyline fill="none" stroke="#bfbfbf" points="266,-534 316,-534 "/>
<text text-anchor="middle" x="291" y="-522" font-family="Helvetica,sans-Serif" font-size="10.00"> </text>
<polyline fill="none" stroke="#bfbfbf" points="266,-515 316,-515 "/>
<text text-anchor="middle" x="291" y="-503" font-family="Helvetica,sans-Serif" font-size="10.00"> </text>
</g>
<!-- Node6&#45;&gt;Node2 -->
<g id="edge4" class="edge"><title>Node6&#45;&gt;Node2</title>
<path fill="none" stroke="#404040" d="M286.308,-495.832C278.285,-450.878 260.311,-359.503 235,-285 234.239,-282.76 233.457,-280.509 232.655,-278.248"/>
<polygon fill="none" stroke="#404040" points="232.62,-278.154 226.801,-273.896 228.494,-266.886 234.313,-271.145 232.62,-278.154"/>
<text text-anchor="middle" x="328.5" y="-398" font-family="Helvetica,sans-Serif" font-size="10.00"> &#45;labelDoxMimeTexExe</text>
<text text-anchor="middle" x="328.5" y="-387" font-family="Helvetica,sans-Serif" font-size="10.00">&#45;buttonUpdateCache</text>
<text text-anchor="middle" x="328.5" y="-376" font-family="Helvetica,sans-Serif" font-size="10.00">&#45;textBoxDoxPlantUmlJar</text>
<text text-anchor="middle" x="328.5" y="-365" font-family="Helvetica,sans-Serif" font-size="10.00">&#45;labelDoxDotExe</text>
<text text-anchor="middle" x="328.5" y="-354" font-family="Helvetica,sans-Serif" font-size="10.00">&#45;textBoxDoxConfigFile</text>
<text text-anchor="middle" x="328.5" y="-343" font-family="Helvetica,sans-Serif" font-size="10.00">&#45;textBoxDoxSourceBrowser</text>
<text text-anchor="middle" x="328.5" y="-332" font-family="Helvetica,sans-Serif" font-size="10.00">&#45;textBoxDoxMscGenExe</text>
<text text-anchor="middle" x="328.5" y="-321" font-family="Helvetica,sans-Serif" font-size="10.00">&#45;checkBoxConfigFile</text>
<text text-anchor="middle" x="328.5" y="-310" font-family="Helvetica,sans-Serif" font-size="10.00">&#45;textBoxDoxMimeTexExe</text>
<text text-anchor="middle" x="328.5" y="-299" font-family="Helvetica,sans-Serif" font-size="10.00">&#45;textBoxDoxDotExe</text>
<text text-anchor="middle" x="328.5" y="-288" font-family="Helvetica,sans-Serif" font-size="10.00">...</text>
</g>
</g>
</svg>
