<?xml version="1.0" encoding="UTF-8" standalone="no"?>
<!DOCTYPE svg PUBLIC "-//W3C//DTD SVG 1.1//EN"
 "http://www.w3.org/Graphics/SVG/1.1/DTD/svg11.dtd">
<!-- Generated by graphviz version 2.38.0 (20140413.2041)
 -->
<!-- Title: DoxPreviewExt.DoxUtil.CMscGraphImage Pages: 1 -->
<svg width="153pt" height="496pt"
 viewBox="0.00 0.00 153.00 496.00" xmlns="http://www.w3.org/2000/svg" xmlns:xlink="http://www.w3.org/1999/xlink">
<g id="graph0" class="graph" transform="scale(1 1) rotate(0) translate(4 492)">
<title>DoxPreviewExt.DoxUtil.CMscGraphImage</title>
<polygon fill="white" stroke="none" points="-4,4 -4,-492 149,-492 149,4 -4,4"/>
<!-- Node3 -->
<g id="node1" class="node"><title>Node3</title>
<polygon fill="#bfbfbf" stroke="black" points="0,-0.5 0,-200.5 145,-200.5 145,-0.5 0,-0.5"/>
<text text-anchor="start" x="8" y="-188.5" font-family="Helvetica,sans-Serif" font-size="10.00">DoxPreviewExt.DoxUtil.CMsc</text>
<text text-anchor="middle" x="72.5" y="-177.5" font-family="Helvetica,sans-Serif" font-size="10.00">GraphImage</text>
<polyline fill="none" stroke="black" points="0,-170.5 145,-170.5 "/>
<text text-anchor="start" x="8" y="-158.5" font-family="Helvetica,sans-Serif" font-size="10.00">&#45; sourceIsFile_</text>
<text text-anchor="start" x="8" y="-147.5" font-family="Helvetica,sans-Serif" font-size="10.00">&#45; tempSourcePath_</text>
<text text-anchor="start" x="8" y="-136.5" font-family="Helvetica,sans-Serif" font-size="10.00">&#45; tempSourceFileName_</text>
<text text-anchor="start" x="8" y="-125.5" font-family="Helvetica,sans-Serif" font-size="10.00">&#45; tempSourceFilePath_</text>
<text text-anchor="start" x="8" y="-114.5" font-family="Helvetica,sans-Serif" font-size="10.00">&#45; previewCachePath_</text>
<text text-anchor="start" x="8" y="-103.5" font-family="Helvetica,sans-Serif" font-size="10.00">&#45; previewFileExt_</text>
<text text-anchor="start" x="8" y="-92.5" font-family="Helvetica,sans-Serif" font-size="10.00">&#45; previewFileName_</text>
<text text-anchor="start" x="8" y="-81.5" font-family="Helvetica,sans-Serif" font-size="10.00">&#45; previewFilePath_</text>
<text text-anchor="start" x="8" y="-70.5" font-family="Helvetica,sans-Serif" font-size="10.00">&#45; imgGenProcess_</text>
<polyline fill="none" stroke="black" points="0,-63.5 145,-63.5 "/>
<text text-anchor="start" x="8" y="-51.5" font-family="Helvetica,sans-Serif" font-size="10.00">+ CMscGraphImage()</text>
<text text-anchor="start" x="8" y="-40.5" font-family="Helvetica,sans-Serif" font-size="10.00">+ GetImageFile()</text>
<text text-anchor="start" x="8" y="-29.5" font-family="Helvetica,sans-Serif" font-size="10.00">+ GetValidImage()</text>
<text text-anchor="start" x="8" y="-18.5" font-family="Helvetica,sans-Serif" font-size="10.00"># Validate()</text>
<text text-anchor="start" x="8" y="-7.5" font-family="Helvetica,sans-Serif" font-size="10.00">&#45; Convert()</text>
</g>
<!-- Node4 -->
<g id="node2" class="node"><title>Node4</title>
<g id="a_node2"><a xlink:href="class_dox_preview_ext_1_1_dox_util_1_1_c_preview_image_base.html" target="_top" xlink:title="{CPreviewImageBase\n|+ Collection\l+ Options\l+ TempName\l# state_\l|+ GetImageFile()\l+ GetValidImage()\l+ CPreviewImageBase()\l+ GetImage()\l# Validate()\l# TempFilePath()\l}">
<polygon fill="white" stroke="black" points="12.5,-237.5 12.5,-382.5 132.5,-382.5 132.5,-237.5 12.5,-237.5"/>
<text text-anchor="middle" x="72.5" y="-370.5" font-family="Helvetica,sans-Serif" font-size="10.00">CPreviewImageBase</text>
<polyline fill="none" stroke="black" points="12.5,-363.5 132.5,-363.5 "/>
<text text-anchor="start" x="20.5" y="-351.5" font-family="Helvetica,sans-Serif" font-size="10.00">+ Collection</text>
<text text-anchor="start" x="20.5" y="-340.5" font-family="Helvetica,sans-Serif" font-size="10.00">+ Options</text>
<text text-anchor="start" x="20.5" y="-329.5" font-family="Helvetica,sans-Serif" font-size="10.00">+ TempName</text>
<text text-anchor="start" x="20.5" y="-318.5" font-family="Helvetica,sans-Serif" font-size="10.00"># state_</text>
<polyline fill="none" stroke="black" points="12.5,-311.5 132.5,-311.5 "/>
<text text-anchor="start" x="20.5" y="-299.5" font-family="Helvetica,sans-Serif" font-size="10.00">+ GetImageFile()</text>
<text text-anchor="start" x="20.5" y="-288.5" font-family="Helvetica,sans-Serif" font-size="10.00">+ GetValidImage()</text>
<text text-anchor="start" x="20.5" y="-277.5" font-family="Helvetica,sans-Serif" font-size="10.00">+ CPreviewImageBase()</text>
<text text-anchor="start" x="20.5" y="-266.5" font-family="Helvetica,sans-Serif" font-size="10.00">+ GetImage()</text>
<text text-anchor="start" x="20.5" y="-255.5" font-family="Helvetica,sans-Serif" font-size="10.00"># Validate()</text>
<text text-anchor="start" x="20.5" y="-244.5" font-family="Helvetica,sans-Serif" font-size="10.00"># TempFilePath()</text>
</a>
</g>
</g>
<!-- Node4&#45;&gt;Node3 -->
<g id="edge1" class="edge"><title>Node4&#45;&gt;Node3</title>
<path fill="none" stroke="midnightblue" d="M72.5,-227.186C72.5,-218.473 72.5,-209.544 72.5,-200.659"/>
<polygon fill="none" stroke="midnightblue" points="69.0001,-227.3 72.5,-237.3 76.0001,-227.3 69.0001,-227.3"/>
</g>
<!-- Node5 -->
<g id="node3" class="node"><title>Node5</title>
<g id="a_node3"><a xlink:href="interface_dox_preview_ext_1_1_dox_util_1_1_i_preview_image.html" target="_top" xlink:title="{IPreviewImage\n||+ GetImageFile()\l+ GetImage()\l}">
<polygon fill="white" stroke="black" points="28,-419.5 28,-487.5 117,-487.5 117,-419.5 28,-419.5"/>
<text text-anchor="middle" x="72.5" y="-475.5" font-family="Helvetica,sans-Serif" font-size="10.00">IPreviewImage</text>
<polyline fill="none" stroke="black" points="28,-468.5 117,-468.5 "/>
<text text-anchor="middle" x="72.5" y="-456.5" font-family="Helvetica,sans-Serif" font-size="10.00"> </text>
<polyline fill="none" stroke="black" points="28,-449.5 117,-449.5 "/>
<text text-anchor="start" x="36" y="-437.5" font-family="Helvetica,sans-Serif" font-size="10.00">+ GetImageFile()</text>
<text text-anchor="start" x="36" y="-426.5" font-family="Helvetica,sans-Serif" font-size="10.00">+ GetImage()</text>
</a>
</g>
</g>
<!-- Node5&#45;&gt;Node4 -->
<g id="edge2" class="edge"><title>Node5&#45;&gt;Node4</title>
<path fill="none" stroke="midnightblue" d="M72.5,-409.093C72.5,-400.727 72.5,-391.757 72.5,-382.766"/>
<polygon fill="none" stroke="midnightblue" points="69.0001,-409.325 72.5,-419.325 76.0001,-409.325 69.0001,-409.325"/>
</g>
</g>
</svg>
