<?xml version="1.0" encoding="UTF-8" standalone="no"?>
<!DOCTYPE svg PUBLIC "-//W3C//DTD SVG 1.1//EN"
 "http://www.w3.org/Graphics/SVG/1.1/DTD/svg11.dtd">
<!-- Generated by graphviz version 2.38.0 (20140413.2041)
 -->
<!-- Title: DoxPreviewExt.DoxUtil.CmdQuickInfoSourceProvider Pages: 1 -->
<svg width="153pt" height="204pt"
 viewBox="0.00 0.00 153.00 204.00" xmlns="http://www.w3.org/2000/svg" xmlns:xlink="http://www.w3.org/1999/xlink">
<g id="graph0" class="graph" transform="scale(1 1) rotate(0) translate(4 200)">
<title>DoxPreviewExt.DoxUtil.CmdQuickInfoSourceProvider</title>
<polygon fill="white" stroke="none" points="-4,4 -4,-200 149,-200 149,4 -4,4"/>
<!-- Node0 -->
<g id="node1" class="node"><title>Node0</title>
<polygon fill="#bfbfbf" stroke="black" points="0,-0.5 0,-101.5 145,-101.5 145,-0.5 0,-0.5"/>
<text text-anchor="start" x="8" y="-89.5" font-family="Helvetica,sans-Serif" font-size="10.00">DoxPreviewExt.DoxUtil.Cmd</text>
<text text-anchor="middle" x="72.5" y="-78.5" font-family="Helvetica,sans-Serif" font-size="10.00">QuickInfoSourceProvider</text>
<polyline fill="none" stroke="black" points="0,-71.5 145,-71.5 "/>
<text text-anchor="start" x="8" y="-59.5" font-family="Helvetica,sans-Serif" font-size="10.00">+ NavigatorService</text>
<text text-anchor="start" x="8" y="-48.5" font-family="Helvetica,sans-Serif" font-size="10.00">+ TextBufferFactoryService</text>
<text text-anchor="start" x="8" y="-37.5" font-family="Helvetica,sans-Serif" font-size="10.00">+ ClassificationTypeRegistry</text>
<text text-anchor="start" x="8" y="-26.5" font-family="Helvetica,sans-Serif" font-size="10.00">+ AggregatorFactory</text>
<polyline fill="none" stroke="black" points="0,-19.5 145,-19.5 "/>
<text text-anchor="start" x="8" y="-7.5" font-family="Helvetica,sans-Serif" font-size="10.00">+ TryCreateQuickInfoSource()</text>
</g>
<!-- Node1 -->
<g id="node2" class="node"><title>Node1</title>
<polygon fill="white" stroke="#bfbfbf" points="10,-138.5 10,-195.5 135,-195.5 135,-138.5 10,-138.5"/>
<text text-anchor="middle" x="72.5" y="-183.5" font-family="Helvetica,sans-Serif" font-size="10.00">IQuickInfoSourceProvider</text>
<polyline fill="none" stroke="#bfbfbf" points="10,-176.5 135,-176.5 "/>
<text text-anchor="middle" x="72.5" y="-164.5" font-family="Helvetica,sans-Serif" font-size="10.00"> </text>
<polyline fill="none" stroke="#bfbfbf" points="10,-157.5 135,-157.5 "/>
<text text-anchor="middle" x="72.5" y="-145.5" font-family="Helvetica,sans-Serif" font-size="10.00"> </text>
</g>
<!-- Node1&#45;&gt;Node0 -->
<g id="edge1" class="edge"><title>Node1&#45;&gt;Node0</title>
<path fill="none" stroke="midnightblue" d="M72.5,-128.354C72.5,-119.796 72.5,-110.578 72.5,-101.608"/>
<polygon fill="none" stroke="midnightblue" points="69.0001,-128.404 72.5,-138.404 76.0001,-128.404 69.0001,-128.404"/>
</g>
</g>
</svg>
