<?xml version="1.0" encoding="UTF-8" standalone="no"?>
<!DOCTYPE svg PUBLIC "-//W3C//DTD SVG 1.1//EN"
 "http://www.w3.org/Graphics/SVG/1.1/DTD/svg11.dtd">
<!-- Generated by graphviz version 2.38.0 (20140413.2041)
 -->
<!-- Title: DoxPreviewExt.DoxUtil.DoxTokenTaggerHelper.TagHitTest Pages: 1 -->
<svg width="375pt" height="110pt"
 viewBox="0.00 0.00 375.00 110.00" xmlns="http://www.w3.org/2000/svg" xmlns:xlink="http://www.w3.org/1999/xlink">
<g id="graph0" class="graph" transform="scale(1 1) rotate(0) translate(4 106)">
<title>DoxPreviewExt.DoxUtil.DoxTokenTaggerHelper.TagHitTest</title>
<polygon fill="white" stroke="none" points="-4,4 -4,-106 371,-106 371,4 -4,4"/>
<!-- Node32 -->
<g id="node1" class="node"><title>Node32</title>
<polygon fill="#bfbfbf" stroke="black" points="0,-36 0,-66 149,-66 149,-36 0,-36"/>
<text text-anchor="start" x="8" y="-54" font-family="Helvetica,sans-Serif" font-size="10.00">DoxPreviewExt.DoxUtil.Dox</text>
<text text-anchor="middle" x="74.5" y="-43" font-family="Helvetica,sans-Serif" font-size="10.00">TokenTaggerHelper.TagHitTest</text>
</g>
<!-- Node33 -->
<g id="node2" class="node"><title>Node33</title>
<g id="a_node2"><a xlink:href="class_dox_preview_ext_1_1_dox_util_1_1_cmd_quick_info_source.html#ac88be67e954e6e60889e3ab01d49c0c6" target="_top" xlink:title="create Quickinfo content ">
<polygon fill="white" stroke="black" points="191,-60.5 191,-101.5 361,-101.5 361,-60.5 191,-60.5"/>
<text text-anchor="start" x="199" y="-89.5" font-family="Helvetica,sans-Serif" font-size="10.00">DoxPreviewExt.DoxUtil.Cmd</text>
<text text-anchor="start" x="199" y="-78.5" font-family="Helvetica,sans-Serif" font-size="10.00">QuickInfoSource.AugmentQuickInfo</text>
<text text-anchor="middle" x="276" y="-67.5" font-family="Helvetica,sans-Serif" font-size="10.00">Session</text>
</a>
</g>
</g>
<!-- Node32&#45;&gt;Node33 -->
<g id="edge1" class="edge"><title>Node32&#45;&gt;Node33</title>
<path fill="none" stroke="midnightblue" d="M159.164,-63.581C169.63,-65.1548 180.338,-66.7651 190.812,-68.3401"/>
<polygon fill="midnightblue" stroke="midnightblue" points="159.629,-60.1117 149.22,-62.0857 158.588,-67.0339 159.629,-60.1117"/>
</g>
<!-- Node34 -->
<g id="node3" class="node"><title>Node34</title>
<g id="a_node3"><a xlink:href="class_dox_preview_ext_1_1_dox_util_1_1_c_mouse_processor_provider_1_1_c_mouse_processor.html#a898f77f585470dd1d958d3c91e2bf68d" target="_top" xlink:title="DoxPreviewExt.DoxUtil.CMouse\lProcessorProvider.CMouseProcessor.\lFindSpanTag">
<polygon fill="white" stroke="black" points="185,-0.5 185,-41.5 367,-41.5 367,-0.5 185,-0.5"/>
<text text-anchor="start" x="193" y="-29.5" font-family="Helvetica,sans-Serif" font-size="10.00">DoxPreviewExt.DoxUtil.CMouse</text>
<text text-anchor="start" x="193" y="-18.5" font-family="Helvetica,sans-Serif" font-size="10.00">ProcessorProvider.CMouseProcessor.</text>
<text text-anchor="middle" x="276" y="-7.5" font-family="Helvetica,sans-Serif" font-size="10.00">FindSpanTag</text>
</a>
</g>
</g>
<!-- Node32&#45;&gt;Node34 -->
<g id="edge2" class="edge"><title>Node32&#45;&gt;Node34</title>
<path fill="none" stroke="midnightblue" d="M159.339,-38.3926C167.711,-37.1337 176.236,-35.8517 184.671,-34.5833"/>
<polygon fill="midnightblue" stroke="midnightblue" points="158.588,-34.9661 149.22,-39.9143 159.629,-41.8883 158.588,-34.9661"/>
</g>
</g>
</svg>
