<?xml version="1.0" encoding="UTF-8" standalone="no"?>
<!DOCTYPE svg PUBLIC "-//W3C//DTD SVG 1.1//EN"
 "http://www.w3.org/Graphics/SVG/1.1/DTD/svg11.dtd">
<!-- Generated by graphviz version 2.38.0 (20140413.2041)
 -->
<!-- Title: ExtensionCommon.ExtensionContext.GetMscGenExe Pages: 1 -->
<svg width="369pt" height="100pt"
 viewBox="0.00 0.00 369.00 99.50" xmlns="http://www.w3.org/2000/svg" xmlns:xlink="http://www.w3.org/1999/xlink">
<g id="graph0" class="graph" transform="scale(1 1) rotate(0) translate(4 95.5)">
<title>ExtensionCommon.ExtensionContext.GetMscGenExe</title>
<polygon fill="white" stroke="none" points="-4,4 -4,-95.5 365,-95.5 365,4 -4,4"/>
<!-- Node12 -->
<g id="node1" class="node"><title>Node12</title>
<polygon fill="#bfbfbf" stroke="black" points="0,-27.5 0,-57.5 146,-57.5 146,-27.5 0,-27.5"/>
<text text-anchor="start" x="8" y="-45.5" font-family="Helvetica,sans-Serif" font-size="10.00">ExtensionCommon.Extension</text>
<text text-anchor="middle" x="73" y="-34.5" font-family="Helvetica,sans-Serif" font-size="10.00">Context.GetMscGenExe</text>
</g>
<!-- Node13 -->
<g id="node2" class="node"><title>Node13</title>
<g id="a_node2"><a xlink:href="class_dox_preview_ext_1_1_configuration_1_1_dox_config_user_control.html#afb8cf2f1bb23c2d7413f7dd38d79a9cb" target="_top" xlink:title="DoxPreviewExt.Configuration.\lDoxConfigUserControl.DoxConfigUser\lControl_Load">
<polygon fill="white" stroke="black" points="182,-50 182,-91 361,-91 361,-50 182,-50"/>
<text text-anchor="start" x="190" y="-79" font-family="Helvetica,sans-Serif" font-size="10.00">DoxPreviewExt.Configuration.</text>
<text text-anchor="start" x="190" y="-68" font-family="Helvetica,sans-Serif" font-size="10.00">DoxConfigUserControl.DoxConfigUser</text>
<text text-anchor="middle" x="271.5" y="-57" font-family="Helvetica,sans-Serif" font-size="10.00">Control_Load</text>
</a>
</g>
</g>
<!-- Node12&#45;&gt;Node13 -->
<g id="edge1" class="edge"><title>Node12&#45;&gt;Node13</title>
<path fill="none" stroke="midnightblue" d="M155.959,-54.1786C164.476,-55.3923 173.161,-56.6299 181.749,-57.8536"/>
<polygon fill="midnightblue" stroke="midnightblue" points="156.447,-50.7129 146.054,-52.7672 155.46,-57.6429 156.447,-50.7129"/>
</g>
<!-- Node14 -->
<g id="node3" class="node"><title>Node14</title>
<g id="a_node3"><a xlink:href="class_dox_preview_ext_1_1_dox_util_1_1_c_options.html#afa156c1305d1b2c0fc4e47e4695fe0b7" target="_top" xlink:title="finds mscgen.exe ">
<polygon fill="white" stroke="black" points="190,-0.5 190,-30.5 353,-30.5 353,-0.5 190,-0.5"/>
<text text-anchor="start" x="198" y="-18.5" font-family="Helvetica,sans-Serif" font-size="10.00">DoxPreviewExt.DoxUtil.COptions.</text>
<text text-anchor="middle" x="271.5" y="-7.5" font-family="Helvetica,sans-Serif" font-size="10.00">FindMscGenExe</text>
</a>
</g>
</g>
<!-- Node12&#45;&gt;Node14 -->
<g id="edge2" class="edge"><title>Node12&#45;&gt;Node14</title>
<path fill="none" stroke="midnightblue" d="M156.179,-31.2082C167.31,-29.6788 178.723,-28.1105 189.827,-26.5848"/>
<polygon fill="midnightblue" stroke="midnightblue" points="155.484,-27.7707 146.054,-32.5995 156.437,-34.7056 155.484,-27.7707"/>
</g>
</g>
</svg>
