<?xml version="1.0" encoding="UTF-8" standalone="no"?>
<!DOCTYPE svg PUBLIC "-//W3C//DTD SVG 1.1//EN"
 "http://www.w3.org/Graphics/SVG/1.1/DTD/svg11.dtd">
<!-- Generated by graphviz version 2.38.0 (20140413.2041)
 -->
<!-- Title: DoxPreviewExt.DoxUtil.COptions.FindMimeTeXExe Pages: 1 -->
<svg width="535pt" height="39pt"
 viewBox="0.00 0.00 535.00 39.00" xmlns="http://www.w3.org/2000/svg" xmlns:xlink="http://www.w3.org/1999/xlink">
<g id="graph0" class="graph" transform="scale(1 1) rotate(0) translate(4 35)">
<title>DoxPreviewExt.DoxUtil.COptions.FindMimeTeXExe</title>
<polygon fill="white" stroke="none" points="-4,4 -4,-35 531,-35 531,4 -4,4"/>
<!-- Node18 -->
<g id="node1" class="node"><title>Node18</title>
<polygon fill="#bfbfbf" stroke="black" points="0,-0.5 0,-30.5 163,-30.5 163,-0.5 0,-0.5"/>
<text text-anchor="start" x="8" y="-18.5" font-family="Helvetica,sans-Serif" font-size="10.00">DoxPreviewExt.DoxUtil.COptions.</text>
<text text-anchor="middle" x="81.5" y="-7.5" font-family="Helvetica,sans-Serif" font-size="10.00">FindMimeTeXExe</text>
</g>
<!-- Node19 -->
<g id="node2" class="node"><title>Node19</title>
<g id="a_node2"><a xlink:href="class_extension_common_1_1_extension_context.html#afeafea2570ec2900adc162582e200ee5" target="_top" xlink:title="ExtensionCommon.Extension\lContext.GetMimeTeXExe">
<polygon fill="white" stroke="black" points="199,-0.5 199,-30.5 345,-30.5 345,-0.5 199,-0.5"/>
<text text-anchor="start" x="207" y="-18.5" font-family="Helvetica,sans-Serif" font-size="10.00">ExtensionCommon.Extension</text>
<text text-anchor="middle" x="272" y="-7.5" font-family="Helvetica,sans-Serif" font-size="10.00">Context.GetMimeTeXExe</text>
</a>
</g>
</g>
<!-- Node18&#45;&gt;Node19 -->
<g id="edge1" class="edge"><title>Node18&#45;&gt;Node19</title>
<path fill="none" stroke="midnightblue" d="M163.261,-15.5C171.644,-15.5 180.172,-15.5 188.573,-15.5"/>
<polygon fill="midnightblue" stroke="midnightblue" points="188.739,-19.0001 198.739,-15.5 188.739,-12.0001 188.739,-19.0001"/>
</g>
<!-- Node20 -->
<g id="node3" class="node"><title>Node20</title>
<g id="a_node3"><a xlink:href="class_extension_common_1_1_extension_context.html#a88a4125aee97e6ff5a6651650ac23cda" target="_top" xlink:title="ExtensionCommon.Extension\lContext.SearchFile">
<polygon fill="white" stroke="black" points="381,-0.5 381,-30.5 527,-30.5 527,-0.5 381,-0.5"/>
<text text-anchor="start" x="389" y="-18.5" font-family="Helvetica,sans-Serif" font-size="10.00">ExtensionCommon.Extension</text>
<text text-anchor="middle" x="454" y="-7.5" font-family="Helvetica,sans-Serif" font-size="10.00">Context.SearchFile</text>
</a>
</g>
</g>
<!-- Node19&#45;&gt;Node20 -->
<g id="edge2" class="edge"><title>Node19&#45;&gt;Node20</title>
<path fill="none" stroke="midnightblue" d="M345.176,-15.5C353.52,-15.5 362.077,-15.5 370.544,-15.5"/>
<polygon fill="midnightblue" stroke="midnightblue" points="370.808,-19.0001 380.808,-15.5 370.808,-12.0001 370.808,-19.0001"/>
</g>
</g>
</svg>
