<?xml version="1.0" encoding="UTF-8" standalone="no"?>
<!DOCTYPE svg PUBLIC "-//W3C//DTD SVG 1.1//EN"
 "http://www.w3.org/Graphics/SVG/1.1/DTD/svg11.dtd">
<!-- Generated by graphviz version 2.38.0 (20140413.2041)
 -->
<!-- Title: DoxPreviewExt.DoxUtil.CmdClassifications.UnknownReferenceFormatDefinition Pages: 1 -->
<svg width="193pt" height="182pt"
 viewBox="0.00 0.00 193.00 182.00" xmlns="http://www.w3.org/2000/svg" xmlns:xlink="http://www.w3.org/1999/xlink">
<g id="graph0" class="graph" transform="scale(1 1) rotate(0) translate(4 178)">
<title>DoxPreviewExt.DoxUtil.CmdClassifications.UnknownReferenceFormatDefinition</title>
<polygon fill="white" stroke="none" points="-4,4 -4,-178 189,-178 189,4 -4,4"/>
<!-- Node2 -->
<g id="node1" class="node"><title>Node2</title>
<polygon fill="#bfbfbf" stroke="black" points="0,-0.5 0,-79.5 185,-79.5 185,-0.5 0,-0.5"/>
<text text-anchor="start" x="8" y="-67.5" font-family="Helvetica,sans-Serif" font-size="10.00">DoxPreviewExt.DoxUtil.Cmd</text>
<text text-anchor="start" x="8" y="-56.5" font-family="Helvetica,sans-Serif" font-size="10.00">Classifications.UnknownReference</text>
<text text-anchor="middle" x="92.5" y="-45.5" font-family="Helvetica,sans-Serif" font-size="10.00">FormatDefinition</text>
<polyline fill="none" stroke="black" points="0,-38.5 185,-38.5 "/>
<text text-anchor="middle" x="92.5" y="-26.5" font-family="Helvetica,sans-Serif" font-size="10.00"> </text>
<polyline fill="none" stroke="black" points="0,-19.5 185,-19.5 "/>
<text text-anchor="start" x="8" y="-7.5" font-family="Helvetica,sans-Serif" font-size="10.00">+ UnknownReferenceFormatDefinition()</text>
</g>
<!-- Node3 -->
<g id="node2" class="node"><title>Node3</title>
<polygon fill="white" stroke="#bfbfbf" points="20,-116.5 20,-173.5 165,-173.5 165,-116.5 20,-116.5"/>
<text text-anchor="middle" x="92.5" y="-161.5" font-family="Helvetica,sans-Serif" font-size="10.00">ClassificationFormatDefinition</text>
<polyline fill="none" stroke="#bfbfbf" points="20,-154.5 165,-154.5 "/>
<text text-anchor="middle" x="92.5" y="-142.5" font-family="Helvetica,sans-Serif" font-size="10.00"> </text>
<polyline fill="none" stroke="#bfbfbf" points="20,-135.5 165,-135.5 "/>
<text text-anchor="middle" x="92.5" y="-123.5" font-family="Helvetica,sans-Serif" font-size="10.00"> </text>
</g>
<!-- Node3&#45;&gt;Node2 -->
<g id="edge1" class="edge"><title>Node3&#45;&gt;Node2</title>
<path fill="none" stroke="midnightblue" d="M92.5,-106.156C92.5,-97.4733 92.5,-88.2318 92.5,-79.5205"/>
<polygon fill="none" stroke="midnightblue" points="89.0001,-106.398 92.5,-116.398 96.0001,-106.398 89.0001,-106.398"/>
</g>
</g>
</svg>
