<?xml version="1.0" encoding="UTF-8" standalone="no"?>
<!DOCTYPE svg PUBLIC "-//W3C//DTD SVG 1.1//EN"
 "http://www.w3.org/Graphics/SVG/1.1/DTD/svg11.dtd">
<!-- Generated by graphviz version 2.38.0 (20140413.2041)
 -->
<!-- Title: DoxPreviewExt.DoxUtil.CPreviewImageCollection.NewTempPreviewFileName Pages: 1 -->
<svg width="409pt" height="39pt"
 viewBox="0.00 0.00 409.00 39.00" xmlns="http://www.w3.org/2000/svg" xmlns:xlink="http://www.w3.org/1999/xlink">
<g id="graph0" class="graph" transform="scale(1 1) rotate(0) translate(4 35)">
<title>DoxPreviewExt.DoxUtil.CPreviewImageCollection.NewTempPreviewFileName</title>
<polygon fill="white" stroke="none" points="-4,4 -4,-35 405,-35 405,4 -4,4"/>
<!-- Node20 -->
<g id="node1" class="node"><title>Node20</title>
<polygon fill="#bfbfbf" stroke="black" points="0,-0.5 0,-30.5 206,-30.5 206,-0.5 0,-0.5"/>
<text text-anchor="start" x="8" y="-18.5" font-family="Helvetica,sans-Serif" font-size="10.00">DoxPreviewExt.DoxUtil.CPreview</text>
<text text-anchor="middle" x="103" y="-7.5" font-family="Helvetica,sans-Serif" font-size="10.00">ImageCollection.NewTempPreviewFileName</text>
</g>
<!-- Node21 -->
<g id="node2" class="node"><title>Node21</title>
<g id="a_node2"><a xlink:href="class_dox_preview_ext_1_1_dox_util_1_1_c_preview_image_base.html#adc9600407f4c6a09c336566a784595a5" target="_top" xlink:title="ctor ">
<polygon fill="white" stroke="black" points="242,-0.5 242,-30.5 401,-30.5 401,-0.5 242,-0.5"/>
<text text-anchor="start" x="250" y="-18.5" font-family="Helvetica,sans-Serif" font-size="10.00">DoxPreviewExt.DoxUtil.CPreview</text>
<text text-anchor="middle" x="321.5" y="-7.5" font-family="Helvetica,sans-Serif" font-size="10.00">ImageBase.CPreviewImageBase</text>
</a>
</g>
</g>
<!-- Node20&#45;&gt;Node21 -->
<g id="edge1" class="edge"><title>Node20&#45;&gt;Node21</title>
<path fill="none" stroke="midnightblue" d="M216.307,-15.5C224.891,-15.5 233.44,-15.5 241.74,-15.5"/>
<polygon fill="midnightblue" stroke="midnightblue" points="216.227,-12.0001 206.227,-15.5 216.227,-19.0001 216.227,-12.0001"/>
</g>
</g>
</svg>
