<?xml version="1.0" encoding="UTF-8" standalone="no"?>
<!DOCTYPE svg PUBLIC "-//W3C//DTD SVG 1.1//EN"
 "http://www.w3.org/Graphics/SVG/1.1/DTD/svg11.dtd">
<!-- Generated by graphviz version 2.38.0 (20140413.2041)
 -->
<!-- Title: DoxPreviewExt.DoxUtil.CMouseProcessorProvider.CMouseProcessor.FindSpanTag Pages: 1 -->
<svg width="375pt" height="50pt"
 viewBox="0.00 0.00 375.00 50.00" xmlns="http://www.w3.org/2000/svg" xmlns:xlink="http://www.w3.org/1999/xlink">
<g id="graph0" class="graph" transform="scale(1 1) rotate(0) translate(4 46)">
<title>DoxPreviewExt.DoxUtil.CMouseProcessorProvider.CMouseProcessor.FindSpanTag</title>
<polygon fill="white" stroke="none" points="-4,4 -4,-46 371,-46 371,4 -4,4"/>
<!-- Node2 -->
<g id="node1" class="node"><title>Node2</title>
<polygon fill="#bfbfbf" stroke="black" points="0,-0.5 0,-41.5 182,-41.5 182,-0.5 0,-0.5"/>
<text text-anchor="start" x="8" y="-29.5" font-family="Helvetica,sans-Serif" font-size="10.00">DoxPreviewExt.DoxUtil.CMouse</text>
<text text-anchor="start" x="8" y="-18.5" font-family="Helvetica,sans-Serif" font-size="10.00">ProcessorProvider.CMouseProcessor.</text>
<text text-anchor="middle" x="91" y="-7.5" font-family="Helvetica,sans-Serif" font-size="10.00">FindSpanTag</text>
</g>
<!-- Node3 -->
<g id="node2" class="node"><title>Node3</title>
<g id="a_node2"><a xlink:href="class_dox_preview_ext_1_1_dox_util_1_1_dox_token_tagger_helper.html#a26867a899fb4fccec19ff63df38df860" target="_top" xlink:title="find tag at position ">
<polygon fill="white" stroke="black" points="218,-6 218,-36 367,-36 367,-6 218,-6"/>
<text text-anchor="start" x="226" y="-24" font-family="Helvetica,sans-Serif" font-size="10.00">DoxPreviewExt.DoxUtil.Dox</text>
<text text-anchor="middle" x="292.5" y="-13" font-family="Helvetica,sans-Serif" font-size="10.00">TokenTaggerHelper.TagHitTest</text>
</a>
</g>
</g>
<!-- Node2&#45;&gt;Node3 -->
<g id="edge1" class="edge"><title>Node2&#45;&gt;Node3</title>
<path fill="none" stroke="midnightblue" d="M182.12,-21C190.635,-21 199.245,-21 207.699,-21"/>
<polygon fill="midnightblue" stroke="midnightblue" points="207.915,-24.5001 217.915,-21 207.915,-17.5001 207.915,-24.5001"/>
</g>
</g>
</svg>
