<?xml version="1.0" encoding="UTF-8" standalone="no"?>
<!DOCTYPE svg PUBLIC "-//W3C//DTD SVG 1.1//EN"
 "http://www.w3.org/Graphics/SVG/1.1/DTD/svg11.dtd">
<!-- Generated by graphviz version 2.38.0 (20140413.2041)
 -->
<!-- Title: DoxPreviewExt.DoxUtil.CPreviewImageCollection.Find Pages: 1 -->
<svg width="370pt" height="284pt"
 viewBox="0.00 0.00 370.00 284.00" xmlns="http://www.w3.org/2000/svg" xmlns:xlink="http://www.w3.org/1999/xlink">
<g id="graph0" class="graph" transform="scale(1 1) rotate(0) translate(4 280)">
<title>DoxPreviewExt.DoxUtil.CPreviewImageCollection.Find</title>
<polygon fill="white" stroke="none" points="-4,4 -4,-280 366,-280 366,4 -4,4"/>
<!-- Node12 -->
<g id="node1" class="node"><title>Node12</title>
<polygon fill="#bfbfbf" stroke="black" points="0,-122.5 0,-152.5 159,-152.5 159,-122.5 0,-122.5"/>
<text text-anchor="start" x="8" y="-140.5" font-family="Helvetica,sans-Serif" font-size="10.00">DoxPreviewExt.DoxUtil.CPreview</text>
<text text-anchor="middle" x="79.5" y="-129.5" font-family="Helvetica,sans-Serif" font-size="10.00">ImageCollection.Find</text>
</g>
<!-- Node13 -->
<g id="node2" class="node"><title>Node13</title>
<g id="a_node2"><a xlink:href="class_dox_preview_ext_1_1_dox_util_1_1_c_manager.html#a41fd97178d306f958adfa04e98245788" target="_top" xlink:title="generate temporary image file from dot graph file ">
<polygon fill="white" stroke="black" points="195,-245.5 195,-275.5 362,-275.5 362,-245.5 195,-245.5"/>
<text text-anchor="start" x="203" y="-263.5" font-family="Helvetica,sans-Serif" font-size="10.00">DoxPreviewExt.DoxUtil.CManager.</text>
<text text-anchor="middle" x="278.5" y="-252.5" font-family="Helvetica,sans-Serif" font-size="10.00">GenerateDotFileGraphPreview</text>
</a>
</g>
</g>
<!-- Node12&#45;&gt;Node13 -->
<g id="edge1" class="edge"><title>Node12&#45;&gt;Node13</title>
<path fill="none" stroke="midnightblue" d="M100.739,-159.926C122.119,-182.337 157.827,-216.288 195,-236.5 201.29,-239.92 208.122,-242.902 215.071,-245.488"/>
<polygon fill="midnightblue" stroke="midnightblue" points="103.189,-157.421 93.7949,-152.521 98.0824,-162.21 103.189,-157.421"/>
</g>
<!-- Node14 -->
<g id="node3" class="node"><title>Node14</title>
<g id="a_node3"><a xlink:href="class_dox_preview_ext_1_1_dox_util_1_1_c_manager.html#ad7db4f3dab9ed86e292bc247d748a116" target="_top" xlink:title="generate temporary image file from dot graph source code ">
<polygon fill="white" stroke="black" points="195,-196.5 195,-226.5 362,-226.5 362,-196.5 195,-196.5"/>
<text text-anchor="start" x="203" y="-214.5" font-family="Helvetica,sans-Serif" font-size="10.00">DoxPreviewExt.DoxUtil.CManager.</text>
<text text-anchor="middle" x="278.5" y="-203.5" font-family="Helvetica,sans-Serif" font-size="10.00">GenerateDotGraphPreview</text>
</a>
</g>
</g>
<!-- Node12&#45;&gt;Node14 -->
<g id="edge2" class="edge"><title>Node12&#45;&gt;Node14</title>
<path fill="none" stroke="midnightblue" d="M121.345,-156.862C142.968,-166.721 170.127,-178.494 195,-187.5 203.696,-190.649 213.019,-193.68 222.155,-196.466"/>
<polygon fill="midnightblue" stroke="midnightblue" points="122.683,-153.625 112.135,-152.626 119.758,-159.985 122.683,-153.625"/>
</g>
<!-- Node15 -->
<g id="node4" class="node"><title>Node15</title>
<g id="a_node4"><a xlink:href="class_dox_preview_ext_1_1_dox_util_1_1_c_manager.html#af01d6d596a0d4a8c53f6767573220d48" target="_top" xlink:title="generate temporary image file from PlatUML source code ">
<polygon fill="white" stroke="black" points="195,-147.5 195,-177.5 362,-177.5 362,-147.5 195,-147.5"/>
<text text-anchor="start" x="203" y="-165.5" font-family="Helvetica,sans-Serif" font-size="10.00">DoxPreviewExt.DoxUtil.CManager.</text>
<text text-anchor="middle" x="278.5" y="-154.5" font-family="Helvetica,sans-Serif" font-size="10.00">GenerateLatexFormulaPreview</text>
</a>
</g>
</g>
<!-- Node12&#45;&gt;Node15 -->
<g id="edge3" class="edge"><title>Node12&#45;&gt;Node15</title>
<path fill="none" stroke="midnightblue" d="M169.142,-148.749C177.655,-149.829 186.268,-150.922 194.722,-151.995"/>
<polygon fill="midnightblue" stroke="midnightblue" points="169.57,-145.275 159.209,-147.488 168.689,-152.22 169.57,-145.275"/>
</g>
<!-- Node16 -->
<g id="node5" class="node"><title>Node16</title>
<g id="a_node5"><a xlink:href="class_dox_preview_ext_1_1_dox_util_1_1_c_manager.html#aea18832ce732f40416fee962c51c808f" target="_top" xlink:title="generate temporary image file from message sequence chart file ">
<polygon fill="white" stroke="black" points="195,-98.5 195,-128.5 362,-128.5 362,-98.5 195,-98.5"/>
<text text-anchor="start" x="203" y="-116.5" font-family="Helvetica,sans-Serif" font-size="10.00">DoxPreviewExt.DoxUtil.CManager.</text>
<text text-anchor="middle" x="278.5" y="-105.5" font-family="Helvetica,sans-Serif" font-size="10.00">GenerateMscFileGraphPreview</text>
</a>
</g>
</g>
<!-- Node12&#45;&gt;Node16 -->
<g id="edge4" class="edge"><title>Node12&#45;&gt;Node16</title>
<path fill="none" stroke="midnightblue" d="M169.142,-126.701C177.655,-125.664 186.268,-124.615 194.722,-123.585"/>
<polygon fill="midnightblue" stroke="midnightblue" points="168.712,-123.227 159.209,-127.911 169.559,-130.176 168.712,-123.227"/>
</g>
<!-- Node17 -->
<g id="node6" class="node"><title>Node17</title>
<g id="a_node6"><a xlink:href="class_dox_preview_ext_1_1_dox_util_1_1_c_manager.html#ad46efcd34e05a818e19aa180a8a0744c" target="_top" xlink:title="generate temporary image file from message sequence chart source code ">
<polygon fill="white" stroke="black" points="195,-49.5 195,-79.5 362,-79.5 362,-49.5 195,-49.5"/>
<text text-anchor="start" x="203" y="-67.5" font-family="Helvetica,sans-Serif" font-size="10.00">DoxPreviewExt.DoxUtil.CManager.</text>
<text text-anchor="middle" x="278.5" y="-56.5" font-family="Helvetica,sans-Serif" font-size="10.00">GenerateMscGraphPreview</text>
</a>
</g>
</g>
<!-- Node12&#45;&gt;Node17 -->
<g id="edge5" class="edge"><title>Node12&#45;&gt;Node17</title>
<path fill="none" stroke="midnightblue" d="M123.617,-118.19C144.901,-108.976 171.082,-98.1115 195,-89.5 204.575,-86.0525 214.885,-82.6725 224.862,-79.5675"/>
<polygon fill="midnightblue" stroke="midnightblue" points="121.976,-115.087 114.209,-122.293 124.774,-121.504 121.976,-115.087"/>
</g>
<!-- Node18 -->
<g id="node7" class="node"><title>Node18</title>
<g id="a_node7"><a xlink:href="class_dox_preview_ext_1_1_dox_util_1_1_c_manager.html#a551bed9380410be9c46e74656bfa2e8a" target="_top" xlink:title="generate temporary image file from PlatUML source code ">
<polygon fill="white" stroke="black" points="195,-0.5 195,-30.5 362,-30.5 362,-0.5 195,-0.5"/>
<text text-anchor="start" x="203" y="-18.5" font-family="Helvetica,sans-Serif" font-size="10.00">DoxPreviewExt.DoxUtil.CManager.</text>
<text text-anchor="middle" x="278.5" y="-7.5" font-family="Helvetica,sans-Serif" font-size="10.00">GeneratePlatUMLPreview</text>
</a>
</g>
</g>
<!-- Node12&#45;&gt;Node18 -->
<g id="edge6" class="edge"><title>Node12&#45;&gt;Node18</title>
<path fill="none" stroke="midnightblue" d="M101.597,-114.899C123.159,-93.0211 158.566,-60.3348 195,-40.5 201.967,-36.7074 209.585,-33.4136 217.286,-30.5746"/>
<polygon fill="midnightblue" stroke="midnightblue" points="99.0164,-112.532 94.568,-122.148 104.042,-117.405 99.0164,-112.532"/>
</g>
</g>
</svg>
