<?xml version="1.0" encoding="UTF-8" standalone="no"?>
<!DOCTYPE svg PUBLIC "-//W3C//DTD SVG 1.1//EN"
 "http://www.w3.org/Graphics/SVG/1.1/DTD/svg11.dtd">
<!-- Generated by graphviz version 2.38.0 (20140413.2041)
 -->
<!-- Title: DoxPreviewExt.DoxUtil.CManager.GenerateDotFileGraphPreview Pages: 1 -->
<svg width="561pt" height="88pt"
 viewBox="0.00 0.00 561.00 88.00" xmlns="http://www.w3.org/2000/svg" xmlns:xlink="http://www.w3.org/1999/xlink">
<g id="graph0" class="graph" transform="scale(1 1) rotate(0) translate(4 84)">
<title>DoxPreviewExt.DoxUtil.CManager.GenerateDotFileGraphPreview</title>
<polygon fill="white" stroke="none" points="-4,4 -4,-84 557,-84 557,4 -4,4"/>
<!-- Node20 -->
<g id="node1" class="node"><title>Node20</title>
<polygon fill="#bfbfbf" stroke="black" points="0,-24.5 0,-54.5 167,-54.5 167,-24.5 0,-24.5"/>
<text text-anchor="start" x="8" y="-42.5" font-family="Helvetica,sans-Serif" font-size="10.00">DoxPreviewExt.DoxUtil.CManager.</text>
<text text-anchor="middle" x="83.5" y="-31.5" font-family="Helvetica,sans-Serif" font-size="10.00">GenerateDotFileGraphPreview</text>
</g>
<!-- Node21 -->
<g id="node2" class="node"><title>Node21</title>
<g id="a_node2"><a xlink:href="class_dox_preview_ext_1_1_dox_util_1_1_c_preview_image_collection.html#a73cac9910652d047ec984c47b6ef5e78" target="_top" xlink:title="DoxPreviewExt.DoxUtil.CPreview\lImageCollection.Add">
<polygon fill="white" stroke="black" points="203,-49.5 203,-79.5 362,-79.5 362,-49.5 203,-49.5"/>
<text text-anchor="start" x="211" y="-67.5" font-family="Helvetica,sans-Serif" font-size="10.00">DoxPreviewExt.DoxUtil.CPreview</text>
<text text-anchor="middle" x="282.5" y="-56.5" font-family="Helvetica,sans-Serif" font-size="10.00">ImageCollection.Add</text>
</a>
</g>
</g>
<!-- Node20&#45;&gt;Node21 -->
<g id="edge1" class="edge"><title>Node20&#45;&gt;Node21</title>
<path fill="none" stroke="midnightblue" d="M167.189,-49.9936C175.666,-51.0693 184.302,-52.1653 192.839,-53.2487"/>
<polygon fill="midnightblue" stroke="midnightblue" points="192.439,-56.7258 202.8,-54.5127 193.32,-49.7815 192.439,-56.7258"/>
</g>
<!-- Node23 -->
<g id="node4" class="node"><title>Node23</title>
<g id="a_node4"><a xlink:href="class_dox_preview_ext_1_1_dox_util_1_1_c_preview_image_collection.html#ad7cc4b7ee9d66cc5eeaa1fb170a35db3" target="_top" xlink:title="DoxPreviewExt.DoxUtil.CPreview\lImageCollection.Find">
<polygon fill="white" stroke="black" points="203,-0.5 203,-30.5 362,-30.5 362,-0.5 203,-0.5"/>
<text text-anchor="start" x="211" y="-18.5" font-family="Helvetica,sans-Serif" font-size="10.00">DoxPreviewExt.DoxUtil.CPreview</text>
<text text-anchor="middle" x="282.5" y="-7.5" font-family="Helvetica,sans-Serif" font-size="10.00">ImageCollection.Find</text>
</a>
</g>
</g>
<!-- Node20&#45;&gt;Node23 -->
<g id="edge3" class="edge"><title>Node20&#45;&gt;Node23</title>
<path fill="none" stroke="midnightblue" d="M167.189,-29.4262C175.666,-28.3935 184.302,-27.3413 192.839,-26.3013"/>
<polygon fill="midnightblue" stroke="midnightblue" points="193.297,-29.7716 202.8,-25.0878 192.45,-22.8229 193.297,-29.7716"/>
</g>
<!-- Node22 -->
<g id="node3" class="node"><title>Node22</title>
<g id="a_node3"><a xlink:href="interface_dox_preview_ext_1_1_dox_util_1_1_i_preview_image.html#a3038552eb789264e16a64065e446187d" target="_top" xlink:title="DoxPreviewExt.DoxUtil.IPreview\lImage.GetImageFile">
<polygon fill="white" stroke="black" points="398,-49.5 398,-79.5 553,-79.5 553,-49.5 398,-49.5"/>
<text text-anchor="start" x="406" y="-67.5" font-family="Helvetica,sans-Serif" font-size="10.00">DoxPreviewExt.DoxUtil.IPreview</text>
<text text-anchor="middle" x="475.5" y="-56.5" font-family="Helvetica,sans-Serif" font-size="10.00">Image.GetImageFile</text>
</a>
</g>
</g>
<!-- Node21&#45;&gt;Node22 -->
<g id="edge2" class="edge"><title>Node21&#45;&gt;Node22</title>
<path fill="none" stroke="midnightblue" d="M362.014,-64.5C370.518,-64.5 379.209,-64.5 387.803,-64.5"/>
<polygon fill="midnightblue" stroke="midnightblue" points="387.831,-68.0001 397.831,-64.5 387.831,-61.0001 387.831,-68.0001"/>
</g>
</g>
</svg>
