<?xml version="1.0" encoding="UTF-8" standalone="no"?>
<!DOCTYPE svg PUBLIC "-//W3C//DTD SVG 1.1//EN"
 "http://www.w3.org/Graphics/SVG/1.1/DTD/svg11.dtd">
<!-- Generated by graphviz version 2.38.0 (20140413.2041)
 -->
<!-- Title: DoxPreviewExt.Configuration.DoxConfigUserControl.DoxConfigUserControl_Load Pages: 1 -->
<svg width="551pt" height="186pt"
 viewBox="0.00 0.00 551.00 186.00" xmlns="http://www.w3.org/2000/svg" xmlns:xlink="http://www.w3.org/1999/xlink">
<g id="graph0" class="graph" transform="scale(1 1) rotate(0) translate(4 182)">
<title>DoxPreviewExt.Configuration.DoxConfigUserControl.DoxConfigUserControl_Load</title>
<polygon fill="white" stroke="none" points="-4,4 -4,-182 547,-182 547,4 -4,4"/>
<!-- Node10 -->
<g id="node1" class="node"><title>Node10</title>
<polygon fill="#bfbfbf" stroke="black" points="0,-68 0,-109 179,-109 179,-68 0,-68"/>
<text text-anchor="start" x="8" y="-97" font-family="Helvetica,sans-Serif" font-size="10.00">DoxPreviewExt.Configuration.</text>
<text text-anchor="start" x="8" y="-86" font-family="Helvetica,sans-Serif" font-size="10.00">DoxConfigUserControl.DoxConfigUser</text>
<text text-anchor="middle" x="89.5" y="-75" font-family="Helvetica,sans-Serif" font-size="10.00">Control_Load</text>
</g>
<!-- Node11 -->
<g id="node2" class="node"><title>Node11</title>
<g id="a_node2"><a xlink:href="class_extension_common_1_1_extension_context.html#a1a6c1b51700f6b4604a6906a9a332bed" target="_top" xlink:title="ExtensionCommon.Extension\lContext.GetDotExe">
<polygon fill="white" stroke="black" points="215,-147.5 215,-177.5 361,-177.5 361,-147.5 215,-147.5"/>
<text text-anchor="start" x="223" y="-165.5" font-family="Helvetica,sans-Serif" font-size="10.00">ExtensionCommon.Extension</text>
<text text-anchor="middle" x="288" y="-154.5" font-family="Helvetica,sans-Serif" font-size="10.00">Context.GetDotExe</text>
</a>
</g>
</g>
<!-- Node10&#45;&gt;Node11 -->
<g id="edge1" class="edge"><title>Node10&#45;&gt;Node11</title>
<path fill="none" stroke="midnightblue" d="M139.615,-109.017C162.417,-118.338 189.964,-129.309 215,-138.5 220.102,-140.373 225.43,-142.266 230.777,-144.123"/>
<polygon fill="midnightblue" stroke="midnightblue" points="229.785,-147.483 240.38,-147.415 232.056,-140.861 229.785,-147.483"/>
</g>
<!-- Node13 -->
<g id="node4" class="node"><title>Node13</title>
<g id="a_node4"><a xlink:href="class_extension_common_1_1_extension_context.html#afeafea2570ec2900adc162582e200ee5" target="_top" xlink:title="ExtensionCommon.Extension\lContext.GetMimeTeXExe">
<polygon fill="white" stroke="black" points="215,-98.5 215,-128.5 361,-128.5 361,-98.5 215,-98.5"/>
<text text-anchor="start" x="223" y="-116.5" font-family="Helvetica,sans-Serif" font-size="10.00">ExtensionCommon.Extension</text>
<text text-anchor="middle" x="288" y="-105.5" font-family="Helvetica,sans-Serif" font-size="10.00">Context.GetMimeTeXExe</text>
</a>
</g>
</g>
<!-- Node10&#45;&gt;Node13 -->
<g id="edge3" class="edge"><title>Node10&#45;&gt;Node13</title>
<path fill="none" stroke="midnightblue" d="M179.264,-99.7932C187.724,-100.87 196.279,-101.958 204.674,-103.026"/>
<polygon fill="midnightblue" stroke="midnightblue" points="204.457,-106.526 214.819,-104.317 205.34,-99.5824 204.457,-106.526"/>
</g>
<!-- Node14 -->
<g id="node5" class="node"><title>Node14</title>
<g id="a_node5"><a xlink:href="class_extension_common_1_1_extension_context.html#ad25f5df49f666ee4086ad2082d11297f" target="_top" xlink:title="ExtensionCommon.Extension\lContext.GetMscGenExe">
<polygon fill="white" stroke="black" points="215,-49.5 215,-79.5 361,-79.5 361,-49.5 215,-49.5"/>
<text text-anchor="start" x="223" y="-67.5" font-family="Helvetica,sans-Serif" font-size="10.00">ExtensionCommon.Extension</text>
<text text-anchor="middle" x="288" y="-56.5" font-family="Helvetica,sans-Serif" font-size="10.00">Context.GetMscGenExe</text>
</a>
</g>
</g>
<!-- Node10&#45;&gt;Node14 -->
<g id="edge5" class="edge"><title>Node10&#45;&gt;Node14</title>
<path fill="none" stroke="midnightblue" d="M179.264,-77.6585C187.724,-76.6253 196.279,-75.5804 204.674,-74.5551"/>
<polygon fill="midnightblue" stroke="midnightblue" points="205.317,-78.0027 214.819,-73.3161 204.468,-71.0543 205.317,-78.0027"/>
</g>
<!-- Node15 -->
<g id="node6" class="node"><title>Node15</title>
<g id="a_node6"><a xlink:href="class_extension_common_1_1_extension_context.html#afd880183fe4e7732e532f547c36e1ff1" target="_top" xlink:title="ExtensionCommon.Extension\lContext.GetPlantUmlJar">
<polygon fill="white" stroke="black" points="215,-0.5 215,-30.5 361,-30.5 361,-0.5 215,-0.5"/>
<text text-anchor="start" x="223" y="-18.5" font-family="Helvetica,sans-Serif" font-size="10.00">ExtensionCommon.Extension</text>
<text text-anchor="middle" x="288" y="-7.5" font-family="Helvetica,sans-Serif" font-size="10.00">Context.GetPlantUmlJar</text>
</a>
</g>
</g>
<!-- Node10&#45;&gt;Node15 -->
<g id="edge7" class="edge"><title>Node10&#45;&gt;Node15</title>
<path fill="none" stroke="midnightblue" d="M142.751,-67.9041C164.961,-59.2667 191.181,-49.2239 215,-40.5 220.871,-38.3498 227.027,-36.1416 233.164,-33.9701"/>
<polygon fill="midnightblue" stroke="midnightblue" points="234.473,-37.2198 242.747,-30.6017 232.152,-30.6159 234.473,-37.2198"/>
</g>
<!-- Node12 -->
<g id="node3" class="node"><title>Node12</title>
<g id="a_node3"><a xlink:href="class_extension_common_1_1_extension_context.html#a88a4125aee97e6ff5a6651650ac23cda" target="_top" xlink:title="ExtensionCommon.Extension\lContext.SearchFile">
<polygon fill="white" stroke="black" points="397,-73.5 397,-103.5 543,-103.5 543,-73.5 397,-73.5"/>
<text text-anchor="start" x="405" y="-91.5" font-family="Helvetica,sans-Serif" font-size="10.00">ExtensionCommon.Extension</text>
<text text-anchor="middle" x="470" y="-80.5" font-family="Helvetica,sans-Serif" font-size="10.00">Context.SearchFile</text>
</a>
</g>
</g>
<!-- Node11&#45;&gt;Node12 -->
<g id="edge2" class="edge"><title>Node11&#45;&gt;Node12</title>
<path fill="none" stroke="midnightblue" d="M336.523,-147.497C344.742,-144.664 353.162,-141.61 361,-138.5 384.046,-129.357 409.216,-117.8 429.456,-108.101"/>
<polygon fill="midnightblue" stroke="midnightblue" points="431.19,-111.15 438.672,-103.649 428.145,-104.846 431.19,-111.15"/>
</g>
<!-- Node13&#45;&gt;Node12 -->
<g id="edge4" class="edge"><title>Node13&#45;&gt;Node12</title>
<path fill="none" stroke="midnightblue" d="M361.176,-103.476C369.612,-102.304 378.265,-101.102 386.824,-99.9134"/>
<polygon fill="midnightblue" stroke="midnightblue" points="387.385,-103.369 396.808,-98.5267 386.422,-96.4357 387.385,-103.369"/>
</g>
<!-- Node14&#45;&gt;Node12 -->
<g id="edge6" class="edge"><title>Node14&#45;&gt;Node12</title>
<path fill="none" stroke="midnightblue" d="M361.176,-74.1234C369.612,-75.2482 378.265,-76.402 386.824,-77.5431"/>
<polygon fill="midnightblue" stroke="midnightblue" points="386.433,-81.022 396.808,-78.8744 387.358,-74.0834 386.433,-81.022"/>
</g>
<!-- Node15&#45;&gt;Node12 -->
<g id="edge8" class="edge"><title>Node15&#45;&gt;Node12</title>
<path fill="none" stroke="midnightblue" d="M334.151,-30.5253C343.099,-33.6858 352.385,-37.097 361,-40.5 383.24,-49.2856 407.614,-60.0199 427.569,-69.1078"/>
<polygon fill="midnightblue" stroke="midnightblue" points="426.143,-72.304 436.692,-73.2875 429.058,-65.9402 426.143,-72.304"/>
</g>
</g>
</svg>
