<?xml version="1.0" encoding="UTF-8" standalone="no"?>
<!DOCTYPE svg PUBLIC "-//W3C//DTD SVG 1.1//EN"
 "http://www.w3.org/Graphics/SVG/1.1/DTD/svg11.dtd">
<!-- Generated by graphviz version 2.38.0 (20140413.2041)
 -->
<!-- Title: DoxPreviewExt.DoxUtil.CManager.LoadOrCreateBitmapImage Pages: 1 -->
<svg width="361pt" height="235pt"
 viewBox="0.00 0.00 361.00 235.00" xmlns="http://www.w3.org/2000/svg" xmlns:xlink="http://www.w3.org/1999/xlink">
<g id="graph0" class="graph" transform="scale(1 1) rotate(0) translate(4 231)">
<title>DoxPreviewExt.DoxUtil.CManager.LoadOrCreateBitmapImage</title>
<polygon fill="white" stroke="none" points="-4,4 -4,-231 357,-231 357,4 -4,4"/>
<!-- Node59 -->
<g id="node1" class="node"><title>Node59</title>
<polygon fill="#bfbfbf" stroke="black" points="0,-98.5 0,-128.5 167,-128.5 167,-98.5 0,-98.5"/>
<text text-anchor="start" x="8" y="-116.5" font-family="Helvetica,sans-Serif" font-size="10.00">DoxPreviewExt.DoxUtil.CManager.</text>
<text text-anchor="middle" x="83.5" y="-105.5" font-family="Helvetica,sans-Serif" font-size="10.00">LoadOrCreateBitmapImage</text>
</g>
<!-- Node60 -->
<g id="node2" class="node"><title>Node60</title>
<g id="a_node2"><a xlink:href="class_dox_preview_ext_1_1_dox_util_1_1_cmd_quick_info_source.html#a44bbd5288020bf85d9f414b95e773555" target="_top" xlink:title="Add image preview to QuickInfo content. ">
<polygon fill="white" stroke="black" points="208,-196.5 208,-226.5 348,-226.5 348,-196.5 208,-196.5"/>
<text text-anchor="start" x="216" y="-214.5" font-family="Helvetica,sans-Serif" font-size="10.00">DoxPreviewExt.DoxUtil.Cmd</text>
<text text-anchor="middle" x="278" y="-203.5" font-family="Helvetica,sans-Serif" font-size="10.00">QuickInfoSource.AddImage</text>
</a>
</g>
</g>
<!-- Node59&#45;&gt;Node60 -->
<g id="edge1" class="edge"><title>Node59&#45;&gt;Node60</title>
<path fill="none" stroke="midnightblue" d="M113.832,-134.656C137.14,-150.755 171.027,-172.607 203,-187.5 209.978,-190.751 217.518,-193.744 225.023,-196.432"/>
<polygon fill="midnightblue" stroke="midnightblue" points="115.644,-131.653 105.442,-128.795 111.635,-137.391 115.644,-131.653"/>
</g>
<!-- Node61 -->
<g id="node3" class="node"><title>Node61</title>
<g id="a_node3"><a xlink:href="class_dox_preview_ext_1_1_dox_util_1_1_c_plant_u_m_l_image.html#aca9f88b06845022781e47f3264aa9b26" target="_top" xlink:title="DoxPreviewExt.DoxUtil.CPlant\lUMLImage.GetValidImage">
<polygon fill="white" stroke="black" points="203.5,-147.5 203.5,-177.5 352.5,-177.5 352.5,-147.5 203.5,-147.5"/>
<text text-anchor="start" x="211.5" y="-165.5" font-family="Helvetica,sans-Serif" font-size="10.00">DoxPreviewExt.DoxUtil.CPlant</text>
<text text-anchor="middle" x="278" y="-154.5" font-family="Helvetica,sans-Serif" font-size="10.00">UMLImage.GetValidImage</text>
</a>
</g>
</g>
<!-- Node59&#45;&gt;Node61 -->
<g id="edge2" class="edge"><title>Node59&#45;&gt;Node61</title>
<path fill="none" stroke="midnightblue" d="M153.446,-131.05C174.585,-136.431 197.639,-142.299 218.047,-147.494"/>
<polygon fill="midnightblue" stroke="midnightblue" points="154.119,-127.61 143.565,-128.535 152.392,-134.393 154.119,-127.61"/>
</g>
<!-- Node62 -->
<g id="node4" class="node"><title>Node62</title>
<g id="a_node4"><a xlink:href="class_dox_preview_ext_1_1_dox_util_1_1_c_msc_graph_image.html#aff5df9db8ec550d3262ad2be8543118c" target="_top" xlink:title="DoxPreviewExt.DoxUtil.CMsc\lGraphImage.GetValidImage">
<polygon fill="white" stroke="black" points="205.5,-98.5 205.5,-128.5 350.5,-128.5 350.5,-98.5 205.5,-98.5"/>
<text text-anchor="start" x="213.5" y="-116.5" font-family="Helvetica,sans-Serif" font-size="10.00">DoxPreviewExt.DoxUtil.CMsc</text>
<text text-anchor="middle" x="278" y="-105.5" font-family="Helvetica,sans-Serif" font-size="10.00">GraphImage.GetValidImage</text>
</a>
</g>
</g>
<!-- Node59&#45;&gt;Node62 -->
<g id="edge3" class="edge"><title>Node59&#45;&gt;Node62</title>
<path fill="none" stroke="midnightblue" d="M177.374,-113.5C186.731,-113.5 196.13,-113.5 205.217,-113.5"/>
<polygon fill="midnightblue" stroke="midnightblue" points="177.255,-110 167.254,-113.5 177.254,-117 177.255,-110"/>
</g>
<!-- Node63 -->
<g id="node5" class="node"><title>Node63</title>
<g id="a_node5"><a xlink:href="class_dox_preview_ext_1_1_dox_util_1_1_c_latex_formula_image.html#ad1919e20d9409a566ace5bda1fbd7e2f" target="_top" xlink:title="DoxPreviewExt.DoxUtil.CLatex\lFormulaImage.GetValidImage">
<polygon fill="white" stroke="black" points="203,-49.5 203,-79.5 353,-79.5 353,-49.5 203,-49.5"/>
<text text-anchor="start" x="211" y="-67.5" font-family="Helvetica,sans-Serif" font-size="10.00">DoxPreviewExt.DoxUtil.CLatex</text>
<text text-anchor="middle" x="278" y="-56.5" font-family="Helvetica,sans-Serif" font-size="10.00">FormulaImage.GetValidImage</text>
</a>
</g>
</g>
<!-- Node59&#45;&gt;Node63 -->
<g id="edge4" class="edge"><title>Node59&#45;&gt;Node63</title>
<path fill="none" stroke="midnightblue" d="M153.446,-95.9502C174.585,-90.5694 197.639,-84.701 218.047,-79.5062"/>
<polygon fill="midnightblue" stroke="midnightblue" points="152.392,-92.6067 143.565,-98.4654 154.119,-99.3904 152.392,-92.6067"/>
</g>
<!-- Node64 -->
<g id="node6" class="node"><title>Node64</title>
<g id="a_node6"><a xlink:href="class_dox_preview_ext_1_1_dox_util_1_1_c_dot_graph_image.html#ad28b3c8a962c4782b8bef0bc3452c1bf" target="_top" xlink:title="DoxPreviewExt.DoxUtil.CDot\lGraphImage.GetValidImage">
<polygon fill="white" stroke="black" points="207.5,-0.5 207.5,-30.5 348.5,-30.5 348.5,-0.5 207.5,-0.5"/>
<text text-anchor="start" x="215.5" y="-18.5" font-family="Helvetica,sans-Serif" font-size="10.00">DoxPreviewExt.DoxUtil.CDot</text>
<text text-anchor="middle" x="278" y="-7.5" font-family="Helvetica,sans-Serif" font-size="10.00">GraphImage.GetValidImage</text>
</a>
</g>
</g>
<!-- Node59&#45;&gt;Node64 -->
<g id="edge5" class="edge"><title>Node59&#45;&gt;Node64</title>
<path fill="none" stroke="midnightblue" d="M114.353,-92.4751C137.697,-76.6951 171.387,-55.3429 203,-40.5 210.733,-36.8692 219.142,-33.5113 227.425,-30.512"/>
<polygon fill="midnightblue" stroke="midnightblue" points="112.22,-89.6933 105.939,-98.225 116.17,-95.4728 112.22,-89.6933"/>
</g>
</g>
</svg>
