<?xml version="1.0" encoding="UTF-8" standalone="no"?>
<!DOCTYPE svg PUBLIC "-//W3C//DTD SVG 1.1//EN"
 "http://www.w3.org/Graphics/SVG/1.1/DTD/svg11.dtd">
<!-- Generated by graphviz version 2.38.0 (20140413.2041)
 -->
<!-- Title: DoxPreviewExt.DoxUtil.CmdClassifications.CodeContentFormatDefinition Pages: 1 -->
<svg width="178pt" height="182pt"
 viewBox="0.00 0.00 178.00 182.00" xmlns="http://www.w3.org/2000/svg" xmlns:xlink="http://www.w3.org/1999/xlink">
<g id="graph0" class="graph" transform="scale(1 1) rotate(0) translate(4 178)">
<title>DoxPreviewExt.DoxUtil.CmdClassifications.CodeContentFormatDefinition</title>
<polygon fill="white" stroke="none" points="-4,4 -4,-178 174,-178 174,4 -4,4"/>
<!-- Node0 -->
<g id="node1" class="node"><title>Node0</title>
<polygon fill="#bfbfbf" stroke="black" points="0,-0.5 0,-79.5 170,-79.5 170,-0.5 0,-0.5"/>
<text text-anchor="start" x="8" y="-67.5" font-family="Helvetica,sans-Serif" font-size="10.00">DoxPreviewExt.DoxUtil.Cmd</text>
<text text-anchor="start" x="8" y="-56.5" font-family="Helvetica,sans-Serif" font-size="10.00">Classifications.CodeContentFormat</text>
<text text-anchor="middle" x="85" y="-45.5" font-family="Helvetica,sans-Serif" font-size="10.00">Definition</text>
<polyline fill="none" stroke="black" points="0,-38.5 170,-38.5 "/>
<text text-anchor="middle" x="85" y="-26.5" font-family="Helvetica,sans-Serif" font-size="10.00"> </text>
<polyline fill="none" stroke="black" points="0,-19.5 170,-19.5 "/>
<text text-anchor="start" x="8" y="-7.5" font-family="Helvetica,sans-Serif" font-size="10.00">+ CodeContentFormatDefinition()</text>
</g>
<!-- Node1 -->
<g id="node2" class="node"><title>Node1</title>
<polygon fill="white" stroke="#bfbfbf" points="12.5,-116.5 12.5,-173.5 157.5,-173.5 157.5,-116.5 12.5,-116.5"/>
<text text-anchor="middle" x="85" y="-161.5" font-family="Helvetica,sans-Serif" font-size="10.00">ClassificationFormatDefinition</text>
<polyline fill="none" stroke="#bfbfbf" points="12.5,-154.5 157.5,-154.5 "/>
<text text-anchor="middle" x="85" y="-142.5" font-family="Helvetica,sans-Serif" font-size="10.00"> </text>
<polyline fill="none" stroke="#bfbfbf" points="12.5,-135.5 157.5,-135.5 "/>
<text text-anchor="middle" x="85" y="-123.5" font-family="Helvetica,sans-Serif" font-size="10.00"> </text>
</g>
<!-- Node1&#45;&gt;Node0 -->
<g id="edge1" class="edge"><title>Node1&#45;&gt;Node0</title>
<path fill="none" stroke="midnightblue" d="M85,-106.156C85,-97.4733 85,-88.2318 85,-79.5205"/>
<polygon fill="none" stroke="midnightblue" points="81.5001,-106.398 85,-116.398 88.5001,-106.398 81.5001,-106.398"/>
</g>
</g>
</svg>
