<?xml version="1.0" encoding="UTF-8" standalone="no"?>
<!DOCTYPE svg PUBLIC "-//W3C//DTD SVG 1.1//EN"
 "http://www.w3.org/Graphics/SVG/1.1/DTD/svg11.dtd">
<!-- Generated by graphviz version 2.38.0 (20140413.2041)
 -->
<!-- Title: DoxPreviewExt.DoxUtil.CMouseProcessorProvider.CMouseProcessor Pages: 1 -->
<svg width="187pt" height="325pt"
 viewBox="0.00 0.00 187.00 325.00" xmlns="http://www.w3.org/2000/svg" xmlns:xlink="http://www.w3.org/1999/xlink">
<g id="graph0" class="graph" transform="scale(1 1) rotate(0) translate(4 321)">
<title>DoxPreviewExt.DoxUtil.CMouseProcessorProvider.CMouseProcessor</title>
<polygon fill="white" stroke="none" points="-4,4 -4,-321 183,-321 183,4 -4,4"/>
<!-- Node2 -->
<g id="node1" class="node"><title>Node2</title>
<polygon fill="#bfbfbf" stroke="black" points="0,-0.5 0,-222.5 179,-222.5 179,-0.5 0,-0.5"/>
<text text-anchor="start" x="8" y="-210.5" font-family="Helvetica,sans-Serif" font-size="10.00">DoxPreviewExt.DoxUtil.CMouse</text>
<text text-anchor="middle" x="89.5" y="-199.5" font-family="Helvetica,sans-Serif" font-size="10.00">ProcessorProvider.CMouseProcessor</text>
<polyline fill="none" stroke="black" points="0,-192.5 179,-192.5 "/>
<text text-anchor="start" x="8" y="-180.5" font-family="Helvetica,sans-Serif" font-size="10.00">+ Aggregator</text>
<text text-anchor="start" x="8" y="-169.5" font-family="Helvetica,sans-Serif" font-size="10.00">+ WpfTextView</text>
<text text-anchor="start" x="8" y="-158.5" font-family="Helvetica,sans-Serif" font-size="10.00">+ HoverArgs</text>
<polyline fill="none" stroke="black" points="0,-151.5 179,-151.5 "/>
<text text-anchor="start" x="8" y="-139.5" font-family="Helvetica,sans-Serif" font-size="10.00">+ CMouseProcessor()</text>
<text text-anchor="start" x="8" y="-128.5" font-family="Helvetica,sans-Serif" font-size="10.00">+ WpfTextViewMouseHover()</text>
<text text-anchor="start" x="8" y="-117.5" font-family="Helvetica,sans-Serif" font-size="10.00">+ PostprocessDragEnter()</text>
<text text-anchor="start" x="8" y="-106.5" font-family="Helvetica,sans-Serif" font-size="10.00">+ PostprocessDragLeave()</text>
<text text-anchor="start" x="8" y="-95.5" font-family="Helvetica,sans-Serif" font-size="10.00">+ PostprocessDragOver()</text>
<text text-anchor="start" x="8" y="-84.5" font-family="Helvetica,sans-Serif" font-size="10.00">+ PostprocessDrop()</text>
<text text-anchor="start" x="8" y="-73.5" font-family="Helvetica,sans-Serif" font-size="10.00">+ PostprocessGiveFeedback()</text>
<text text-anchor="start" x="8" y="-62.5" font-family="Helvetica,sans-Serif" font-size="10.00">+ PostprocessMouseDown()</text>
<text text-anchor="start" x="8" y="-51.5" font-family="Helvetica,sans-Serif" font-size="10.00">+ PostprocessMouseEnter()</text>
<text text-anchor="start" x="8" y="-40.5" font-family="Helvetica,sans-Serif" font-size="10.00">+ PostprocessMouseLeave()</text>
<text text-anchor="start" x="8" y="-29.5" font-family="Helvetica,sans-Serif" font-size="10.00">and 24 more...</text>
<text text-anchor="start" x="8" y="-18.5" font-family="Helvetica,sans-Serif" font-size="10.00">&#45; FindSpanTag()</text>
<text text-anchor="start" x="8" y="-7.5" font-family="Helvetica,sans-Serif" font-size="10.00">&#45; OpenDoxReference()</text>
</g>
<!-- Node3 -->
<g id="node2" class="node"><title>Node3</title>
<polygon fill="white" stroke="#bfbfbf" points="43.5,-259.5 43.5,-316.5 135.5,-316.5 135.5,-259.5 43.5,-259.5"/>
<text text-anchor="middle" x="89.5" y="-304.5" font-family="Helvetica,sans-Serif" font-size="10.00">IMouseProcessor</text>
<polyline fill="none" stroke="#bfbfbf" points="43.5,-297.5 135.5,-297.5 "/>
<text text-anchor="middle" x="89.5" y="-285.5" font-family="Helvetica,sans-Serif" font-size="10.00"> </text>
<polyline fill="none" stroke="#bfbfbf" points="43.5,-278.5 135.5,-278.5 "/>
<text text-anchor="middle" x="89.5" y="-266.5" font-family="Helvetica,sans-Serif" font-size="10.00"> </text>
</g>
<!-- Node3&#45;&gt;Node2 -->
<g id="edge1" class="edge"><title>Node3&#45;&gt;Node2</title>
<path fill="none" stroke="midnightblue" d="M89.5,-249.203C89.5,-241.081 89.5,-232.104 89.5,-222.748"/>
<polygon fill="none" stroke="midnightblue" points="86.0001,-249.35 89.5,-259.35 93.0001,-249.35 86.0001,-249.35"/>
</g>
</g>
</svg>
