<?xml version="1.0" encoding="UTF-8" standalone="no"?>
<!DOCTYPE svg PUBLIC "-//W3C//DTD SVG 1.1//EN"
 "http://www.w3.org/Graphics/SVG/1.1/DTD/svg11.dtd">
<!-- Generated by graphviz version 2.38.0 (20140413.2041)
 -->
<!-- Title: DoxPreviewExt.DoxUtil.CManager.UpdateConfigFile Pages: 1 -->
<svg width="354pt" height="137pt"
 viewBox="0.00 0.00 354.00 137.00" xmlns="http://www.w3.org/2000/svg" xmlns:xlink="http://www.w3.org/1999/xlink">
<g id="graph0" class="graph" transform="scale(1 1) rotate(0) translate(4 133)">
<title>DoxPreviewExt.DoxUtil.CManager.UpdateConfigFile</title>
<polygon fill="white" stroke="none" points="-4,4 -4,-133 350,-133 350,4 -4,4"/>
<!-- Node70 -->
<g id="node1" class="node"><title>Node70</title>
<polygon fill="#bfbfbf" stroke="black" points="0,-49.5 0,-79.5 167,-79.5 167,-49.5 0,-49.5"/>
<text text-anchor="start" x="8" y="-67.5" font-family="Helvetica,sans-Serif" font-size="10.00">DoxPreviewExt.DoxUtil.CManager.</text>
<text text-anchor="middle" x="83.5" y="-56.5" font-family="Helvetica,sans-Serif" font-size="10.00">UpdateConfigFile</text>
</g>
<!-- Node71 -->
<g id="node2" class="node"><title>Node71</title>
<g id="a_node2"><a xlink:href="class_dox_preview_ext_1_1_dox_util_1_1_c_dox_src_config_x_m_l.html#a5ef6b7aa2d400526ddc79e7d7f2cae9e" target="_top" xlink:title="DoxPreviewExt.DoxUtil.CDox\lSrcConfigXML.GetConfigFile">
<polygon fill="white" stroke="black" points="203,-98.5 203,-128.5 346,-128.5 346,-98.5 203,-98.5"/>
<text text-anchor="start" x="211" y="-116.5" font-family="Helvetica,sans-Serif" font-size="10.00">DoxPreviewExt.DoxUtil.CDox</text>
<text text-anchor="middle" x="274.5" y="-105.5" font-family="Helvetica,sans-Serif" font-size="10.00">SrcConfigXML.GetConfigFile</text>
</a>
</g>
</g>
<!-- Node70&#45;&gt;Node71 -->
<g id="edge1" class="edge"><title>Node70&#45;&gt;Node71</title>
<path fill="none" stroke="midnightblue" d="M142.491,-79.5346C162.537,-84.7318 185.174,-90.6006 205.921,-95.9796"/>
<polygon fill="midnightblue" stroke="midnightblue" points="205.061,-99.3721 215.619,-98.4938 206.817,-92.5961 205.061,-99.3721"/>
</g>
<!-- Node72 -->
<g id="node3" class="node"><title>Node72</title>
<g id="a_node3"><a xlink:href="class_dox_preview_ext_1_1_dox_util_1_1_c_dox_src_config_x_m_l.html#a0506203854396684622892f159a6acb4" target="_top" xlink:title="DoxPreviewExt.DoxUtil.CDox\lSrcConfigXML.GetSource">
<polygon fill="white" stroke="black" points="203,-49.5 203,-79.5 346,-79.5 346,-49.5 203,-49.5"/>
<text text-anchor="start" x="211" y="-67.5" font-family="Helvetica,sans-Serif" font-size="10.00">DoxPreviewExt.DoxUtil.CDox</text>
<text text-anchor="middle" x="274.5" y="-56.5" font-family="Helvetica,sans-Serif" font-size="10.00">SrcConfigXML.GetSource</text>
</a>
</g>
</g>
<!-- Node70&#45;&gt;Node72 -->
<g id="edge2" class="edge"><title>Node70&#45;&gt;Node72</title>
<path fill="none" stroke="midnightblue" d="M167.123,-64.5C175.597,-64.5 184.201,-64.5 192.655,-64.5"/>
<polygon fill="midnightblue" stroke="midnightblue" points="192.876,-68.0001 202.876,-64.5 192.876,-61.0001 192.876,-68.0001"/>
</g>
<!-- Node73 -->
<g id="node4" class="node"><title>Node73</title>
<g id="a_node4"><a xlink:href="class_dox_preview_ext_1_1_dox_util_1_1_c_dox_src_config_x_m_l.html#acc3695fd5b6cc92d9f12760d16f9ccba" target="_top" xlink:title="read doxygen configuration ">
<polygon fill="white" stroke="black" points="203,-0.5 203,-30.5 346,-30.5 346,-0.5 203,-0.5"/>
<text text-anchor="start" x="211" y="-18.5" font-family="Helvetica,sans-Serif" font-size="10.00">DoxPreviewExt.DoxUtil.CDox</text>
<text text-anchor="middle" x="274.5" y="-7.5" font-family="Helvetica,sans-Serif" font-size="10.00">SrcConfigXML.Read</text>
</a>
</g>
</g>
<!-- Node70&#45;&gt;Node73 -->
<g id="edge3" class="edge"><title>Node70&#45;&gt;Node73</title>
<path fill="none" stroke="midnightblue" d="M142.491,-49.4654C162.537,-44.2682 185.174,-38.3994 205.921,-33.0204"/>
<polygon fill="midnightblue" stroke="midnightblue" points="206.817,-36.4039 215.619,-30.5062 205.061,-29.6279 206.817,-36.4039"/>
</g>
</g>
</svg>
