<?xml version="1.0" encoding="UTF-8" standalone="no"?>
<!DOCTYPE svg PUBLIC "-//W3C//DTD SVG 1.1//EN"
 "http://www.w3.org/Graphics/SVG/1.1/DTD/svg11.dtd">
<!-- Generated by graphviz version 2.38.0 (20140413.2041)
 -->
<!-- Title: Graphical Class Hierarchy Pages: 1 -->
<svg width="232pt" height="88pt"
 viewBox="0.00 0.00 232.00 88.00" xmlns="http://www.w3.org/2000/svg" xmlns:xlink="http://www.w3.org/1999/xlink">
<g id="graph0" class="graph" transform="scale(1 1) rotate(0) translate(4 84)">
<title>Graphical Class Hierarchy</title>
<polygon fill="white" stroke="none" points="-4,4 -4,-84 228,-84 228,4 -4,4"/>
<!-- Node9 -->
<g id="node1" class="node"><title>Node9</title>
<polygon fill="white" stroke="#bfbfbf" points="0,-30 0,-49 48,-49 48,-30 0,-30"/>
<text text-anchor="middle" x="24" y="-37" font-family="Helvetica,sans-Serif" font-size="10.00">ITagger</text>
</g>
<!-- Node0 -->
<g id="node2" class="node"><title>Node0</title>
<g id="a_node2"><a xlink:href="class_dox_preview_ext_1_1_dox_util_1_1_cmd_classification_tagger.html" target="_top" xlink:title="Classification tagger. ">
<polygon fill="white" stroke="black" points="84,-49.5 84,-79.5 224,-79.5 224,-49.5 84,-49.5"/>
<text text-anchor="start" x="92" y="-67.5" font-family="Helvetica,sans-Serif" font-size="10.00">DoxPreviewExt.DoxUtil.Cmd</text>
<text text-anchor="middle" x="154" y="-56.5" font-family="Helvetica,sans-Serif" font-size="10.00">ClassificationTagger</text>
</a>
</g>
</g>
<!-- Node9&#45;&gt;Node0 -->
<g id="edge1" class="edge"><title>Node9&#45;&gt;Node0</title>
<path fill="none" stroke="midnightblue" d="M58.1362,-45.9719C66.1249,-47.5322 74.9572,-49.2573 83.9232,-51.0084"/>
<polygon fill="midnightblue" stroke="midnightblue" points="58.6653,-42.5092 48.1798,-44.0273 57.3234,-49.3794 58.6653,-42.5092"/>
</g>
<!-- Node11 -->
<g id="node3" class="node"><title>Node11</title>
<g id="a_node3"><a xlink:href="class_dox_preview_ext_1_1_dox_util_1_1_dox_token_tagger.html" target="_top" xlink:title="doxygen tagger ">
<polygon fill="white" stroke="black" points="85.5,-0.5 85.5,-30.5 222.5,-30.5 222.5,-0.5 85.5,-0.5"/>
<text text-anchor="start" x="93.5" y="-18.5" font-family="Helvetica,sans-Serif" font-size="10.00">DoxPreviewExt.DoxUtil.Dox</text>
<text text-anchor="middle" x="154" y="-7.5" font-family="Helvetica,sans-Serif" font-size="10.00">TokenTagger</text>
</a>
</g>
</g>
<!-- Node9&#45;&gt;Node11 -->
<g id="edge2" class="edge"><title>Node9&#45;&gt;Node11</title>
<path fill="none" stroke="midnightblue" d="M58.2273,-33.2699C66.5969,-31.7006 75.888,-29.9585 85.2863,-28.1963"/>
<polygon fill="midnightblue" stroke="midnightblue" points="57.3635,-29.8708 48.1798,-35.1538 58.6536,-36.7509 57.3635,-29.8708"/>
</g>
</g>
</svg>
