<?xml version="1.0" encoding="UTF-8" standalone="no"?>
<!DOCTYPE svg PUBLIC "-//W3C//DTD SVG 1.1//EN"
 "http://www.w3.org/Graphics/SVG/1.1/DTD/svg11.dtd">
<!-- Generated by graphviz version 2.38.0 (20140413.2041)
 -->
<!-- Title: Graphical Class Hierarchy Pages: 1 -->
<svg width="386pt" height="630pt"
 viewBox="0.00 0.00 386.00 630.00" xmlns="http://www.w3.org/2000/svg" xmlns:xlink="http://www.w3.org/1999/xlink">
<g id="graph0" class="graph" transform="scale(1 1) rotate(0) translate(4 626)">
<title>Graphical Class Hierarchy</title>
<polygon fill="white" stroke="none" points="-4,4 -4,-626 382,-626 382,4 -4,4"/>
<!-- Node49 -->
<g id="node1" class="node"><title>Node49</title>
<polygon fill="white" stroke="#bfbfbf" points="0,-311.5 0,-330.5 145,-330.5 145,-311.5 0,-311.5"/>
<text text-anchor="middle" x="72.5" y="-318.5" font-family="Helvetica,sans-Serif" font-size="10.00">ClassificationFormatDefinition</text>
</g>
<!-- Node0 -->
<g id="node2" class="node"><title>Node0</title>
<g id="a_node2"><a xlink:href="class_dox_preview_ext_1_1_dox_util_1_1_cmd_classifications_1_1_code_content_format_definition.html" target="_top" xlink:title="DoxPreviewExt.DoxUtil.Cmd\lClassifications.CodeContentFormat\lDefinition">
<polygon fill="white" stroke="black" points="194.5,-580.5 194.5,-621.5 364.5,-621.5 364.5,-580.5 194.5,-580.5"/>
<text text-anchor="start" x="202.5" y="-609.5" font-family="Helvetica,sans-Serif" font-size="10.00">DoxPreviewExt.DoxUtil.Cmd</text>
<text text-anchor="start" x="202.5" y="-598.5" font-family="Helvetica,sans-Serif" font-size="10.00">Classifications.CodeContentFormat</text>
<text text-anchor="middle" x="279.5" y="-587.5" font-family="Helvetica,sans-Serif" font-size="10.00">Definition</text>
</a>
</g>
</g>
<!-- Node49&#45;&gt;Node0 -->
<g id="edge1" class="edge"><title>Node49&#45;&gt;Node0</title>
<path fill="none" stroke="midnightblue" d="M76.2633,-340.623C83.91,-387.529 109.711,-506.997 181,-571 185.085,-574.668 189.611,-577.887 194.41,-580.713"/>
<polygon fill="midnightblue" stroke="midnightblue" points="79.6978,-339.928 74.7268,-330.572 72.7782,-340.986 79.6978,-339.928"/>
</g>
<!-- Node51 -->
<g id="node3" class="node"><title>Node51</title>
<g id="a_node3"><a xlink:href="class_dox_preview_ext_1_1_dox_util_1_1_cmd_classifications_1_1_command_format_definition.html" target="_top" xlink:title="DoxPreviewExt.DoxUtil.Cmd\lClassifications.CommandFormatDefinition">
<polygon fill="white" stroke="black" points="181,-531 181,-561 378,-561 378,-531 181,-531"/>
<text text-anchor="start" x="189" y="-549" font-family="Helvetica,sans-Serif" font-size="10.00">DoxPreviewExt.DoxUtil.Cmd</text>
<text text-anchor="middle" x="279.5" y="-538" font-family="Helvetica,sans-Serif" font-size="10.00">Classifications.CommandFormatDefinition</text>
</a>
</g>
</g>
<!-- Node49&#45;&gt;Node51 -->
<g id="edge2" class="edge"><title>Node49&#45;&gt;Node51</title>
<path fill="none" stroke="midnightblue" d="M78.3343,-340.636C89.3062,-380.944 120.004,-473.239 181,-521 185.953,-524.878 191.441,-528.16 197.216,-530.937"/>
<polygon fill="midnightblue" stroke="midnightblue" points="81.6609,-339.522 75.754,-330.726 74.8867,-341.285 81.6609,-339.522"/>
</g>
<!-- Node52 -->
<g id="node4" class="node"><title>Node52</title>
<g id="a_node4"><a xlink:href="class_dox_preview_ext_1_1_dox_util_1_1_cmd_classifications_1_1_dot_content_format_definition.html" target="_top" xlink:title="DoxPreviewExt.DoxUtil.Cmd\lClassifications.DotContentFormat\lDefinition">
<polygon fill="white" stroke="black" points="198.5,-470.5 198.5,-511.5 360.5,-511.5 360.5,-470.5 198.5,-470.5"/>
<text text-anchor="start" x="206.5" y="-499.5" font-family="Helvetica,sans-Serif" font-size="10.00">DoxPreviewExt.DoxUtil.Cmd</text>
<text text-anchor="start" x="206.5" y="-488.5" font-family="Helvetica,sans-Serif" font-size="10.00">Classifications.DotContentFormat</text>
<text text-anchor="middle" x="279.5" y="-477.5" font-family="Helvetica,sans-Serif" font-size="10.00">Definition</text>
</a>
</g>
</g>
<!-- Node49&#45;&gt;Node52 -->
<g id="edge3" class="edge"><title>Node49&#45;&gt;Node52</title>
<path fill="none" stroke="midnightblue" d="M82.9561,-339.83C99.0054,-369.895 134.423,-428.638 181,-461 186.381,-464.739 192.244,-468.024 198.336,-470.908"/>
<polygon fill="midnightblue" stroke="midnightblue" points="85.9863,-338.071 78.2677,-330.813 79.7757,-341.3 85.9863,-338.071"/>
</g>
<!-- Node53 -->
<g id="node5" class="node"><title>Node53</title>
<g id="a_node5"><a xlink:href="class_dox_preview_ext_1_1_dox_util_1_1_cmd_classifications_1_1_image_format_definition.html" target="_top" xlink:title="DoxPreviewExt.DoxUtil.Cmd\lClassifications.ImageFormatDefinition">
<polygon fill="white" stroke="black" points="190,-421 190,-451 369,-451 369,-421 190,-421"/>
<text text-anchor="start" x="198" y="-439" font-family="Helvetica,sans-Serif" font-size="10.00">DoxPreviewExt.DoxUtil.Cmd</text>
<text text-anchor="middle" x="279.5" y="-428" font-family="Helvetica,sans-Serif" font-size="10.00">Classifications.ImageFormatDefinition</text>
</a>
</g>
</g>
<!-- Node49&#45;&gt;Node53 -->
<g id="edge4" class="edge"><title>Node49&#45;&gt;Node53</title>
<path fill="none" stroke="midnightblue" d="M89.1477,-338.114C108.7,-358.471 144.101,-392.07 181,-411 188.541,-414.869 196.724,-418.169 205.035,-420.977"/>
<polygon fill="midnightblue" stroke="midnightblue" points="91.6372,-335.653 82.2329,-330.773 86.5416,-340.452 91.6372,-335.653"/>
</g>
<!-- Node54 -->
<g id="node6" class="node"><title>Node54</title>
<g id="a_node6"><a xlink:href="class_dox_preview_ext_1_1_dox_util_1_1_cmd_classifications_1_1_latex_formula_content_format_definition.html" target="_top" xlink:title="DoxPreviewExt.DoxUtil.Cmd\lClassifications.LatexFormulaContent\lFormatDefinition">
<polygon fill="white" stroke="black" points="191.5,-360.5 191.5,-401.5 367.5,-401.5 367.5,-360.5 191.5,-360.5"/>
<text text-anchor="start" x="199.5" y="-389.5" font-family="Helvetica,sans-Serif" font-size="10.00">DoxPreviewExt.DoxUtil.Cmd</text>
<text text-anchor="start" x="199.5" y="-378.5" font-family="Helvetica,sans-Serif" font-size="10.00">Classifications.LatexFormulaContent</text>
<text text-anchor="middle" x="279.5" y="-367.5" font-family="Helvetica,sans-Serif" font-size="10.00">FormatDefinition</text>
</a>
</g>
</g>
<!-- Node49&#45;&gt;Node54 -->
<g id="edge5" class="edge"><title>Node49&#45;&gt;Node54</title>
<path fill="none" stroke="midnightblue" d="M115.773,-333.373C142.466,-341.185 177.604,-351.47 208.395,-360.482"/>
<polygon fill="midnightblue" stroke="midnightblue" points="116.563,-329.957 105.983,-330.507 114.597,-336.675 116.563,-329.957"/>
</g>
<!-- Node55 -->
<g id="node7" class="node"><title>Node55</title>
<g id="a_node7"><a xlink:href="class_dox_preview_ext_1_1_dox_util_1_1_cmd_classifications_1_1_msc_content_format_definition.html" target="_top" xlink:title="DoxPreviewExt.DoxUtil.Cmd\lClassifications.MscContentFormat\lDefinition">
<polygon fill="white" stroke="black" points="196.5,-300.5 196.5,-341.5 362.5,-341.5 362.5,-300.5 196.5,-300.5"/>
<text text-anchor="start" x="204.5" y="-329.5" font-family="Helvetica,sans-Serif" font-size="10.00">DoxPreviewExt.DoxUtil.Cmd</text>
<text text-anchor="start" x="204.5" y="-318.5" font-family="Helvetica,sans-Serif" font-size="10.00">Classifications.MscContentFormat</text>
<text text-anchor="middle" x="279.5" y="-307.5" font-family="Helvetica,sans-Serif" font-size="10.00">Definition</text>
</a>
</g>
</g>
<!-- Node49&#45;&gt;Node55 -->
<g id="edge6" class="edge"><title>Node49&#45;&gt;Node55</title>
<path fill="none" stroke="midnightblue" d="M155.39,-321C168.863,-321 182.833,-321 196.314,-321"/>
<polygon fill="midnightblue" stroke="midnightblue" points="155.199,-317.5 145.199,-321 155.199,-324.5 155.199,-317.5"/>
</g>
<!-- Node56 -->
<g id="node8" class="node"><title>Node56</title>
<g id="a_node8"><a xlink:href="class_dox_preview_ext_1_1_dox_util_1_1_cmd_classifications_1_1_plant_u_m_l_content_format_definition.html" target="_top" xlink:title="DoxPreviewExt.DoxUtil.Cmd\lClassifications.PlantUMLContent\lFormatDefinition">
<polygon fill="white" stroke="black" points="200,-240.5 200,-281.5 359,-281.5 359,-240.5 200,-240.5"/>
<text text-anchor="start" x="208" y="-269.5" font-family="Helvetica,sans-Serif" font-size="10.00">DoxPreviewExt.DoxUtil.Cmd</text>
<text text-anchor="start" x="208" y="-258.5" font-family="Helvetica,sans-Serif" font-size="10.00">Classifications.PlantUMLContent</text>
<text text-anchor="middle" x="279.5" y="-247.5" font-family="Helvetica,sans-Serif" font-size="10.00">FormatDefinition</text>
</a>
</g>
</g>
<!-- Node49&#45;&gt;Node56 -->
<g id="edge7" class="edge"><title>Node49&#45;&gt;Node56</title>
<path fill="none" stroke="midnightblue" d="M115.773,-308.627C142.466,-300.815 177.604,-290.53 208.395,-281.518"/>
<polygon fill="midnightblue" stroke="midnightblue" points="114.597,-305.325 105.983,-311.493 116.563,-312.043 114.597,-305.325"/>
</g>
<!-- Node57 -->
<g id="node9" class="node"><title>Node57</title>
<g id="a_node9"><a xlink:href="class_dox_preview_ext_1_1_dox_util_1_1_cmd_classifications_1_1_reference_format_definition.html" target="_top" xlink:title="DoxPreviewExt.DoxUtil.Cmd\lClassifications.ReferenceFormat\lDefinition">
<polygon fill="white" stroke="black" points="201,-180.5 201,-221.5 358,-221.5 358,-180.5 201,-180.5"/>
<text text-anchor="start" x="209" y="-209.5" font-family="Helvetica,sans-Serif" font-size="10.00">DoxPreviewExt.DoxUtil.Cmd</text>
<text text-anchor="start" x="209" y="-198.5" font-family="Helvetica,sans-Serif" font-size="10.00">Classifications.ReferenceFormat</text>
<text text-anchor="middle" x="279.5" y="-187.5" font-family="Helvetica,sans-Serif" font-size="10.00">Definition</text>
</a>
</g>
</g>
<!-- Node49&#45;&gt;Node57 -->
<g id="edge8" class="edge"><title>Node49&#45;&gt;Node57</title>
<path fill="none" stroke="midnightblue" d="M89.302,-304.178C109.007,-284.112 144.561,-250.801 181,-231 187.38,-227.533 194.217,-224.407 201.202,-221.602"/>
<polygon fill="midnightblue" stroke="midnightblue" points="86.7525,-301.78 82.3276,-311.406 91.7899,-306.64 86.7525,-301.78"/>
</g>
<!-- Node58 -->
<g id="node10" class="node"><title>Node58</title>
<g id="a_node10"><a xlink:href="class_dox_preview_ext_1_1_dox_util_1_1_cmd_classifications_1_1_unknown_command_format_definition.html" target="_top" xlink:title="DoxPreviewExt.DoxUtil.Cmd\lClassifications.UnknownCommand\lFormatDefinition">
<polygon fill="white" stroke="black" points="196,-120.5 196,-161.5 363,-161.5 363,-120.5 196,-120.5"/>
<text text-anchor="start" x="204" y="-149.5" font-family="Helvetica,sans-Serif" font-size="10.00">DoxPreviewExt.DoxUtil.Cmd</text>
<text text-anchor="start" x="204" y="-138.5" font-family="Helvetica,sans-Serif" font-size="10.00">Classifications.UnknownCommand</text>
<text text-anchor="middle" x="279.5" y="-127.5" font-family="Helvetica,sans-Serif" font-size="10.00">FormatDefinition</text>
</a>
</g>
</g>
<!-- Node49&#45;&gt;Node58 -->
<g id="edge9" class="edge"><title>Node49&#45;&gt;Node58</title>
<path fill="none" stroke="midnightblue" d="M81.9521,-302.16C97.1677,-270.372 132.19,-206.122 181,-171 185.888,-167.483 191.197,-164.371 196.729,-161.619"/>
<polygon fill="midnightblue" stroke="midnightblue" points="78.7622,-300.719 77.7156,-311.262 85.1085,-303.673 78.7622,-300.719"/>
</g>
<!-- Node59 -->
<g id="node11" class="node"><title>Node59</title>
<g id="a_node11"><a xlink:href="class_dox_preview_ext_1_1_dox_util_1_1_cmd_classifications_1_1_unknown_image_format_definition.html" target="_top" xlink:title="DoxPreviewExt.DoxUtil.Cmd\lClassifications.UnknownImageFormat\lDefinition">
<polygon fill="white" stroke="black" points="190,-60.5 190,-101.5 369,-101.5 369,-60.5 190,-60.5"/>
<text text-anchor="start" x="198" y="-89.5" font-family="Helvetica,sans-Serif" font-size="10.00">DoxPreviewExt.DoxUtil.Cmd</text>
<text text-anchor="start" x="198" y="-78.5" font-family="Helvetica,sans-Serif" font-size="10.00">Classifications.UnknownImageFormat</text>
<text text-anchor="middle" x="279.5" y="-67.5" font-family="Helvetica,sans-Serif" font-size="10.00">Definition</text>
</a>
</g>
</g>
<!-- Node49&#45;&gt;Node59 -->
<g id="edge10" class="edge"><title>Node49&#45;&gt;Node59</title>
<path fill="none" stroke="midnightblue" d="M78.0094,-301.485C88.5853,-260.104 118.918,-163.088 181,-111 185.206,-107.471 189.823,-104.357 194.69,-101.609"/>
<polygon fill="midnightblue" stroke="midnightblue" points="74.5638,-300.841 75.5895,-311.386 81.3637,-302.503 74.5638,-300.841"/>
</g>
<!-- Node60 -->
<g id="node12" class="node"><title>Node60</title>
<g id="a_node12"><a xlink:href="class_dox_preview_ext_1_1_dox_util_1_1_cmd_classifications_1_1_unknown_reference_format_definition.html" target="_top" xlink:title="DoxPreviewExt.DoxUtil.Cmd\lClassifications.UnknownReference\lFormatDefinition">
<polygon fill="white" stroke="black" points="196.5,-0.5 196.5,-41.5 362.5,-41.5 362.5,-0.5 196.5,-0.5"/>
<text text-anchor="start" x="204.5" y="-29.5" font-family="Helvetica,sans-Serif" font-size="10.00">DoxPreviewExt.DoxUtil.Cmd</text>
<text text-anchor="start" x="204.5" y="-18.5" font-family="Helvetica,sans-Serif" font-size="10.00">Classifications.UnknownReference</text>
<text text-anchor="middle" x="279.5" y="-7.5" font-family="Helvetica,sans-Serif" font-size="10.00">FormatDefinition</text>
</a>
</g>
</g>
<!-- Node49&#45;&gt;Node60 -->
<g id="edge11" class="edge"><title>Node49&#45;&gt;Node60</title>
<path fill="none" stroke="midnightblue" d="M75.5459,-301.494C81.771,-252.12 104.972,-121.147 181,-51 185.556,-46.7967 190.688,-43.1819 196.155,-40.0734"/>
<polygon fill="midnightblue" stroke="midnightblue" points="72.0634,-301.142 74.3833,-311.479 79.0165,-301.951 72.0634,-301.142"/>
</g>
</g>
</svg>
