<?xml version="1.0" encoding="UTF-8" standalone="no"?>
<!DOCTYPE svg PUBLIC "-//W3C//DTD SVG 1.1//EN"
 "http://www.w3.org/Graphics/SVG/1.1/DTD/svg11.dtd">
<!-- Generated by graphviz version 2.38.0 (20140413.2041)
 -->
<!-- Title: Graphical Class Hierarchy Pages: 1 -->
<svg width="544pt" height="186pt"
 viewBox="0.00 0.00 544.00 186.00" xmlns="http://www.w3.org/2000/svg" xmlns:xlink="http://www.w3.org/1999/xlink">
<g id="graph0" class="graph" transform="scale(1 1) rotate(0) translate(4 182)">
<title>Graphical Class Hierarchy</title>
<polygon fill="white" stroke="none" points="-4,4 -4,-182 540,-182 540,4 -4,4"/>
<!-- Node0 -->
<g id="node1" class="node"><title>Node0</title>
<g id="a_node1"><a xlink:href="interface_dox_preview_ext_1_1_dox_util_1_1_i_preview_image.html" target="_top" xlink:title="DoxPreviewExt.DoxUtil.IPreview\lImage">
<polygon fill="white" stroke="black" points="0,-73.5 0,-103.5 155,-103.5 155,-73.5 0,-73.5"/>
<text text-anchor="start" x="8" y="-91.5" font-family="Helvetica,sans-Serif" font-size="10.00">DoxPreviewExt.DoxUtil.IPreview</text>
<text text-anchor="middle" x="77.5" y="-80.5" font-family="Helvetica,sans-Serif" font-size="10.00">Image</text>
</a>
</g>
</g>
<!-- Node1 -->
<g id="node2" class="node"><title>Node1</title>
<g id="a_node2"><a xlink:href="class_dox_preview_ext_1_1_dox_util_1_1_c_preview_image_base.html" target="_top" xlink:title="DoxPreviewExt.DoxUtil.CPreview\lImageBase">
<polygon fill="white" stroke="black" points="191,-73.5 191,-103.5 350,-103.5 350,-73.5 191,-73.5"/>
<text text-anchor="start" x="199" y="-91.5" font-family="Helvetica,sans-Serif" font-size="10.00">DoxPreviewExt.DoxUtil.CPreview</text>
<text text-anchor="middle" x="270.5" y="-80.5" font-family="Helvetica,sans-Serif" font-size="10.00">ImageBase</text>
</a>
</g>
</g>
<!-- Node0&#45;&gt;Node1 -->
<g id="edge1" class="edge"><title>Node0&#45;&gt;Node1</title>
<path fill="none" stroke="midnightblue" d="M165.338,-88.5C173.794,-88.5 182.342,-88.5 190.712,-88.5"/>
<polygon fill="midnightblue" stroke="midnightblue" points="165.087,-85.0001 155.086,-88.5 165.086,-92.0001 165.087,-85.0001"/>
</g>
<!-- Node2 -->
<g id="node3" class="node"><title>Node2</title>
<g id="a_node3"><a xlink:href="class_dox_preview_ext_1_1_dox_util_1_1_c_dot_graph_image.html" target="_top" xlink:title="DoxPreviewExt.DoxUtil.CDot\lGraphImage">
<polygon fill="white" stroke="black" points="390.5,-147.5 390.5,-177.5 531.5,-177.5 531.5,-147.5 390.5,-147.5"/>
<text text-anchor="start" x="398.5" y="-165.5" font-family="Helvetica,sans-Serif" font-size="10.00">DoxPreviewExt.DoxUtil.CDot</text>
<text text-anchor="middle" x="461" y="-154.5" font-family="Helvetica,sans-Serif" font-size="10.00">GraphImage</text>
</a>
</g>
</g>
<!-- Node1&#45;&gt;Node2 -->
<g id="edge2" class="edge"><title>Node1&#45;&gt;Node2</title>
<path fill="none" stroke="midnightblue" d="M312.925,-107.761C334.503,-117.493 361.444,-129.182 386,-138.5 394.082,-141.567 402.747,-144.6 411.2,-147.425"/>
<polygon fill="midnightblue" stroke="midnightblue" points="314.276,-104.53 303.724,-103.582 311.382,-110.904 314.276,-104.53"/>
</g>
<!-- Node3 -->
<g id="node4" class="node"><title>Node3</title>
<g id="a_node4"><a xlink:href="class_dox_preview_ext_1_1_dox_util_1_1_c_latex_formula_image.html" target="_top" xlink:title="DoxPreviewExt.DoxUtil.CLatex\lFormulaImage">
<polygon fill="white" stroke="black" points="386,-98.5 386,-128.5 536,-128.5 536,-98.5 386,-98.5"/>
<text text-anchor="start" x="394" y="-116.5" font-family="Helvetica,sans-Serif" font-size="10.00">DoxPreviewExt.DoxUtil.CLatex</text>
<text text-anchor="middle" x="461" y="-105.5" font-family="Helvetica,sans-Serif" font-size="10.00">FormulaImage</text>
</a>
</g>
</g>
<!-- Node1&#45;&gt;Node3 -->
<g id="edge3" class="edge"><title>Node1&#45;&gt;Node3</title>
<path fill="none" stroke="midnightblue" d="M360.112,-100.252C368.7,-101.391 377.35,-102.539 385.777,-103.656"/>
<polygon fill="midnightblue" stroke="midnightblue" points="360.449,-96.7664 350.076,-98.9212 359.529,-103.706 360.449,-96.7664"/>
</g>
<!-- Node4 -->
<g id="node5" class="node"><title>Node4</title>
<g id="a_node5"><a xlink:href="class_dox_preview_ext_1_1_dox_util_1_1_c_msc_graph_image.html" target="_top" xlink:title="DoxPreviewExt.DoxUtil.CMsc\lGraphImage">
<polygon fill="white" stroke="black" points="388.5,-49.5 388.5,-79.5 533.5,-79.5 533.5,-49.5 388.5,-49.5"/>
<text text-anchor="start" x="396.5" y="-67.5" font-family="Helvetica,sans-Serif" font-size="10.00">DoxPreviewExt.DoxUtil.CMsc</text>
<text text-anchor="middle" x="461" y="-56.5" font-family="Helvetica,sans-Serif" font-size="10.00">GraphImage</text>
</a>
</g>
</g>
<!-- Node1&#45;&gt;Node4 -->
<g id="edge4" class="edge"><title>Node1&#45;&gt;Node4</title>
<path fill="none" stroke="midnightblue" d="M360.284,-77.1959C369.735,-75.9927 379.259,-74.78 388.475,-73.6067"/>
<polygon fill="midnightblue" stroke="midnightblue" points="359.554,-73.7606 350.076,-78.4956 360.438,-80.7045 359.554,-73.7606"/>
</g>
<!-- Node5 -->
<g id="node6" class="node"><title>Node5</title>
<g id="a_node6"><a xlink:href="class_dox_preview_ext_1_1_dox_util_1_1_c_plant_u_m_l_image.html" target="_top" xlink:title="DoxPreviewExt.DoxUtil.CPlant\lUMLImage">
<polygon fill="white" stroke="black" points="386.5,-0.5 386.5,-30.5 535.5,-30.5 535.5,-0.5 386.5,-0.5"/>
<text text-anchor="start" x="394.5" y="-18.5" font-family="Helvetica,sans-Serif" font-size="10.00">DoxPreviewExt.DoxUtil.CPlant</text>
<text text-anchor="middle" x="461" y="-7.5" font-family="Helvetica,sans-Serif" font-size="10.00">UMLImage</text>
</a>
</g>
</g>
<!-- Node1&#45;&gt;Node5 -->
<g id="edge5" class="edge"><title>Node1&#45;&gt;Node5</title>
<path fill="none" stroke="midnightblue" d="M314.974,-69.4174C336.243,-60.3019 362.308,-49.4549 386,-40.5 394.879,-37.1438 404.436,-33.7539 413.635,-30.5995"/>
<polygon fill="midnightblue" stroke="midnightblue" points="313.364,-66.2998 305.565,-73.4707 316.134,-72.7286 313.364,-66.2998"/>
</g>
</g>
</svg>
