<?xml version="1.0" encoding="UTF-8" standalone="no"?>
<!DOCTYPE svg PUBLIC "-//W3C//DTD SVG 1.1//EN"
 "http://www.w3.org/Graphics/SVG/1.1/DTD/svg11.dtd">
<!-- Generated by graphviz version 2.38.0 (20140413.2041)
 -->
<!-- Title: Graphical Class Hierarchy Pages: 1 -->
<svg width="272pt" height="88pt"
 viewBox="0.00 0.00 272.00 88.00" xmlns="http://www.w3.org/2000/svg" xmlns:xlink="http://www.w3.org/1999/xlink">
<g id="graph0" class="graph" transform="scale(1 1) rotate(0) translate(4 84)">
<title>Graphical Class Hierarchy</title>
<polygon fill="white" stroke="none" points="-4,4 -4,-84 268,-84 268,4 -4,4"/>
<!-- Node35 -->
<g id="node1" class="node"><title>Node35</title>
<polygon fill="white" stroke="#bfbfbf" points="0,-30 0,-49 66,-49 66,-30 0,-30"/>
<text text-anchor="middle" x="33" y="-37" font-family="Helvetica,sans-Serif" font-size="10.00">DialogPage</text>
</g>
<!-- Node0 -->
<g id="node2" class="node"><title>Node0</title>
<g id="a_node2"><a xlink:href="class_dox_preview_ext_1_1_configuration_1_1_option_page_action_settings.html" target="_top" xlink:title="Options Page Grid cf Creating an Options Page [https://msdn.microsoft.com/en&#45;us/library/bb166195.aspx?f=255&amp;MSPPError=&#45;2147217396]. ">
<polygon fill="white" stroke="black" points="111,-49.5 111,-79.5 255,-79.5 255,-49.5 111,-49.5"/>
<text text-anchor="start" x="119" y="-67.5" font-family="Helvetica,sans-Serif" font-size="10.00">DoxPreviewExt.Configuration.</text>
<text text-anchor="middle" x="183" y="-56.5" font-family="Helvetica,sans-Serif" font-size="10.00">OptionPageActionSettings</text>
</a>
</g>
</g>
<!-- Node35&#45;&gt;Node0 -->
<g id="edge1" class="edge"><title>Node35&#45;&gt;Node0</title>
<path fill="none" stroke="midnightblue" d="M76.1131,-46.6137C86.9442,-48.4433 98.9022,-50.4632 110.765,-52.4671"/>
<polygon fill="midnightblue" stroke="midnightblue" points="76.5571,-43.1392 66.1138,-44.9246 75.3911,-50.0414 76.5571,-43.1392"/>
</g>
<!-- Node37 -->
<g id="node3" class="node"><title>Node37</title>
<g id="a_node3"><a xlink:href="class_dox_preview_ext_1_1_configuration_1_1_option_page_doxygen_configuration.html" target="_top" xlink:title="DoxPreviewExt.Configuration.\lOptionPageDoxygenConfiguration">
<polygon fill="white" stroke="black" points="102,-0.5 102,-30.5 264,-30.5 264,-0.5 102,-0.5"/>
<text text-anchor="start" x="110" y="-18.5" font-family="Helvetica,sans-Serif" font-size="10.00">DoxPreviewExt.Configuration.</text>
<text text-anchor="middle" x="183" y="-7.5" font-family="Helvetica,sans-Serif" font-size="10.00">OptionPageDoxygenConfiguration</text>
</a>
</g>
</g>
<!-- Node35&#45;&gt;Node37 -->
<g id="edge2" class="edge"><title>Node35&#45;&gt;Node37</title>
<path fill="none" stroke="midnightblue" d="M76.0763,-32.6768C84.2437,-31.3524 93.0528,-29.9239 101.98,-28.4763"/>
<polygon fill="midnightblue" stroke="midnightblue" points="75.4246,-29.2367 66.1138,-34.2924 76.5451,-36.1464 75.4246,-29.2367"/>
</g>
</g>
</svg>
