<?xml version="1.0" encoding="UTF-8" standalone="no"?>
<!DOCTYPE svg PUBLIC "-//W3C//DTD SVG 1.1//EN"
 "http://www.w3.org/Graphics/SVG/1.1/DTD/svg11.dtd">
<!-- Generated by graphviz version 2.38.0 (20140413.2041)
 -->
<!-- Title: Graphical Class Hierarchy Pages: 1 -->
<svg width="419pt" height="186pt"
 viewBox="0.00 0.00 419.00 186.00" xmlns="http://www.w3.org/2000/svg" xmlns:xlink="http://www.w3.org/1999/xlink">
<g id="graph0" class="graph" transform="scale(1 1) rotate(0) translate(4 182)">
<title>Graphical Class Hierarchy</title>
<polygon fill="white" stroke="none" points="-4,4 -4,-182 415,-182 415,4 -4,4"/>
<!-- Node0 -->
<g id="node1" class="node"><title>Node0</title>
<g id="a_node1"><a xlink:href="class_dox_preview_ext_1_1_command_1_1_command_base.html" target="_top" xlink:title="DoxPreviewExt.Command.CommandBase">
<polygon fill="white" stroke="black" points="0,-79 0,-98 199,-98 199,-79 0,-79"/>
<text text-anchor="middle" x="99.5" y="-86" font-family="Helvetica,sans-Serif" font-size="10.00">DoxPreviewExt.Command.CommandBase</text>
</a>
</g>
</g>
<!-- Node1 -->
<g id="node2" class="node"><title>Node1</title>
<g id="a_node2"><a xlink:href="class_dox_preview_ext_1_1_command_1_1_command_document_source.html" target="_top" xlink:title="Command handler ">
<polygon fill="white" stroke="black" points="235,-147.5 235,-177.5 411,-177.5 411,-147.5 235,-147.5"/>
<text text-anchor="start" x="243" y="-165.5" font-family="Helvetica,sans-Serif" font-size="10.00">DoxPreviewExt.Command.Command</text>
<text text-anchor="middle" x="323" y="-154.5" font-family="Helvetica,sans-Serif" font-size="10.00">DocumentSource</text>
</a>
</g>
</g>
<!-- Node0&#45;&gt;Node1 -->
<g id="edge1" class="edge"><title>Node0&#45;&gt;Node1</title>
<path fill="none" stroke="midnightblue" d="M133.96,-101.861C161.003,-112.434 200.165,-127.244 235,-138.5 244.542,-141.583 254.75,-144.625 264.696,-147.453"/>
<polygon fill="midnightblue" stroke="midnightblue" points="135.163,-98.5728 124.576,-98.171 132.602,-105.087 135.163,-98.5728"/>
</g>
<!-- Node2 -->
<g id="node3" class="node"><title>Node2</title>
<g id="a_node3"><a xlink:href="class_dox_preview_ext_1_1_command_1_1_command_doxgen_generate_preview.html" target="_top" xlink:title="DoxPreviewExt.Command.Command\lDoxgenGeneratePreview">
<polygon fill="white" stroke="black" points="235,-98.5 235,-128.5 411,-128.5 411,-98.5 235,-98.5"/>
<text text-anchor="start" x="243" y="-116.5" font-family="Helvetica,sans-Serif" font-size="10.00">DoxPreviewExt.Command.Command</text>
<text text-anchor="middle" x="323" y="-105.5" font-family="Helvetica,sans-Serif" font-size="10.00">DoxgenGeneratePreview</text>
</a>
</g>
</g>
<!-- Node0&#45;&gt;Node2 -->
<g id="edge2" class="edge"><title>Node0&#45;&gt;Node2</title>
<path fill="none" stroke="midnightblue" d="M194.943,-99.1595C208.211,-100.657 221.799,-102.191 234.922,-103.672"/>
<polygon fill="midnightblue" stroke="midnightblue" points="195.201,-95.6665 184.872,-98.0227 194.416,-102.622 195.201,-95.6665"/>
</g>
<!-- Node3 -->
<g id="node4" class="node"><title>Node3</title>
<g id="a_node4"><a xlink:href="class_dox_preview_ext_1_1_command_1_1_command_doxygen_browse.html" target="_top" xlink:title="DoxPreviewExt.Command.Command\lDoxygenBrowse">
<polygon fill="white" stroke="black" points="235,-49.5 235,-79.5 411,-79.5 411,-49.5 235,-49.5"/>
<text text-anchor="start" x="243" y="-67.5" font-family="Helvetica,sans-Serif" font-size="10.00">DoxPreviewExt.Command.Command</text>
<text text-anchor="middle" x="323" y="-56.5" font-family="Helvetica,sans-Serif" font-size="10.00">DoxygenBrowse</text>
</a>
</g>
</g>
<!-- Node0&#45;&gt;Node3 -->
<g id="edge3" class="edge"><title>Node0&#45;&gt;Node3</title>
<path fill="none" stroke="midnightblue" d="M198.502,-77.8812C210.649,-76.5651 223.003,-75.2265 234.97,-73.9299"/>
<polygon fill="midnightblue" stroke="midnightblue" points="197.926,-74.4232 188.361,-78.9801 198.68,-81.3824 197.926,-74.4232"/>
</g>
<!-- Node4 -->
<g id="node5" class="node"><title>Node4</title>
<g id="a_node5"><a xlink:href="class_dox_preview_ext_1_1_command_1_1_command_doxygen_ref_browse.html" target="_top" xlink:title="DoxPreviewExt.Command.Command\lDoxygenRefBrowse">
<polygon fill="white" stroke="black" points="235,-0.5 235,-30.5 411,-30.5 411,-0.5 235,-0.5"/>
<text text-anchor="start" x="243" y="-18.5" font-family="Helvetica,sans-Serif" font-size="10.00">DoxPreviewExt.Command.Command</text>
<text text-anchor="middle" x="323" y="-7.5" font-family="Helvetica,sans-Serif" font-size="10.00">DoxygenRefBrowse</text>
</a>
</g>
</g>
<!-- Node0&#45;&gt;Node4 -->
<g id="edge4" class="edge"><title>Node0&#45;&gt;Node4</title>
<path fill="none" stroke="midnightblue" d="M135.034,-75.4993C162.082,-65.4812 200.737,-51.5245 235,-40.5 245.472,-37.1305 256.722,-33.7345 267.541,-30.5784"/>
<polygon fill="midnightblue" stroke="midnightblue" points="133.776,-72.2328 125.623,-78.9993 136.216,-78.7937 133.776,-72.2328"/>
</g>
</g>
</svg>
