<?xml version="1.0" encoding="UTF-8" standalone="no"?>
<!DOCTYPE svg PUBLIC "-//W3C//DTD SVG 1.1//EN"
 "http://www.w3.org/Graphics/SVG/1.1/DTD/svg11.dtd">
<!-- Generated by graphviz version 2.38.0 (20140413.2041)
 -->
<!-- Title: DoxPreviewExt.DoxUtil.IPreviewImage.GetImageFile Pages: 1 -->
<svg width="561pt" height="284pt"
 viewBox="0.00 0.00 561.00 284.00" xmlns="http://www.w3.org/2000/svg" xmlns:xlink="http://www.w3.org/1999/xlink">
<g id="graph0" class="graph" transform="scale(1 1) rotate(0) translate(4 280)">
<title>DoxPreviewExt.DoxUtil.IPreviewImage.GetImageFile</title>
<polygon fill="white" stroke="none" points="-4,4 -4,-280 557,-280 557,4 -4,4"/>
<!-- Node3 -->
<g id="node1" class="node"><title>Node3</title>
<polygon fill="#bfbfbf" stroke="black" points="0,-122.5 0,-152.5 155,-152.5 155,-122.5 0,-122.5"/>
<text text-anchor="start" x="8" y="-140.5" font-family="Helvetica,sans-Serif" font-size="10.00">DoxPreviewExt.DoxUtil.IPreview</text>
<text text-anchor="middle" x="77.5" y="-129.5" font-family="Helvetica,sans-Serif" font-size="10.00">Image.GetImageFile</text>
</g>
<!-- Node4 -->
<g id="node2" class="node"><title>Node4</title>
<g id="a_node2"><a xlink:href="class_dox_preview_ext_1_1_dox_util_1_1_c_preview_image_collection.html#a73cac9910652d047ec984c47b6ef5e78" target="_top" xlink:title="DoxPreviewExt.DoxUtil.CPreview\lImageCollection.Add">
<polygon fill="white" stroke="black" points="191,-122.5 191,-152.5 350,-152.5 350,-122.5 191,-122.5"/>
<text text-anchor="start" x="199" y="-140.5" font-family="Helvetica,sans-Serif" font-size="10.00">DoxPreviewExt.DoxUtil.CPreview</text>
<text text-anchor="middle" x="270.5" y="-129.5" font-family="Helvetica,sans-Serif" font-size="10.00">ImageCollection.Add</text>
</a>
</g>
</g>
<!-- Node3&#45;&gt;Node4 -->
<g id="edge1" class="edge"><title>Node3&#45;&gt;Node4</title>
<path fill="none" stroke="midnightblue" d="M165.338,-137.5C173.794,-137.5 182.342,-137.5 190.712,-137.5"/>
<polygon fill="midnightblue" stroke="midnightblue" points="165.087,-134 155.086,-137.5 165.086,-141 165.087,-134"/>
</g>
<!-- Node5 -->
<g id="node3" class="node"><title>Node5</title>
<g id="a_node3"><a xlink:href="class_dox_preview_ext_1_1_dox_util_1_1_c_manager.html#a41fd97178d306f958adfa04e98245788" target="_top" xlink:title="generate temporary image file from dot graph file ">
<polygon fill="white" stroke="black" points="386,-245.5 386,-275.5 553,-275.5 553,-245.5 386,-245.5"/>
<text text-anchor="start" x="394" y="-263.5" font-family="Helvetica,sans-Serif" font-size="10.00">DoxPreviewExt.DoxUtil.CManager.</text>
<text text-anchor="middle" x="469.5" y="-252.5" font-family="Helvetica,sans-Serif" font-size="10.00">GenerateDotFileGraphPreview</text>
</a>
</g>
</g>
<!-- Node4&#45;&gt;Node5 -->
<g id="edge2" class="edge"><title>Node4&#45;&gt;Node5</title>
<path fill="none" stroke="midnightblue" d="M291.739,-159.926C313.119,-182.337 348.827,-216.288 386,-236.5 392.29,-239.92 399.122,-242.902 406.071,-245.488"/>
<polygon fill="midnightblue" stroke="midnightblue" points="294.189,-157.421 284.795,-152.521 289.082,-162.21 294.189,-157.421"/>
</g>
<!-- Node6 -->
<g id="node4" class="node"><title>Node6</title>
<g id="a_node4"><a xlink:href="class_dox_preview_ext_1_1_dox_util_1_1_c_manager.html#ad7db4f3dab9ed86e292bc247d748a116" target="_top" xlink:title="generate temporary image file from dot graph source code ">
<polygon fill="white" stroke="black" points="386,-196.5 386,-226.5 553,-226.5 553,-196.5 386,-196.5"/>
<text text-anchor="start" x="394" y="-214.5" font-family="Helvetica,sans-Serif" font-size="10.00">DoxPreviewExt.DoxUtil.CManager.</text>
<text text-anchor="middle" x="469.5" y="-203.5" font-family="Helvetica,sans-Serif" font-size="10.00">GenerateDotGraphPreview</text>
</a>
</g>
</g>
<!-- Node4&#45;&gt;Node6 -->
<g id="edge3" class="edge"><title>Node4&#45;&gt;Node6</title>
<path fill="none" stroke="midnightblue" d="M312.345,-156.862C333.968,-166.721 361.127,-178.494 386,-187.5 394.696,-190.649 404.019,-193.68 413.155,-196.466"/>
<polygon fill="midnightblue" stroke="midnightblue" points="313.683,-153.625 303.135,-152.626 310.758,-159.985 313.683,-153.625"/>
</g>
<!-- Node7 -->
<g id="node5" class="node"><title>Node7</title>
<g id="a_node5"><a xlink:href="class_dox_preview_ext_1_1_dox_util_1_1_c_manager.html#af01d6d596a0d4a8c53f6767573220d48" target="_top" xlink:title="generate temporary image file from PlatUML source code ">
<polygon fill="white" stroke="black" points="386,-147.5 386,-177.5 553,-177.5 553,-147.5 386,-147.5"/>
<text text-anchor="start" x="394" y="-165.5" font-family="Helvetica,sans-Serif" font-size="10.00">DoxPreviewExt.DoxUtil.CManager.</text>
<text text-anchor="middle" x="469.5" y="-154.5" font-family="Helvetica,sans-Serif" font-size="10.00">GenerateLatexFormulaPreview</text>
</a>
</g>
</g>
<!-- Node4&#45;&gt;Node7 -->
<g id="edge4" class="edge"><title>Node4&#45;&gt;Node7</title>
<path fill="none" stroke="midnightblue" d="M360.142,-148.749C368.655,-149.829 377.268,-150.922 385.722,-151.995"/>
<polygon fill="midnightblue" stroke="midnightblue" points="360.57,-145.275 350.209,-147.488 359.689,-152.22 360.57,-145.275"/>
</g>
<!-- Node8 -->
<g id="node6" class="node"><title>Node8</title>
<g id="a_node6"><a xlink:href="class_dox_preview_ext_1_1_dox_util_1_1_c_manager.html#aea18832ce732f40416fee962c51c808f" target="_top" xlink:title="generate temporary image file from message sequence chart file ">
<polygon fill="white" stroke="black" points="386,-98.5 386,-128.5 553,-128.5 553,-98.5 386,-98.5"/>
<text text-anchor="start" x="394" y="-116.5" font-family="Helvetica,sans-Serif" font-size="10.00">DoxPreviewExt.DoxUtil.CManager.</text>
<text text-anchor="middle" x="469.5" y="-105.5" font-family="Helvetica,sans-Serif" font-size="10.00">GenerateMscFileGraphPreview</text>
</a>
</g>
</g>
<!-- Node4&#45;&gt;Node8 -->
<g id="edge5" class="edge"><title>Node4&#45;&gt;Node8</title>
<path fill="none" stroke="midnightblue" d="M360.142,-126.701C368.655,-125.664 377.268,-124.615 385.722,-123.585"/>
<polygon fill="midnightblue" stroke="midnightblue" points="359.712,-123.227 350.209,-127.911 360.559,-130.176 359.712,-123.227"/>
</g>
<!-- Node9 -->
<g id="node7" class="node"><title>Node9</title>
<g id="a_node7"><a xlink:href="class_dox_preview_ext_1_1_dox_util_1_1_c_manager.html#ad46efcd34e05a818e19aa180a8a0744c" target="_top" xlink:title="generate temporary image file from message sequence chart source code ">
<polygon fill="white" stroke="black" points="386,-49.5 386,-79.5 553,-79.5 553,-49.5 386,-49.5"/>
<text text-anchor="start" x="394" y="-67.5" font-family="Helvetica,sans-Serif" font-size="10.00">DoxPreviewExt.DoxUtil.CManager.</text>
<text text-anchor="middle" x="469.5" y="-56.5" font-family="Helvetica,sans-Serif" font-size="10.00">GenerateMscGraphPreview</text>
</a>
</g>
</g>
<!-- Node4&#45;&gt;Node9 -->
<g id="edge6" class="edge"><title>Node4&#45;&gt;Node9</title>
<path fill="none" stroke="midnightblue" d="M314.617,-118.19C335.901,-108.976 362.082,-98.1115 386,-89.5 395.575,-86.0525 405.885,-82.6725 415.862,-79.5675"/>
<polygon fill="midnightblue" stroke="midnightblue" points="312.976,-115.087 305.209,-122.293 315.774,-121.504 312.976,-115.087"/>
</g>
<!-- Node10 -->
<g id="node8" class="node"><title>Node10</title>
<g id="a_node8"><a xlink:href="class_dox_preview_ext_1_1_dox_util_1_1_c_manager.html#a551bed9380410be9c46e74656bfa2e8a" target="_top" xlink:title="generate temporary image file from PlatUML source code ">
<polygon fill="white" stroke="black" points="386,-0.5 386,-30.5 553,-30.5 553,-0.5 386,-0.5"/>
<text text-anchor="start" x="394" y="-18.5" font-family="Helvetica,sans-Serif" font-size="10.00">DoxPreviewExt.DoxUtil.CManager.</text>
<text text-anchor="middle" x="469.5" y="-7.5" font-family="Helvetica,sans-Serif" font-size="10.00">GeneratePlatUMLPreview</text>
</a>
</g>
</g>
<!-- Node4&#45;&gt;Node10 -->
<g id="edge7" class="edge"><title>Node4&#45;&gt;Node10</title>
<path fill="none" stroke="midnightblue" d="M292.597,-114.899C314.159,-93.0211 349.566,-60.3348 386,-40.5 392.967,-36.7074 400.585,-33.4136 408.286,-30.5746"/>
<polygon fill="midnightblue" stroke="midnightblue" points="290.016,-112.532 285.568,-122.148 295.042,-117.405 290.016,-112.532"/>
</g>
</g>
</svg>
